<?xml version="1.0" standalone="no"?>
<!DOCTYPE svg PUBLIC "-//W3C//DTD SVG 1.1//EN" "http://www.w3.org/Graphics/SVG/1.1/DTD/svg11.dtd" >
<svg>
<metadata>
Created by FontForge 20090622 at Wed Apr 19 23:38:07 2017
 By deploy user
Copyright &#194;&#169; 1995 ParaGraph Intl., &#194;&#169; 1998 ParaType Inc., ParaType Ltd. All rights reserved.
</metadata>
<defs>
<font id="FuturaPTBook" horiz-adv-x="500" >
  <font-face 
    font-family="Futura PT Book"
    font-weight="400"
    font-stretch="normal"
    units-per-em="1000"
    panose-1="2 11 5 2 2 2 4 2 3 3"
    ascent="763"
    descent="-237"
    x-height="415"
    cap-height="667"
    bbox="-362 -250 1027 926"
    underline-thickness="50"
    underline-position="-50"
    unicode-range="U+0020-U+FB02"
  />
<missing-glyph 
d="M58 8h384v496h-384v-496zM50 0v512h400v-512h-400z" />
    <glyph glyph-name="afii10017.var.accented" unicode="&#x410;`" horiz-adv-x="622" 
d="M532 0l-78 188h-284l-80 -188h-82l307 699l299 -699h-82zM199 258h226l-112 267zM393 882l70 -45l-153 -117l-43 32z" />
    <glyph glyph-name="afii10022.var.accented" unicode="&#x415;`" horiz-adv-x="482" 
d="M432 667v-70h-272v-198h264v-70h-264v-259h272v-70h-346v667h346zM324 882l70 -45l-153 -117l-43 32z" />
    <glyph glyph-name="afii10026.var.accented" unicode="&#x418;`" horiz-adv-x="710" 
d="M550 0v509l-464 -539v697h74v-511l464 539v-695h-74zM437 882l70 -45l-153 -117l-43 32z" />
    <glyph glyph-name="afii10032.var.accented" unicode="&#x41e;`" horiz-adv-x="794" 
d="M397 -12q-146 0 -246.5 99t-100.5 246q0 148 101 246.5t246 98.5t246 -98.5t101 -246.5q0 -147 -100.5 -246t-246.5 -99zM397 608q-113 0 -192 -80t-79 -195t79 -195t192 -80q112 0 191.5 80.5t79.5 194.5t-79.5 194.5t-191.5 80.5zM479 882l70 -45l-153 -117l-43 32z
" />
    <glyph glyph-name="afii10037.var.accented" unicode="&#x423;`" horiz-adv-x="568" 
d="M8 667h90l208 -393l174 393h80l-301 -667h-80l85 186zM366 882l70 -45l-153 -117l-43 32z" />
    <glyph glyph-name="afii10045.var.accented" unicode="&#x42b;`" horiz-adv-x="710" 
d="M86 0v667h74v-277h90q230 0 230 -188q0 -95 -58.5 -148.5t-157.5 -53.5h-178zM160 320v-250h86q86 0 123 37q35 31 35 95q0 72 -54 101q-31 17 -112 17h-78zM550 667h74v-667h-74v667zM437 882l70 -45l-153 -117l-43 32z" />
    <glyph glyph-name="afii10047.var.accented" unicode="&#x42d;`" horiz-adv-x="645" 
d="M50 520v92q96 66 217 66q149 0 238.5 -97.5t89.5 -249.5q0 -150 -88.5 -246.5t-235.5 -96.5q-119 0 -221 65v92q32 -32 77 -54q69 -33 144 -33q102 0 175 70.5t73 181.5h-389v70h386q-8 97 -75.5 162.5t-168.5 65.5q-75 0 -135 -28q-51 -24 -87 -60zM338 882l70 -45
l-153 -117l-43 32z" />
    <glyph glyph-name="afii10048.var.accented" unicode="&#x42e;`" horiz-adv-x="990" 
d="M160 389h102q18 125 111.5 207t225.5 82q148 0 244.5 -97t96.5 -248q0 -149 -97 -247t-244 -98q-145 0 -239.5 97t-100.5 234h-99v-319h-74v667h74v-278zM599 608q-111 0 -187.5 -79t-76.5 -196t76.5 -196t187.5 -79q112 0 188.5 79t76.5 196t-76.5 196t-188.5 79z
M577 882l70 -45l-153 -117l-43 32z" />
    <glyph glyph-name="afii10049.var.accented" unicode="&#x42f;`" horiz-adv-x="510" 
d="M30 0l196 296q-68 7 -112 42q-58 47 -58 136q0 80 46 133q52 60 166 60h156v-667h-74v292h-40l-190 -292h-90zM350 597h-72q-80 0 -114 -35q-32 -32 -32 -86q0 -59 38 -90q34 -28 102 -28h78v239zM337 882l70 -45l-153 -117l-43 32z" />
    <glyph glyph-name="afii10023.var.accented" unicode="&#x401;`" horiz-adv-x="482" 
d="M432 667v-70h-272v-198h264v-70h-264v-259h272v-70h-346v667h346zM291 882l55 -37l-124 -118l-34 25zM86 793q0 21 13.5 34.5t34.5 13.5q23 0 36 -14.5t13 -33.5q0 -20 -14.5 -34.5t-34.5 -14.5q-19 0 -33.5 13t-14.5 36zM335 793q0 19 13 33.5t36 14.5q21 0 34.5 -13.5
t13.5 -34.5q0 -23 -14.5 -36t-33.5 -13q-20 0 -34.5 14.5t-14.5 34.5z" />
    <glyph glyph-name="afii10065.var.accented" unicode="&#x430;`" horiz-adv-x="526" 
d="M386 356v59h72v-415h-72v58q-52 -70 -142 -70q-84 0 -143 58t-59 162q0 102 58.5 159.5t143.5 57.5q87 0 142 -69zM252 361q-57 0 -96.5 -40.5t-39.5 -112.5q0 -68 36.5 -112t99.5 -44q64 0 101 45t37 110q0 74 -42 114t-96 40zM325 666l74 -34l-134 -135l-45 24z" />
    <glyph glyph-name="afii10070.var.accented" unicode="&#x435;`" horiz-adv-x="481" 
d="M376 139l60 -33q-21 -40 -51 -67q-57 -51 -138 -51q-84 0 -144.5 54.5t-60.5 162.5q0 95 55 157.5t146 62.5q104 0 157 -76q44 -60 39 -156h-323q0 -62 38.5 -101.5t93.5 -39.5q49 0 85 30q28 24 43 57zM121 253h244q-9 49 -42.5 78.5t-79.5 29.5t-80 -30.5t-42 -77.5z
M303 666l74 -34l-134 -135l-45 24z" />
    <glyph glyph-name="afii10074.var.accented" unicode="&#x438;`" horiz-adv-x="492" 
d="M68 415h72v-274l284 306v-447h-72v277l-284 -306v444zM309 666l74 -34l-134 -135l-45 24z" />
    <glyph glyph-name="afii10080.var.accented" unicode="&#x43e;`" horiz-adv-x="524" 
d="M262 -12q-95 0 -157.5 62t-62.5 156t62.5 156.5t157.5 62.5t157.5 -62.5t62.5 -156.5t-62.5 -156t-157.5 -62zM262 361q-61 0 -103.5 -41.5t-42.5 -113.5t43 -113t103 -41t103 41.5t43 112.5q0 72 -42.5 113.5t-103.5 41.5zM324 666l74 -34l-134 -135l-45 24z" />
    <glyph glyph-name="afii10085.var.accented" unicode="&#x443;`" horiz-adv-x="460" 
d="M67 -230l132 269l-191 376h82l147 -297l135 297h80l-305 -645h-80zM293 666l74 -34l-134 -135l-45 24z" />
    <glyph glyph-name="afii10093.var.accented" unicode="&#x44b;`" horiz-adv-x="562" 
d="M68 0v415h72v-159h74q85 0 126 -41q32 -32 32 -87q0 -60 -37 -93q-38 -35 -122 -35h-145zM140 64h67q47 0 64 11q27 21 27 53q0 36 -26 52q-19 12 -64 12h-68v-128zM422 0v415h72v-415h-72zM343 666l74 -34l-134 -135l-45 24z" />
    <glyph glyph-name="afii10095.var.accented" unicode="&#x44d;`" horiz-adv-x="423" 
d="M42 334v70q53 21 113 21q106 0 166 -61t60 -159q0 -94 -61.5 -155.5t-159.5 -61.5q-62 0 -118 23v70q57 -29 117 -29q58 0 100 35.5t48 92.5h-219v64h219q-12 56 -52.5 86.5t-96.5 30.5q-61 0 -116 -27zM224 666l74 -34l-134 -135l-45 24z" />
    <glyph glyph-name="afii10096.var.accented" unicode="&#x44e;`" horiz-adv-x="690" 
d="M140 245h75q10 72 56 118q57 62 157 62q96 0 158 -62.5t62 -156.5t-62.5 -156t-157.5 -62q-109 0 -171 78q-40 50 -46 113h-71v-179h-72v415h72v-170zM428 361q-60 0 -101.5 -41.5t-41.5 -113.5q0 -73 42 -113.5t101 -40.5q60 0 103 41.5t43 112.5q0 72 -42.5 113.5
t-103.5 41.5zM407 666l74 -34l-134 -135l-45 24z" />
    <glyph glyph-name="afii10097.var.accented" unicode="&#x44f;`" horiz-adv-x="408" 
d="M20 0l129 171q-47 0 -80 33q-33 31 -33 83q0 59 37 93q38 35 122 35h145v-415h-72v167h-44l-118 -167h-86zM268 227v124h-67q-47 0 -65 -11q-26 -17 -26 -51q0 -33 26 -50q19 -12 64 -12h68zM267 666l74 -34l-134 -135l-45 24z" />
    <glyph glyph-name="afii10071.var.accented" unicode="&#x451;`" horiz-adv-x="481" 
d="M376 139l60 -33q-21 -40 -51 -67q-56 -51 -138 -51q-90 0 -144 54q-61 61 -61 163q0 107 66 169q55 51 135 51q106 0 157 -76q44 -60 39 -156h-323q0 -63 42 -105q36 -36 90 -36q50 0 85 30q28 24 43 57zM121 253h244q-6 39 -37 73q-35 35 -85 35q-52 0 -85 -37
q-26 -26 -37 -71zM78 550q0 20 15 35t35 15t35 -15t15 -35t-15 -35t-35 -15t-35 15t-15 35zM308 550q0 20 15 35t35 15t35 -15t15 -35t-15 -35t-35 -15t-35 15t-15 35zM291 666l61 -27l-134 -135l-32 17z" />
    <glyph glyph-name="fi" unicode="fi" horiz-adv-x="460" 
d="M244 349h-102v-349h-72v349h-40v66h40v156q0 74 24 109q41 61 137 61q99 0 137 -61q24 -39 24 -109v-17h-72v17q0 43 -14 65q-20 32 -75 32t-75 -32q-14 -20 -14 -65v-156h102v-66zM320 415h72v-415h-72v415z" />
    <glyph glyph-name="fl" unicode="fl" horiz-adv-x="460" 
d="M244 349h-102v-349h-72v349h-40v66h40v156q0 74 24 109q41 61 137 61q99 0 137 -61q24 -39 24 -109v-571h-72v571q0 43 -14 65q-20 32 -75 32t-75 -32q-14 -20 -14 -65v-156h102v-66z" />
    <glyph glyph-name=".notdef" 
d="M58 8h384v496h-384v-496zM50 0v512h400v-512h-400z" />
    <glyph glyph-name=".null" horiz-adv-x="0" 
 />
    <glyph glyph-name="nonmarkingreturn" horiz-adv-x="333" 
 />
    <glyph glyph-name="space" unicode=" " horiz-adv-x="233" 
 />
    <glyph glyph-name="exclam" unicode="!" horiz-adv-x="280" 
d="M176 135h-72v532h72v-532zM90 40q0 20 15 35t35 15t35 -15t15 -35t-15 -35t-35 -15t-35 15t-15 35z" />
    <glyph glyph-name="quotedbl" unicode="&#x22;" horiz-adv-x="330" 
d="M134 667l-13 -268h-54l-13 268h80zM276 667l-13 -268h-54l-13 268h80z" />
    <glyph glyph-name="numbersign" unicode="#" horiz-adv-x="600" 
d="M394 0h-73l32 207h-136l-32 -207h-73l32 207h-110l10 66h110l20 133h-110l10 66h110l30 195h73l-30 -195h136l30 195h73l-30 -195h110l-10 -66h-110l-20 -133h110l-10 -66h-110zM363 273l20 133h-136l-20 -133h136z" />
    <glyph glyph-name="dollar" unicode="$" horiz-adv-x="568" 
d="M467 574l-59 -39q-15 32 -38 50q-15 13 -43 21v-222q79 -31 117 -70q47 -49 47 -121t-44 -131t-120 -70v-93h-60v89q-76 4 -128 54q-46 46 -62 118l72 20q7 -53 40 -85q34 -35 78 -37v274q-74 31 -110 65q-46 43 -46 109q0 69 45 116.5t111 53.5v87h60v-87q45 -7 76 -28
q40 -28 64 -74zM327 304v-242q40 12 64 48.5t24 79.5q0 47 -32 79q-17 17 -56 35zM267 411v195q-40 -6 -61 -34t-21 -65q0 -35 25 -60q22 -22 57 -36z" />
    <glyph glyph-name="percent" unicode="%" horiz-adv-x="710" 
d="M178 673q60 0 102.5 -42.5t42.5 -102.5t-42.5 -102.5t-102.5 -42.5t-102.5 42.5t-42.5 102.5t42.5 102.5t102.5 42.5zM178 438q36 0 60.5 26.5t24.5 63.5t-24.5 63.5t-60.5 26.5t-60.5 -26t-24.5 -64t24.5 -64t60.5 -26zM141 10l389 670l39 -22l-389 -671zM532 283
q60 0 102.5 -42.5t42.5 -102.5t-42.5 -102.5t-102.5 -42.5t-102.5 42.5t-42.5 102.5t42.5 102.5t102.5 42.5zM532 48q36 0 60.5 26.5t24.5 63.5t-24.5 63.5t-60.5 26.5t-60.5 -26t-24.5 -64t24.5 -64t60.5 -26z" />
    <glyph glyph-name="ampersand" unicode="&#x26;" horiz-adv-x="636" 
d="M545 289l54 -45q-37 -49 -85 -99l112 -145h-92l-72 93q-46 -46 -103.5 -75.5t-111.5 -29.5q-82 0 -137.5 52.5t-55.5 132.5q0 78 60 138q44 44 112 83q-35 46 -50.5 78t-15.5 65q0 57 38.5 99t106.5 42q66 0 103.5 -40t37.5 -94q0 -66 -62 -121q-5 -5 -9 -8l-7.5 -5.5
t-13.5 -10.5l-24 -19l139 -179q59 64 76 88zM417 148l-148 191q-58 -36 -94 -69q-47 -42 -47 -96q0 -51 33.5 -84.5t84.5 -33.5q32 0 71 19.5t60.5 37t39.5 35.5zM257 475l30 -41l44 34q45 36 45 77q0 34 -21.5 51.5t-50.5 17.5q-31 0 -52.5 -20.5t-21.5 -52.5q0 -27 27 -66
z" />
    <glyph glyph-name="quotesingle" unicode="'" horiz-adv-x="188" 
d="M134 667l-13 -268h-54l-13 268h80z" />
    <glyph glyph-name="parenleft" unicode="(" horiz-adv-x="294" 
d="M167 740l63 -29q-28 -70 -51 -173q-25 -116 -25 -252q0 -129 24 -244q17 -84 52 -183l-63 -29q-45 114 -66 226q-21 105 -21 232q0 138 28 260q22 94 59 192z" />
    <glyph glyph-name="parenright" unicode=")" horiz-adv-x="294" 
d="M64 711l63 29q37 -98 59 -192q28 -122 28 -260q0 -127 -21 -232q-19 -99 -66 -226l-63 29q35 99 52 183q24 115 24 244q0 136 -25 252q-23 103 -51 173z" />
    <glyph glyph-name="asterisk" unicode="*" horiz-adv-x="568" 
d="M139 648l116 -43l-5 124h68l-5 -124l116 43l21 -63l-120 -34l77 -97l-54 -39l-69 103l-69 -103l-54 39l77 97l-120 34z" />
    <glyph glyph-name="plus" unicode="+" 
d="M33 300v66h181v172h72v-172h181v-66h-181v-172h-72v172h-181z" />
    <glyph glyph-name="comma" unicode="," horiz-adv-x="274" 
d="M24 -133l82 231l66 -24l-101 -226z" />
    <glyph glyph-name="hyphen" unicode="-" horiz-adv-x="320" 
d="M50 176v74h220v-74h-220z" />
    <glyph glyph-name="period" unicode="." horiz-adv-x="228" 
d="M64 40q0 20 15 35t35 15t35 -15t15 -35t-15 -35t-35 -15t-35 15t-15 35z" />
    <glyph glyph-name="slash" unicode="/" horiz-adv-x="592" 
d="M0 -170l514 929l58 -30l-514 -927z" />
    <glyph glyph-name="zero" unicode="0" horiz-adv-x="568" 
d="M284 -12q-103 0 -171 100q-67 97 -67 245t67 245q36 51 81.5 75.5t89.5 24.5t89.5 -24.5t81.5 -75.5q67 -97 67 -245t-67 -245q-68 -100 -171 -100zM284 610q-69 0 -115 -74q-49 -78 -49 -203t49 -203q46 -74 115 -74t115 74q49 78 49 203t-49 203q-46 74 -115 74z" />
    <glyph glyph-name="one" unicode="1" horiz-adv-x="568" 
d="M266 0v597h-112l39 70h147v-667h-74z" />
    <glyph glyph-name="two" unicode="2" horiz-adv-x="568" 
d="M481 0h-431l243 281q62 73 78 97q37 51 37 102q0 57 -36.5 93.5t-96.5 36.5q-72 0 -111 -59q-21 -32 -22 -79h-74q4 85 50 138q60 68 158 68q89 0 147.5 -56.5t58.5 -142.5q0 -67 -53 -143q-27 -37 -91 -111l-139 -157h282v-68z" />
    <glyph glyph-name="three" unicode="3" horiz-adv-x="568" 
d="M160 502h-74q5 56 31 98q48 78 155 78q89 0 138.5 -53t49.5 -127q0 -104 -86 -148q12 -4 25.5 -13t31 -26.5t28.5 -49.5t11 -72q0 -91 -58.5 -146t-146.5 -55q-58 0 -110 27.5t-76 87.5q-13 29 -15 70h74q5 -39 24 -67q36 -50 103 -50q56 0 93.5 39t37.5 96q0 81 -66 112
q-30 16 -76 14v66q41 -5 76 14q56 28 56 99q0 49 -28 81.5t-86 32.5q-55 0 -86 -38q-22 -28 -26 -70z" />
    <glyph glyph-name="four" unicode="4" horiz-adv-x="568" 
d="M436 704v-510h82v-68h-82v-126h-74v126h-342zM151 194h211v295z" />
    <glyph glyph-name="five" unicode="5" horiz-adv-x="568" 
d="M479 667v-68h-214l-43 -144q15 4 42 4q99 0 159.5 -66t60.5 -165q0 -108 -70.5 -174t-172.5 -66q-86 0 -149 52q-38 35 -58 68l59 42q14 -29 45 -54q49 -40 108 -40q69 0 116.5 50t47.5 121q0 72 -46.5 118t-117.5 46q-62 0 -129 -46l76 252l21 70h265z" />
    <glyph glyph-name="six" unicode="6" horiz-adv-x="568" 
d="M336 683l56 -42l-153 -213q29 9 59 9q94 0 155 -63t61 -157q0 -100 -64.5 -164.5t-164.5 -64.5q-74 0 -128.5 35.5t-78.5 86t-24 105.5q0 78 55 153zM284 56q69 0 112.5 45t43.5 114q0 67 -44 110.5t-113 43.5q-68 0 -111.5 -44t-43.5 -110q0 -67 44 -113t112 -46z" />
    <glyph glyph-name="seven" unicode="7" horiz-adv-x="568" 
d="M52 23l379 576h-365v68h490l-422 -646l-24 -37z" />
    <glyph glyph-name="eight" unicode="8" horiz-adv-x="568" 
d="M387 347q101 -46 101 -163q0 -83 -53.5 -139.5t-150.5 -56.5q-98 0 -151 56.5t-53 139.5q0 117 101 163q-81 47 -81 146q0 76 49 130.5t135 54.5t135 -54.5t49 -130.5q0 -99 -81 -146zM284 377q49 0 81.5 32.5t32.5 82.5q0 53 -33.5 85.5t-80.5 32.5t-80.5 -32.5
t-33.5 -85.5q0 -50 32.5 -82.5t81.5 -32.5zM284 56q58 0 94 36.5t36 93.5q0 56 -36.5 91.5t-93.5 35.5t-93.5 -35.5t-36.5 -91.5q0 -57 36 -93.5t94 -36.5z" />
    <glyph glyph-name="nine" unicode="9" horiz-adv-x="568" 
d="M232 -16l-56 41l153 213q-29 -9 -59 -9q-95 0 -155.5 63t-60.5 157q0 100 64.5 164.5t164.5 64.5q74 0 128.5 -35.5t78.5 -86t24 -105.5q0 -77 -55 -153zM284 610q-69 0 -112.5 -45t-43.5 -114q0 -67 44 -110.5t113 -43.5q68 0 111.5 44t43.5 110q0 67 -44 113t-112 46z
" />
    <glyph glyph-name="colon" unicode=":" horiz-adv-x="228" 
d="M64 375q0 20 15 35t35 15t35 -15t15 -35t-15 -35t-35 -15t-35 15t-15 35zM64 38q0 20 15 35t35 15t35 -15t15 -35t-15 -35t-35 -15t-35 15t-15 35z" />
    <glyph glyph-name="semicolon" unicode=";" horiz-adv-x="274" 
d="M78 375q0 20 15 35t35 15t35 -15t15 -35t-15 -35t-35 -15t-35 15t-15 35zM24 -133l82 231l66 -24l-101 -226z" />
    <glyph glyph-name="less" unicode="&#x3c;" 
d="M110 330l357 -162v-72l-434 203v62l434 203v-72z" />
    <glyph glyph-name="equal" unicode="=" 
d="M33 384v66h434v-66h-434zM33 230v66h434v-66h-434z" />
    <glyph glyph-name="greater" unicode="&#x3e;" 
d="M390 330l-357 162v72l434 -203v-62l-434 -203v72z" />
    <glyph glyph-name="question" unicode="?" horiz-adv-x="436" 
d="M289 289h72q0 -69 -41 -113q-38 -40 -103 -40q-64 0 -104 40t-40 103q0 86 84 124q20 9 49.5 17.5t34.5 10.5q64 23 64 88q0 46 -26 70q-21 21 -61 21q-41 0 -63 -21q-26 -23 -26 -67q0 -23 6 -42h-74q-4 17 -4 44q0 66 38 108q41 46 122 46q75 0 118 -43q44 -44 44 -118
q0 -59 -34 -98q-29 -33 -77 -50q-8 -3 -22.5 -7.5l-26.5 -8.5t-23 -9q-49 -23 -49 -70q0 -32 20 -52q18 -18 49 -18t49 18q24 24 24 67zM168 38q0 20 15 35t35 15t35 -15t15 -35t-15 -35t-35 -15t-35 15t-15 35z" />
    <glyph glyph-name="at" unicode="@" horiz-adv-x="733" 
d="M480 427l13 64h52q-21 -87 -47 -249v-8q0 -46 37 -46q39 0 76 54t37 137q0 111 -77 180t-190 69q-124 0 -210.5 -86.5t-86.5 -211.5q0 -50 16.5 -99t50 -94.5t95.5 -73.5t144 -28q110 0 209 46l15 -46q-100 -48 -225 -48q-156 0 -256 96t-100 248q0 144 100.5 244.5
t246.5 100.5q131 0 223.5 -82.5t92.5 -213.5q0 -100 -50.5 -168t-112.5 -68q-31 0 -51 18.5t-22 48.5q-46 -71 -125 -71q-62 0 -101 46.5t-39 114.5q0 83 49.5 143t125.5 60q82 0 110 -77zM346 194q51 0 83 47.5t32 111.5q0 48 -25 72.5t-61 24.5q-51 0 -86.5 -44.5
t-35.5 -102.5q0 -51 27.5 -80t65.5 -29z" />
    <glyph glyph-name="A" unicode="A" horiz-adv-x="622" 
d="M532 0l-78 188h-284l-80 -188h-82l307 699l299 -699h-82zM199 258h226l-112 267z" />
    <glyph glyph-name="B" unicode="B" horiz-adv-x="530" 
d="M86 667h120q102 0 153 -42q60 -46 60 -138q0 -85 -66 -131q64 -17 95.5 -65t31.5 -103q0 -45 -19.5 -83t-48.5 -61q-54 -44 -160 -44h-166v667zM160 597v-223h56q15 0 29 1.5t33.5 8t34 17.5t24.5 33t10 51q0 31 -12 53.5t-27 33.5t-36 17t-32 7t-22 1h-58zM160 308v-238
h85q81 0 117 28q44 31 44 92q0 66 -57 98q-37 20 -113 20h-76z" />
    <glyph glyph-name="C" unicode="C" horiz-adv-x="646" 
d="M596 612v-92q-41 41 -87 62q-57 26 -115 26q-115 0 -191.5 -80.5t-76.5 -197.5q0 -126 83.5 -199t185.5 -73q67 0 124 31q41 20 77 56v-92q-92 -65 -201 -65q-148 0 -246.5 99t-98.5 244q0 150 99.5 248.5t249.5 98.5q110 0 197 -66z" />
    <glyph glyph-name="D" unicode="D" horiz-adv-x="632" 
d="M86 0v667h136q154 0 246 -78q114 -95 114 -256q0 -159 -117 -256q-47 -40 -102 -58.5t-142 -18.5h-135zM160 597v-527h65q119 0 191 60q90 76 90 203q0 119 -77 191.5t-204 72.5h-65z" />
    <glyph glyph-name="E" unicode="E" horiz-adv-x="482" 
d="M432 667v-70h-272v-198h264v-70h-264v-259h272v-70h-346v667h346z" />
    <glyph glyph-name="F" unicode="F" horiz-adv-x="434" 
d="M390 667v-70h-230v-197h222v-70h-222v-330h-74v667h304z" />
    <glyph glyph-name="G" unicode="G" horiz-adv-x="758" 
d="M430 265v70h278v-16q0 -126 -64 -211q-97 -120 -248 -120q-148 0 -247 99t-99 246t99.5 246t248.5 99q120 0 204 -66q45 -33 77 -79l-55 -50q-28 41 -63 69q-66 56 -162 56q-119 0 -196 -79t-77 -197q0 -86 42 -150.5t102.5 -94t126.5 -29.5t120 30t84 82q23 41 27 95
h-198z" />
    <glyph glyph-name="H" unicode="H" horiz-adv-x="662" 
d="M160 667v-271h342v271h74v-667h-74v326h-342v-326h-74v667h74z" />
    <glyph glyph-name="I" unicode="I" horiz-adv-x="246" 
d="M86 667h74v-667h-74v667z" />
    <glyph glyph-name="J" unicode="J" horiz-adv-x="306" 
d="M146 667h74v-480q0 -36 -1.5 -57.5t-11 -50.5t-28.5 -49q-39 -42 -106 -42q-76 0 -119 49l41 58q35 -37 76 -37q31 0 50 19q25 25 25 108v482z" />
    <glyph glyph-name="K" unicode="K" horiz-adv-x="568" 
d="M160 667v-286l284 286h100l-312 -311l322 -356h-102l-273 306l-19 -19v-287h-74v667h74z" />
    <glyph glyph-name="L" unicode="L" horiz-adv-x="358" 
d="M86 667h74v-597h184v-70h-258v667z" />
    <glyph glyph-name="M" unicode="M" horiz-adv-x="863" 
d="M139 0h-76l111 704l256 -563l261 564l104 -705h-76l-63 464l-227 -492l-224 492z" />
    <glyph glyph-name="N" unicode="N" horiz-adv-x="766" 
d="M160 0h-74v695l520 -545v517h74v-697l-520 545v-515z" />
    <glyph glyph-name="O" unicode="O" horiz-adv-x="794" 
d="M397 -12q-146 0 -246.5 99t-100.5 246q0 148 101 246.5t246 98.5t246 -98.5t101 -246.5q0 -147 -100.5 -246t-246.5 -99zM397 608q-113 0 -192 -80t-79 -195t79 -195t192 -80q112 0 191.5 80.5t79.5 194.5t-79.5 194.5t-191.5 80.5z" />
    <glyph glyph-name="P" unicode="P" horiz-adv-x="456" 
d="M86 667h121q114 0 168 -47q61 -54 61 -143q0 -78 -52.5 -132.5t-158.5 -54.5h-65v-290h-74v667zM160 597v-237h61q66 0 103.5 32t37.5 89q0 116 -147 116h-55z" />
    <glyph glyph-name="Q" unicode="Q" horiz-adv-x="794" 
d="M652 -7l-54 56q-98 -61 -201 -61q-145 0 -246 99t-101 246q0 148 101 246.5t246 98.5t246 -98.5t101 -246.5q0 -145 -94 -239l98 -101h-96zM480 268l117 -120q71 80 71 185q0 114 -79.5 194.5t-191.5 80.5q-113 0 -192 -80t-79 -195t79 -195t192 -80q83 0 148 44
l-161 166h96z" />
    <glyph glyph-name="R" unicode="R" horiz-adv-x="502" 
d="M86 667h107q109 0 162 -37q73 -51 73 -148q0 -77 -46 -127.5t-122 -56.5l212 -298h-90l-203 292h-19v-292h-74v667zM160 597v-239h47q70 0 108.5 31.5t38.5 90.5q0 68 -53 98q-35 19 -96 19h-45z" />
    <glyph glyph-name="S" unicode="S" horiz-adv-x="518" 
d="M443 574l-59 -39q-14 30 -39 50q-27 23 -75 23q-51 0 -81.5 -28t-30.5 -75q0 -36 25 -58q20 -20 70 -42l64 -28q71 -31 103 -63q48 -48 48 -121q0 -92 -60 -148.5t-151 -56.5q-89 0 -145 54q-45 44 -62 118l72 20q7 -50 40 -85q37 -37 96 -37q65 0 99.5 38.5t34.5 93.5
q0 46 -33 78q-17 17 -80 46l-60 28q-58 26 -89 55q-46 44 -46 109q0 77 52.5 124.5t134.5 47.5q64 0 107 -30q42 -30 65 -74z" />
    <glyph glyph-name="T" unicode="T" horiz-adv-x="426" 
d="M412 597h-162v-597h-74v597h-162v70h398v-70z" />
    <glyph glyph-name="U" unicode="U" horiz-adv-x="646" 
d="M160 667v-409q0 -37 1.5 -58t14 -52t37.5 -52q45 -38 110 -38t110 38q25 21 37.5 52t14 52t1.5 58v409h74v-429q0 -100 -42 -160q-64 -90 -195 -90t-195 90q-42 60 -42 160v429h74z" />
    <glyph glyph-name="V" unicode="V" horiz-adv-x="556" 
d="M8 667h82l188 -509l188 509h82l-270 -707z" />
    <glyph glyph-name="W" unicode="W" horiz-adv-x="958" 
d="M8 667h82l176 -500l209 534l198 -534l195 500h82l-280 -702l-196 534l-210 -534z" />
    <glyph glyph-name="X" unicode="X" horiz-adv-x="504" 
d="M14 0l197 345l-179 322h84l138 -251l142 251h84l-183 -322l193 -345h-84l-153 274l-155 -274h-84z" />
    <glyph glyph-name="Y" unicode="Y" horiz-adv-x="530" 
d="M227 0v287l-219 380h86l170 -298l172 298h86l-221 -380v-287h-74z" />
    <glyph glyph-name="Z" unicode="Z" horiz-adv-x="536" 
d="M512 667l-364 -597h354v-70h-478l364 597h-317v70h441z" />
    <glyph glyph-name="bracketleft" unicode="[" horiz-adv-x="290" 
d="M248 663h-96v-767h96v-66h-168v899h168v-66z" />
    <glyph glyph-name="backslash" unicode="\" horiz-adv-x="597" 
d="M597 -170l-58 -28l-519 927l58 30z" />
    <glyph glyph-name="bracketright" unicode="]" horiz-adv-x="290" 
d="M42 -104h96v767h-96v66h168v-899h-168v66z" />
    <glyph glyph-name="asciicircum" unicode="^" 
d="M250 612l-146 -247h-78l177 302h94l177 -302h-78z" />
    <glyph glyph-name="underscore" unicode="_" 
d="M0 -132v64h500v-64h-500z" />
    <glyph glyph-name="grave" unicode="`" 
d="M249 497l-135 135l74 34l105 -145z" />
    <glyph glyph-name="a" unicode="a" horiz-adv-x="526" 
d="M386 356v59h72v-415h-72v58q-52 -70 -142 -70q-84 0 -143 58t-59 162q0 102 58.5 159.5t143.5 57.5q87 0 142 -69zM252 361q-57 0 -96.5 -40.5t-39.5 -112.5q0 -68 36.5 -112t99.5 -44q64 0 101 45t37 110q0 74 -42 114t-96 40z" />
    <glyph glyph-name="b" unicode="b" horiz-adv-x="526" 
d="M140 58v-58h-72v729h72v-372q53 68 142 68q93 0 147.5 -65.5t54.5 -154.5q0 -90 -54.5 -153.5t-144.5 -63.5q-91 0 -145 70zM275 52q61 0 98 44t37 109q0 72 -41 114t-95 42q-55 0 -96.5 -42t-41.5 -113q0 -65 38.5 -109.5t100.5 -44.5z" />
    <glyph glyph-name="c" unicode="c" horiz-adv-x="438" 
d="M393 385v-86q-50 62 -130 62q-61 0 -104 -41.5t-43 -113.5q0 -71 43.5 -112.5t102.5 -41.5q80 0 134 65v-86q-59 -43 -132 -43q-96 0 -159 62t-63 155q0 95 63 157.5t159 62.5q76 0 129 -40z" />
    <glyph glyph-name="d" unicode="d" horiz-adv-x="526" 
d="M386 356v373h72v-729h-72v58q-52 -70 -142 -70q-84 0 -143 58t-59 162q0 102 58.5 159.5t143.5 57.5q87 0 142 -69zM252 361q-57 0 -96.5 -40.5t-39.5 -112.5q0 -68 36.5 -112t99.5 -44q64 0 101 45t37 110q0 74 -42 114t-96 40z" />
    <glyph glyph-name="e" unicode="e" horiz-adv-x="481" 
d="M376 139l60 -33q-21 -40 -51 -67q-57 -51 -138 -51q-84 0 -144.5 54.5t-60.5 162.5q0 95 55 157.5t146 62.5q104 0 157 -76q44 -60 39 -156h-323q0 -62 38.5 -101.5t93.5 -39.5q49 0 85 30q28 24 43 57zM121 253h244q-9 49 -42.5 78.5t-79.5 29.5t-80 -30.5t-42 -77.5z
" />
    <glyph glyph-name="f" unicode="f" horiz-adv-x="240" 
d="M244 349h-102v-349h-72v349h-40v66h40v181q0 82 40 117q31 27 83 27q27 0 51 -9v-70q-23 9 -47 9q-33 0 -46 -22q-9 -15 -9 -60v-173h102v-66z" />
    <glyph glyph-name="g" unicode="g" horiz-adv-x="526" 
d="M386 356v59h72v-405q0 -109 -40 -163q-56 -77 -166 -77q-92 0 -148 56q-54 54 -54 134h71q0 -52 32 -86q38 -40 100 -40q76 0 110 58q23 38 23 106v60q-52 -70 -142 -70q-86 0 -142 56q-60 60 -60 164q0 101 60 161q56 56 142 56q89 0 142 -69zM252 361q-55 0 -94 -39
q-42 -43 -42 -114q0 -79 47 -122q37 -34 89 -34q56 0 91 35q47 45 47 120q0 76 -44 117q-37 37 -94 37z" />
    <glyph glyph-name="h" unicode="h" horiz-adv-x="470" 
d="M68 0v729h72v-362q48 58 119 58q80 0 119 -57q24 -35 24 -111v-257h-72v255q0 50 -19 76q-24 30 -68 30q-46 0 -73 -32q-30 -35 -30 -112v-217h-72z" />
    <glyph glyph-name="i" unicode="i" horiz-adv-x="208" 
d="M68 415h72v-415h-72v415zM53 572q0 21 15 36t36 15t36 -15t15 -36t-15 -36t-36 -15t-36 15t-15 36z" />
    <glyph glyph-name="j" unicode="j" horiz-adv-x="208" 
d="M68 415h72v-645h-72v645zM53 572q0 21 15 36t36 15t36 -15t15 -36t-15 -36t-36 -15t-36 15t-15 36z" />
    <glyph glyph-name="k" unicode="k" horiz-adv-x="422" 
d="M68 729h72v-468l152 154h94l-178 -178l210 -237h-94l-166 189l-18 -18v-171h-72v729z" />
    <glyph glyph-name="l" unicode="l" horiz-adv-x="208" 
d="M68 729h72v-729h-72v729z" />
    <glyph glyph-name="m" unicode="m" horiz-adv-x="685" 
d="M68 0v415h72v-44q35 54 103 54q72 0 113 -67q41 67 125 67q135 0 135 -162v-263h-72v252q0 30 -3.5 50.5t-21 39.5t-49.5 19q-92 0 -92 -130v-231h-72v246q0 115 -75 115q-91 0 -91 -135v-226h-72z" />
    <glyph glyph-name="n" unicode="n" horiz-adv-x="470" 
d="M68 0v415h72v-48q48 58 119 58q80 0 119 -57q24 -35 24 -111v-257h-72v255q0 50 -19 76q-24 30 -68 30q-46 0 -73 -32q-30 -35 -30 -112v-217h-72z" />
    <glyph glyph-name="o" unicode="o" horiz-adv-x="524" 
d="M262 -12q-95 0 -157.5 62t-62.5 156t62.5 156.5t157.5 62.5t157.5 -62.5t62.5 -156.5t-62.5 -156t-157.5 -62zM262 361q-61 0 -103.5 -41.5t-42.5 -113.5t43 -113t103 -41t103 41.5t43 112.5q0 72 -42.5 113.5t-103.5 41.5z" />
    <glyph glyph-name="p" unicode="p" horiz-adv-x="526" 
d="M140 58v-288h-72v645h72v-58q53 68 142 68q93 0 147.5 -65.5t54.5 -154.5q0 -90 -54.5 -153.5t-144.5 -63.5q-91 0 -145 70zM275 52q61 0 98 44t37 109q0 72 -41 114t-95 42q-55 0 -96.5 -42t-41.5 -113q0 -65 38.5 -109.5t100.5 -44.5z" />
    <glyph glyph-name="q" unicode="q" horiz-adv-x="526" 
d="M386 356v59h72v-645h-72v288q-52 -70 -142 -70q-84 0 -143 58t-59 162q0 102 58.5 159.5t143.5 57.5q87 0 142 -69zM252 361q-57 0 -96.5 -40.5t-39.5 -112.5q0 -68 36.5 -112t99.5 -44q64 0 101 45t37 110q0 74 -42 114t-96 40z" />
    <glyph glyph-name="r" unicode="r" horiz-adv-x="296" 
d="M68 0v415h72v-45q40 55 94 55q28 0 64 -17l-34 -65q-20 14 -42 14q-39 0 -58 -26q-24 -32 -24 -112v-219h-72z" />
    <glyph glyph-name="s" unicode="s" horiz-adv-x="352" 
d="M298 350l-59 -31q-19 42 -58 42q-22 0 -36 -12t-14 -35q0 -21 13 -31.5t54 -27.5q79 -33 104 -64q22 -27 22 -67q0 -63 -40.5 -99.5t-102.5 -36.5q-12 0 -25.5 2.5t-38.5 11t-47 32.5t-34 60l62 26q25 -68 84 -68q33 0 50.5 20t17.5 46q0 14 -4.5 24.5t-15 18.5t-20 13
t-27.5 13q-81 36 -101 61q-19 24 -19 61q0 54 33.5 85t87.5 31q81 0 114 -75z" />
    <glyph glyph-name="t" unicode="t" horiz-adv-x="214" 
d="M214 349h-72v-349h-72v349h-44v66h44v150h72v-150h72v-66z" />
    <glyph glyph-name="u" unicode="u" horiz-adv-x="466" 
d="M140 415v-242q0 -62 20 -89q23 -32 73 -32t73 32q20 27 20 89v242h72v-250q0 -84 -38 -125q-49 -52 -127 -52t-127 52q-38 41 -38 125v250h72z" />
    <glyph glyph-name="v" unicode="v" horiz-adv-x="424" 
d="M8 415h80l124 -280l124 280h80l-204 -442z" />
    <glyph glyph-name="w" unicode="w" horiz-adv-x="682" 
d="M8 415h80l123 -282l130 314l129 -314l124 282h80l-206 -444l-128 310l-128 -310z" />
    <glyph glyph-name="x" unicode="x" horiz-adv-x="454" 
d="M8 0l177 222l-151 193h88l107 -141l109 141h88l-152 -194l172 -221h-88l-131 169l-131 -169h-88z" />
    <glyph glyph-name="y" unicode="y" horiz-adv-x="460" 
d="M67 -230l132 269l-191 376h82l147 -297l135 297h80l-305 -645h-80z" />
    <glyph glyph-name="z" unicode="z" horiz-adv-x="460" 
d="M452 415l-300 -349h288v-66h-432l300 349h-242v66h386z" />
    <glyph glyph-name="braceleft" unicode="{" horiz-adv-x="501" 
d="M275 581v-188q0 -49 -13 -71q-18 -28 -48 -42q30 -14 48 -42q13 -22 13 -71v-189q0 -50 19 -69q20 -18 62 -18h15v-61h-27q-65 0 -93 20q-48 32 -48 116v196q0 39 -13 61q-16 26 -44 28v58q28 2 44 28q13 22 13 61v195q0 84 48 116q28 20 93 20h27v-61h-15q-42 0 -62 -18
q-19 -19 -19 -69z" />
    <glyph glyph-name="bar" unicode="|" 
d="M214 -250v1000h72v-1000h-72z" />
    <glyph glyph-name="braceright" unicode="}" horiz-adv-x="501" 
d="M226 393v188q0 50 -19 69q-20 18 -62 18h-15v61h27q65 0 93 -20q48 -33 48 -116v-195q0 -39 13 -61q16 -26 44 -28v-58q-28 -2 -44 -28q-13 -22 -13 -61v-196q0 -83 -48 -116q-28 -20 -93 -20h-27v61h15q42 0 62 18q19 19 19 69v189q0 49 13 71q18 28 48 42
q-30 14 -48 42q-13 22 -13 71z" />
    <glyph glyph-name="asciitilde" unicode="~" 
d="M446 361l44 -26q-19 -44 -50 -73q-39 -39 -96 -39q-34 0 -108 34q-69 32 -95 32q-29 0 -52 -20q-20 -16 -35 -52l-44 26q21 48 48 78q34 38 87 38q40 0 113 -34q66 -32 95 -32q37 0 61 24q20 19 32 44z" />
    <glyph glyph-name="uni00A0" unicode="&#xa0;" horiz-adv-x="233" 
 />
    <glyph glyph-name="exclamdown" unicode="&#xa1;" horiz-adv-x="280" 
d="M104 302h72v-532h-72v532zM190 397q0 -20 -15 -35t-35 -15t-35 15t-15 35t15 35t35 15t35 -15t15 -35z" />
    <glyph glyph-name="cent" unicode="&#xa2;" horiz-adv-x="568" 
d="M344 655v-97q58 -8 105 -39v-86q-44 53 -105 61v-306q63 9 108 63v-86q-42 -33 -108 -42v-109h-60v111q-76 11 -127 61q-59 59 -59 153q0 96 62 158q49 49 124 59v99h60zM284 189v302q-40 -5 -69 -34q-43 -43 -43 -117q0 -71 44 -115q27 -27 68 -36z" />
    <glyph glyph-name="sterling" unicode="&#xa3;" horiz-adv-x="568" 
d="M498 458h-73v10q0 70 -36 106q-32 32 -85 32q-52 0 -83 -31q-37 -35 -37 -88q0 -15 2.5 -28.5t9 -30t11 -26t15.5 -31t15 -30.5l14 -28h126v-56h-101q11 -29 11 -61q0 -47 -29 -94l59 -22q54 -21 70 -21q30 0 53 22q21 21 31 47l61 -36q-18 -44 -49 -68q-41 -35 -89 -35
q-40 0 -86 18l-39 15q-51 19 -75 19q-30 0 -53 -18q-16 -12 -30 -36l-57 39q24 36 47 55q36 30 82 30q28 42 28 86q0 29 -13 60h-112v56h86l-20 37q-44 83 -44 139q0 81 53 134t144 53q83 0 133 -50q60 -58 60 -159v-9z" />
    <glyph glyph-name="currency" unicode="&#xa4;" horiz-adv-x="586" 
d="M53 636l95 -94q58 51 145 51t145 -51l95 94l40 -40l-95 -95q51 -58 51 -142t-51 -142l94 -94l-40 -40l-94 93q-58 -51 -145 -51t-145 51l-94 -93l-40 40l94 94q-51 58 -51 142t51 142l-95 95zM293 189q72 0 120 48t48 122t-48 122t-120 48t-120 -48t-48 -122t48 -122
t120 -48z" />
    <glyph glyph-name="yen" unicode="&#xa5;" horiz-adv-x="568" 
d="M518 384h-141l-51 -88h192v-56h-198v-240h-74v240h-195v56h189l-51 88h-138v56h106l-131 227h87l170 -298l172 298h87l-133 -227h109v-56z" />
    <glyph glyph-name="brokenbar" unicode="&#xa6;" 
d="M214 390v360h72v-360h-72zM214 -250v360h72v-360h-72z" />
    <glyph glyph-name="section" unicode="&#xa7;" horiz-adv-x="568" 
d="M464 540h-72v5q0 63 -33 94q-25 24 -65 24q-47 0 -75 -28q-29 -26 -29 -66q0 -36 26 -62q25 -25 87 -48q5 -2 20 -7.5l21.5 -8t19.5 -8.5t21.5 -11t19 -12t18.5 -15q44 -41 44 -111q0 -58 -28 -99q-17 -24 -39.5 -40.5t-33.5 -21.5q40 -19 64 -55q21 -32 21 -74
q0 -71 -46 -117q-49 -49 -129 -49q-82 0 -128 50q-16 17 -25.5 39.5t-12 38.5t-4.5 36t-2 21h72q0 -59 31 -92q27 -27 71 -27q45 0 71 26q28 26 28 71q0 37 -24 61q-17 17 -91 47q-35 13 -49.5 19.5t-35 19t-34.5 27.5q-42 44 -42 116q0 47 27 91q28 43 74 61q-33 19 -55 45
q-29 34 -29 81q0 76 51 123q48 45 124 45q70 0 118 -44q53 -48 53 -140v-5zM284 389q-47 0 -78 -31t-31 -78q0 -49 31 -78q31 -31 78 -31q49 0 78 31q31 31 31 78t-32 79q-30 30 -77 30z" />
    <glyph glyph-name="dieresis" unicode="&#xa8;" 
d="M113 550q0 20 15 35t35 15t35 -15t15 -35t-15 -35t-35 -15t-35 15t-15 35zM287 550q0 20 15 35t35 15t35 -15t15 -35t-15 -35t-35 -15t-35 15t-15 35z" />
    <glyph glyph-name="copyright" unicode="&#xa9;" horiz-adv-x="740" 
d="M25 333q0 143 101.5 244t243.5 101t243.5 -101t101.5 -244q0 -142 -102 -243t-243 -101t-243 101t-102 243zM659 333q0 120 -84.5 204.5t-204.5 84.5t-204.5 -84.5t-84.5 -204.5t84.5 -204t204.5 -84t204.5 84t84.5 204zM514 497v-80q-24 30 -58 44t-64 14
q-57 0 -97.5 -39.5t-40.5 -106.5q0 -68 41 -106t96 -38q73 0 126 61v-81q-55 -40 -124 -40q-90 0 -149 57t-59 146q0 88 60 147.5t148 59.5q69 0 121 -38z" />
    <glyph glyph-name="ordfeminine" unicode="&#xaa;" horiz-adv-x="373" 
d="M264 627v34h51v-266h-51v32q-14 -17 -35 -28q-24 -12 -54 -12q-59 0 -97 38t-38 102q0 66 39 105q35 35 98 35q27 0 51 -11q22 -10 36 -29zM179 623q-36 0 -62 -26q-27 -30 -27 -71q0 -42 28 -70q28 -25 62 -25q35 0 61 26t26 70q0 43 -27 71q-25 25 -61 25zM50 333h265
v-42h-265v42z" />
    <glyph glyph-name="guillemotleft" unicode="&#xab;" horiz-adv-x="430" 
d="M112 212l120 -146l-46 -36l-150 182l150 188l46 -37zM260 212l120 -146l-46 -36l-150 182l150 188l46 -37z" />
    <glyph glyph-name="logicalnot" unicode="&#xac;" 
d="M467 0h-70v203h-364v64h434v-267z" />
    <glyph glyph-name="uni00AD" unicode="&#xad;" horiz-adv-x="320" 
d="M50 176v74h220v-74h-220z" />
    <glyph glyph-name="registered" unicode="&#xae;" horiz-adv-x="740" 
d="M27 332q0 147 98 245t245 98t245 -98t98 -245t-98 -245t-245 -98t-245 98t-98 245zM657 332q0 123 -82 205t-205 82t-205 -82t-82 -205t82 -205t205 -82t205 82t82 205zM509 145h-68l-122 158v-158h-54v374h68q144 0 144 -107q0 -42 -27 -70.5t-70 -33.5zM319 471v-120
h22q82 0 82 59q0 28 -15.5 42.5t-30 16.5t-38.5 2h-20z" />
    <glyph glyph-name="overscore" unicode="&#xaf;" 
d="M99 513v60h302v-60h-302z" />
    <glyph glyph-name="degree" unicode="&#xb0;" horiz-adv-x="493" 
d="M108 531q0 59 39.5 98.5t98.5 39.5t98.5 -39.5t39.5 -98.5t-39.5 -98.5t-98.5 -39.5t-98.5 39.5t-39.5 98.5zM158 531q0 -43 27.5 -67.5t60.5 -24.5t60.5 24.5t27.5 67.5t-27.5 67.5t-60.5 24.5t-60.5 -24.5t-27.5 -67.5z" />
    <glyph glyph-name="plusminus" unicode="&#xb1;" 
d="M33 345v66h181v171h72v-171h181v-66h-181v-171h-72v171h-181zM33 67v66h434v-66h-434z" />
    <glyph glyph-name="twosuperior" unicode="&#xb2;" horiz-adv-x="350" 
d="M297 268h-265l146 169q28 33 46 58q22 32 22 61q0 30 -20.5 51t-55.5 21q-45 0 -65 -34q-12 -22 -12 -48h-50q3 54 30 87q35 41 96 41q57 0 93 -32.5t36 -86.5q0 -39 -32 -85q-16 -23 -55 -67l-77 -89h163v-46z" />
    <glyph glyph-name="threesuperior" unicode="&#xb3;" horiz-adv-x="350" 
d="M102 564h-50q2 37 19 64q28 46 97 46q61 0 88.5 -33.5t27.5 -73.5q0 -66 -52 -89q58 -22 58 -97q0 -51 -34.5 -85.5t-92.5 -34.5q-85 0 -115 69q-8 17 -10 47h50q1 -20 14 -40q22 -30 59 -30q35 0 56 21.5t21 54.5q0 48 -39 65q-17 9 -46 7v46q29 -2 46 8q33 17 33 57
q0 26 -15.5 44t-48.5 18q-36 0 -51 -21q-13 -16 -15 -43z" />
    <glyph glyph-name="acute" unicode="&#xb4;" 
d="M312 666l74 -34l-134 -135l-45 24z" />
    <glyph glyph-name="mu" unicode="&#xb5;" horiz-adv-x="523" 
d="M140 -230h-72v645h72v-207q0 -80 30 -118t88 -38q65 0 101 59q24 39 24 106v198h72v-415h-72v86q-16 -44 -48.5 -71t-78.5 -27q-22 0 -41 6.5t-31 15.5t-22 19.5t-14 19t-8 12.5v-291z" />
    <glyph glyph-name="mu" unicode="&#x3bc;" horiz-adv-x="523" 
d="M140 -230h-72v645h72v-207q0 -80 30 -118t88 -38q65 0 101 59q24 39 24 106v198h72v-415h-72v86q-16 -44 -48.5 -71t-78.5 -27q-22 0 -41 6.5t-31 15.5t-22 19.5t-14 19t-8 12.5v-291z" />
    <glyph glyph-name="paragraph" unicode="&#xb6;" horiz-adv-x="580" 
d="M282 -95h-62v409h-15q-39 0 -77 14t-61 37q-45 45 -45 120q0 86 56 135q56 47 164 47h268v-58h-60v-704h-62v704h-106v-704z" />
    <glyph glyph-name="middot" unicode="&#xb7;" horiz-adv-x="200" 
d="M36 340q0 26 19 45t45 19t45 -19t19 -45t-19 -45t-45 -19t-45 19t-19 45z" />
    <glyph glyph-name="cedilla" unicode="&#xb8;" 
d="M266 -52l66 -27l-101 -128l-49 24z" />
    <glyph glyph-name="onesuperior" unicode="&#xb9;" horiz-adv-x="350" 
d="M166 268v354h-78l24 46h106v-400h-52z" />
    <glyph glyph-name="ordmasculine" unicode="&#xba;" horiz-adv-x="374" 
d="M187 667q65 0 108 -43q38 -38 38 -97q0 -56 -37 -95q-43 -43 -109 -43q-65 0 -105 40q-41 39 -41 99q0 54 37 94q41 45 109 45zM52 333h271v-42h-271v42zM187 623q-43 0 -70 -27q-26 -26 -26 -69q0 -41 27 -68q26 -26 69 -26t71 28q25 25 25 67q0 44 -28 70
q-25 25 -68 25z" />
    <glyph glyph-name="guillemotright" unicode="&#xbb;" horiz-adv-x="430" 
d="M170 218l-120 146l46 36l150 -182l-150 -188l-46 37zM318 218l-120 146l46 36l150 -182l-150 -188l-46 37z" />
    <glyph glyph-name="onequarter" unicode="&#xbc;" horiz-adv-x="760" 
d="M166 268v354h-78l24 46h106v-400h-52zM187 10l388 670l38 -22l-388 -671zM679 422v-300h49v-46h-49v-76h-50v76h-205zM516 122h113v155z" />
    <glyph glyph-name="onehalf" unicode="&#xbd;" horiz-adv-x="760" 
d="M166 268v354h-78l24 46h106v-400h-52zM146 10l388 670l38 -22l-388 -671zM707 0h-265l146 169q28 33 46 58q22 32 22 61q0 30 -20.5 51t-55.5 21q-45 0 -65 -34q-12 -22 -12 -48h-50q3 54 30 87q35 41 96 41q57 0 93 -32.5t36 -86.5q0 -39 -32 -85q-16 -23 -55 -67
l-77 -89h163v-46z" />
    <glyph glyph-name="threequarters" unicode="&#xbe;" horiz-adv-x="760" 
d="M102 564h-50q2 37 19 64q28 46 97 46q61 0 88.5 -33.5t27.5 -73.5q0 -66 -52 -89q58 -22 58 -97q0 -51 -34.5 -85.5t-92.5 -34.5q-85 0 -115 69q-8 17 -10 47h50q1 -20 14 -40q22 -30 59 -30q35 0 56 21.5t21 54.5q0 48 -39 65q-17 9 -46 7v46q29 -2 46 8q33 17 33 57
q0 26 -15.5 44t-48.5 18q-36 0 -51 -21q-13 -16 -15 -43zM207 10l388 670l38 -22l-388 -671zM680 422v-300h49v-46h-49v-76h-50v76h-205zM517 122h113v155z" />
    <glyph glyph-name="questiondown" unicode="&#xbf;" horiz-adv-x="436" 
d="M147 147h-72q0 69 41 113q38 40 103 40q64 0 104 -40t40 -103q0 -86 -84 -124q-20 -9 -49.5 -17.5t-34.5 -10.5q-64 -23 -64 -88q0 -46 26 -70q21 -21 61 -21q41 0 63 21q26 23 26 67q0 22 -6 42h74q4 -17 4 -44q0 -66 -38 -108q-41 -46 -122 -46q-75 0 -118 43
q-44 44 -44 118q0 59 34 98q29 33 77 50q8 3 22.5 7.5l26.5 8.5t23 9q49 23 49 70q0 32 -20 52q-18 18 -49 18t-49 -18q-24 -24 -24 -67zM268 397q0 -20 -15 -35t-35 -15t-35 15t-15 35t15 35t35 15t35 -15t15 -35z" />
    <glyph glyph-name="Agrave" unicode="&#xc0;" horiz-adv-x="622" 
d="M532 0l-78 188h-284l-80 -188h-82l307 699l299 -699h-82zM199 258h226l-112 267zM321 720l-153 117l70 45l126 -130z" />
    <glyph glyph-name="Aacute" unicode="&#xc1;" horiz-adv-x="622" 
d="M532 0l-78 188h-284l-80 -188h-82l307 699l299 -699h-82zM199 258h226l-112 267zM393 882l70 -45l-153 -117l-43 32z" />
    <glyph glyph-name="Acircumflex" unicode="&#xc2;" horiz-adv-x="622" 
d="M532 0l-78 188h-284l-80 -188h-82l307 699l299 -699h-82zM199 258h226l-112 267zM314 797l-88 -76l-52 41l140 119l140 -119l-52 -41z" />
    <glyph glyph-name="Atilde" unicode="&#xc3;" horiz-adv-x="622" 
d="M532 0l-78 188h-284l-80 -188h-82l307 699l299 -699h-82zM199 258h226l-112 267zM423 842l43 -35q-9 -24 -26 -41q-30 -31 -70 -31q-21 0 -67 22q-42 20 -56 20q-17 0 -30 -13q-13 -15 -17 -31l-44 36q10 25 30 45q27 27 63 27q24 0 68 -21q36 -21 56 -21q18 0 32 14
q12 12 18 29z" />
    <glyph glyph-name="Adieresis" unicode="&#xc4;" horiz-adv-x="622" 
d="M532 0l-78 188h-284l-80 -188h-82l307 699l299 -699h-82zM199 258h226l-112 267zM168 784q0 21 15 36t36 15t36 -15t15 -36t-15 -36t-36 -15t-36 15t-15 36zM358 784q0 21 15 36t36 15t36 -15t15 -36t-15 -36t-36 -15t-36 15t-15 36z" />
    <glyph glyph-name="Aring" unicode="&#xc5;" horiz-adv-x="622" 
d="M532 0l-78 188h-284l-80 -188h-82l307 699l299 -699h-82zM199 258h226l-112 267zM227 818q0 36 26 62t62 26t62 -26t26 -62t-26 -62t-62 -26t-62 26t-26 62zM273 819q0 -17 12.5 -29.5t29.5 -12.5t29.5 12.5t12.5 29.5t-12.5 29.5t-29.5 12.5t-29.5 -12.5t-12.5 -29.5z
" />
    <glyph glyph-name="AE" unicode="&#xc6;" horiz-adv-x="900" 
d="M538 0l-79 187h-284l-79 -187h-82l297 667h293l29 -70h-269l83 -198h264l29 -70h-262l108 -259h271l29 -70h-270h-78zM207 257h223l-110 261z" />
    <glyph glyph-name="Ccedilla" unicode="&#xc7;" horiz-adv-x="646" 
d="M596 612v-92q-41 41 -87 62q-57 26 -115 26q-115 0 -191.5 -80.5t-76.5 -197.5q0 -126 83.5 -199t185.5 -73q67 0 124 31q41 20 77 56v-92q-92 -65 -201 -65q-148 0 -246.5 99t-98.5 244q0 150 99.5 248.5t249.5 98.5q110 0 197 -66zM364 -52l70 -30l-104 -128l-50 26z
" />
    <glyph glyph-name="Egrave" unicode="&#xc8;" horiz-adv-x="482" 
d="M432 667v-70h-272v-198h264v-70h-264v-259h272v-70h-346v667h346zM271 720l-153 117l70 45l126 -130z" />
    <glyph glyph-name="Eacute" unicode="&#xc9;" horiz-adv-x="482" 
d="M432 667v-70h-272v-198h264v-70h-264v-259h272v-70h-346v667h346zM332 882l70 -45l-153 -117l-43 32z" />
    <glyph glyph-name="Ecircumflex" unicode="&#xca;" horiz-adv-x="482" 
d="M432 667v-70h-272v-198h264v-70h-264v-259h272v-70h-346v667h346zM260 797l-88 -76l-52 41l140 119l140 -119l-52 -41z" />
    <glyph glyph-name="Edieresis" unicode="&#xcb;" horiz-adv-x="482" 
d="M432 667v-70h-272v-198h264v-70h-264v-259h272v-70h-346v667h346zM114 784q0 21 15 36t36 15t36 -15t15 -36t-15 -36t-36 -15t-36 15t-15 36zM304 784q0 21 15 36t36 15t36 -15t15 -36t-15 -36t-36 -15t-36 15t-15 36z" />
    <glyph glyph-name="Igrave" unicode="&#xcc;" horiz-adv-x="246" 
d="M86 667h74v-667h-74v667zM126 720l-153 117l70 45l126 -130z" />
    <glyph glyph-name="Iacute" unicode="&#xcd;" horiz-adv-x="246" 
d="M86 667h74v-667h-74v667zM214 882l70 -45l-153 -117l-43 32z" />
    <glyph glyph-name="Icircumflex" unicode="&#xce;" horiz-adv-x="246" 
d="M86 667h74v-667h-74v667zM124 797l-88 -76l-52 41l140 119l140 -119l-52 -41z" />
    <glyph glyph-name="Idieresis" unicode="&#xcf;" horiz-adv-x="246" 
d="M86 667h74v-667h-74v667zM15 784q0 21 12.5 36t32.5 15t32.5 -15t12.5 -36t-12.5 -36t-32.5 -15t-32.5 15t-12.5 36zM141 784q0 21 12.5 36t32.5 15t32.5 -15t12.5 -36t-12.5 -36t-32.5 -15t-32.5 15t-12.5 36z" />
    <glyph glyph-name="Eth" unicode="&#xd0;" horiz-adv-x="632" 
d="M86 0v336h-86v64h86v267h136q154 0 246 -78q114 -95 114 -256q0 -159 -117 -256q-47 -40 -102 -58.5t-142 -18.5h-135zM160 597v-197h136v-64h-136v-266h65q119 0 191 60q90 76 90 203q0 119 -77 191.5t-204 72.5h-65z" />
    <glyph glyph-name="Ntilde" unicode="&#xd1;" horiz-adv-x="766" 
d="M160 0h-74v695l520 -545v517h74v-697l-520 545v-515zM495 842l43 -35q-9 -24 -26 -41q-30 -31 -70 -31q-21 0 -67 22q-42 20 -56 20q-17 0 -30 -13q-13 -15 -17 -31l-44 36q10 25 30 45q27 27 63 27q24 0 68 -21q36 -21 56 -21q18 0 32 14q12 12 18 29z" />
    <glyph glyph-name="Ograve" unicode="&#xd2;" horiz-adv-x="794" 
d="M397 -12q-146 0 -246.5 99t-100.5 246q0 148 101 246.5t246 98.5t246 -98.5t101 -246.5q0 -147 -100.5 -246t-246.5 -99zM397 608q-113 0 -192 -80t-79 -195t79 -195t192 -80q112 0 191.5 80.5t79.5 194.5t-79.5 194.5t-191.5 80.5zM411 720l-153 117l70 45l126 -130z
" />
    <glyph glyph-name="Oacute" unicode="&#xd3;" horiz-adv-x="794" 
d="M397 -12q-146 0 -246.5 99t-100.5 246q0 148 101 246.5t246 98.5t246 -98.5t101 -246.5q0 -147 -100.5 -246t-246.5 -99zM397 608q-113 0 -192 -80t-79 -195t79 -195t192 -80q112 0 191.5 80.5t79.5 194.5t-79.5 194.5t-191.5 80.5zM462 882l70 -45l-153 -117l-43 32z
" />
    <glyph glyph-name="Ocircumflex" unicode="&#xd4;" horiz-adv-x="794" 
d="M397 -12q-146 0 -246.5 99t-100.5 246q0 148 101 246.5t246 98.5t246 -98.5t101 -246.5q0 -147 -100.5 -246t-246.5 -99zM397 608q-113 0 -192 -80t-79 -195t79 -195t192 -80q112 0 191.5 80.5t79.5 194.5t-79.5 194.5t-191.5 80.5zM397 797l-88 -76l-52 41l140 119
l140 -119l-52 -41z" />
    <glyph glyph-name="Otilde" unicode="&#xd5;" horiz-adv-x="794" 
d="M397 -12q-146 0 -246.5 99t-100.5 246q0 148 101 246.5t246 98.5t246 -98.5t101 -246.5q0 -147 -100.5 -246t-246.5 -99zM397 608q-113 0 -192 -80t-79 -195t79 -195t192 -80q112 0 191.5 80.5t79.5 194.5t-79.5 194.5t-191.5 80.5zM509 842l43 -35q-9 -24 -26 -41
q-30 -31 -70 -31q-21 0 -67 22q-42 20 -56 20q-17 0 -30 -13q-13 -15 -17 -31l-44 36q10 25 30 45q27 27 63 27q24 0 68 -21q36 -21 56 -21q18 0 32 14q12 12 18 29z" />
    <glyph glyph-name="Odieresis" unicode="&#xd6;" horiz-adv-x="794" 
d="M397 -12q-146 0 -246.5 99t-100.5 246q0 148 101 246.5t246 98.5t246 -98.5t101 -246.5q0 -147 -100.5 -246t-246.5 -99zM397 608q-113 0 -192 -80t-79 -195t79 -195t192 -80q112 0 191.5 80.5t79.5 194.5t-79.5 194.5t-191.5 80.5zM251 784q0 21 15 36t36 15t36 -15
t15 -36t-15 -36t-36 -15t-36 15t-15 36zM441 784q0 21 15 36t36 15t36 -15t15 -36t-15 -36t-36 -15t-36 15t-15 36z" />
    <glyph glyph-name="multiply" unicode="&#xd7;" 
d="M60 190l143 143l-149 149l47 47l149 -149l149 149l47 -47l-149 -149l143 -143l-47 -47l-143 143l-143 -143z" />
    <glyph glyph-name="Oslash" unicode="&#xd8;" horiz-adv-x="794" 
d="M744 635l-79 -80q79 -97 79 -222q0 -147 -101 -246t-246 -99q-127 0 -223 78l-80 -79l-50 50l80 79q-74 94 -74 217q0 148 101 246.5t246 98.5q123 0 218 -73l79 80zM182 166l375 389q-69 53 -160 53q-113 0 -192 -80t-79 -195q0 -98 56 -167zM608 506l-377 -391
q75 -57 166 -57q112 0 191.5 80.5t79.5 194.5q0 98 -60 173z" />
    <glyph glyph-name="Ugrave" unicode="&#xd9;" horiz-adv-x="646" 
d="M160 667v-409q0 -37 1.5 -58t14 -52t37.5 -52q45 -38 110 -38t110 38q25 21 37.5 52t14 52t1.5 58v409h74v-429q0 -100 -42 -160q-64 -90 -195 -90t-195 90q-42 60 -42 160v429h74zM331 720l-153 117l70 45l126 -130z" />
    <glyph glyph-name="Uacute" unicode="&#xda;" horiz-adv-x="646" 
d="M160 667v-409q0 -37 1.5 -58t14 -52t37.5 -52q45 -38 110 -38t110 38q25 21 37.5 52t14 52t1.5 58v409h74v-429q0 -100 -42 -160q-64 -90 -195 -90t-195 90q-42 60 -42 160v429h74zM398 882l70 -45l-153 -117l-43 32z" />
    <glyph glyph-name="Ucircumflex" unicode="&#xdb;" horiz-adv-x="646" 
d="M160 667v-409q0 -37 1.5 -58t14 -52t37.5 -52q45 -38 110 -38t110 38q25 21 37.5 52t14 52t1.5 58v409h74v-429q0 -100 -42 -160q-64 -90 -195 -90t-195 90q-42 60 -42 160v429h74zM323 797l-88 -76l-52 41l140 119l140 -119l-52 -41z" />
    <glyph glyph-name="Udieresis" unicode="&#xdc;" horiz-adv-x="646" 
d="M160 667v-409q0 -37 1.5 -58t14 -52t37.5 -52q45 -38 110 -38t110 38q25 21 37.5 52t14 52t1.5 58v409h74v-429q0 -100 -42 -160q-64 -90 -195 -90t-195 90q-42 60 -42 160v429h74zM177 784q0 21 15 36t36 15t36 -15t15 -36t-15 -36t-36 -15t-36 15t-15 36zM367 784
q0 21 15 36t36 15t36 -15t15 -36t-15 -36t-36 -15t-36 15t-15 36z" />
    <glyph glyph-name="Yacute" unicode="&#xdd;" horiz-adv-x="530" 
d="M227 0v287l-219 380h86l170 -298l172 298h86l-221 -380v-287h-74zM347 882l70 -45l-153 -117l-43 32z" />
    <glyph glyph-name="Thorn" unicode="&#xde;" horiz-adv-x="456" 
d="M86 667h74v-100h47q114 0 168 -47q61 -54 61 -143q0 -78 -52.5 -132.5t-158.5 -54.5h-65v-190h-74v667zM160 497v-237h61q66 0 103.5 32t37.5 89q0 116 -147 116h-55z" />
    <glyph glyph-name="germandbls" unicode="&#xdf;" horiz-adv-x="532" 
d="M148 0h-72v349h-70v66h70v134q0 95 49 144q46 48 126 48q79 0 128 -50q45 -47 45 -118q0 -56 -22 -90q-23 -35 -55 -50q55 -19 88 -55q55 -55 55 -144q0 -100 -66 -166q-28 -30 -77 -54t-110 -26v70q83 6 133 59q44 46 44 113q0 71 -48 117q-49 47 -129 49v64q54 0 88 34
q25 26 25 74q0 60 -30 86q-25 23 -69 23q-51 0 -80 -38q-23 -31 -23 -118v-521z" />
    <glyph glyph-name="agrave" unicode="&#xe0;" horiz-adv-x="526" 
d="M386 356v59h72v-415h-72v58q-52 -70 -142 -70q-84 0 -143 58t-59 162q0 102 58.5 159.5t143.5 57.5q87 0 142 -69zM252 361q-57 0 -96.5 -40.5t-39.5 -112.5q0 -68 36.5 -112t99.5 -44q64 0 101 45t37 110q0 74 -42 114t-96 40zM249 497l-135 135l74 34l105 -145z" />
    <glyph glyph-name="aacute" unicode="&#xe1;" horiz-adv-x="526" 
d="M386 356v59h72v-415h-72v58q-52 -70 -142 -70q-84 0 -143 58t-59 162q0 102 58.5 159.5t143.5 57.5q87 0 142 -69zM252 361q-57 0 -96.5 -40.5t-39.5 -112.5q0 -68 36.5 -112t99.5 -44q64 0 101 45t37 110q0 74 -42 114t-96 40zM312 666l74 -34l-134 -135l-45 24z" />
    <glyph glyph-name="acircumflex" unicode="&#xe2;" horiz-adv-x="526" 
d="M386 356v59h72v-415h-72v58q-52 -70 -142 -70q-84 0 -143 58t-59 162q0 102 58.5 159.5t143.5 57.5q87 0 142 -69zM252 361q-57 0 -96.5 -40.5t-39.5 -112.5q0 -68 36.5 -112t99.5 -44q64 0 101 45t37 110q0 74 -42 114t-96 40zM256 578l-92 -81l-46 36l138 121l138 -121
l-46 -36z" />
    <glyph glyph-name="atilde" unicode="&#xe3;" horiz-adv-x="526" 
d="M386 356v59h72v-415h-72v58q-52 -70 -142 -70q-84 0 -143 58t-59 162q0 102 58.5 159.5t143.5 57.5q87 0 142 -69zM252 361q-57 0 -96.5 -40.5t-39.5 -112.5q0 -68 36.5 -112t99.5 -44q64 0 101 45t37 110q0 74 -42 114t-96 40zM164 497l-42 34q16 27 34 45q24 24 57 24
q28 0 70 -20q38 -20 56 -20q19 0 29 12q13 15 21 31l41 -34q-7 -20 -26 -39q-29 -30 -66 -30q-25 0 -69 21q-41 19 -55 19q-15 0 -29 -14q-11 -11 -21 -29z" />
    <glyph glyph-name="adieresis" unicode="&#xe4;" horiz-adv-x="526" 
d="M386 356v59h72v-415h-72v58q-52 -70 -142 -70q-84 0 -143 58t-59 162q0 102 58.5 159.5t143.5 57.5q87 0 142 -69zM252 361q-57 0 -96.5 -40.5t-39.5 -112.5q0 -68 36.5 -112t99.5 -44q64 0 101 45t37 110q0 74 -42 114t-96 40zM130 550q0 20 15 35t35 15t35 -15t15 -35
t-15 -35t-35 -15t-35 15t-15 35zM304 550q0 20 15 35t35 15t35 -15t15 -35t-15 -35t-35 -15t-35 15t-15 35z" />
    <glyph glyph-name="aring" unicode="&#xe5;" horiz-adv-x="526" 
d="M386 356v59h72v-415h-72v58q-52 -70 -142 -70q-84 0 -143 58t-59 162q0 102 58.5 159.5t143.5 57.5q87 0 142 -69zM252 361q-57 0 -96.5 -40.5t-39.5 -112.5q0 -68 36.5 -112t99.5 -44q64 0 101 45t37 110q0 74 -42 114t-96 40zM182 583q0 35 25.5 60.5t60.5 25.5
t60.5 -25.5t25.5 -60.5t-25.5 -60.5t-60.5 -25.5t-60.5 25.5t-25.5 60.5zM226 583q0 -17 12.5 -29.5t29.5 -12.5t29.5 12.5t12.5 29.5t-12.5 29.5t-29.5 12.5t-29.5 -12.5t-12.5 -29.5z" />
    <glyph glyph-name="ae" unicode="&#xe6;" horiz-adv-x="774" 
d="M667 140l60 -36q-63 -116 -187 -116q-106 0 -163 83q-48 -83 -156 -83q-77 0 -128 35t-51 100t49 101t124 36q70 0 119 -35q2 52 -19 88q-28 48 -99 48q-50 0 -128 -26v68q65 22 129 22q114 0 157 -84q52 84 160 84q91 0 144.5 -61.5t53.5 -163.5v-7h-324
q2 -62 39.5 -101.5t91.5 -39.5q42 0 75.5 24.5t52.5 63.5zM413 253h245q-7 50 -41 79t-82 29q-46 0 -80 -29t-42 -79zM221 196q-52 0 -79.5 -20.5t-27.5 -52.5q0 -28 24 -49.5t81 -21.5t84 22.5t27 51.5q0 26 -27 48t-82 22z" />
    <glyph glyph-name="ccedilla" unicode="&#xe7;" horiz-adv-x="438" 
d="M393 385v-86q-50 62 -130 62q-61 0 -104 -41.5t-43 -113.5q0 -71 43.5 -112.5t102.5 -41.5q80 0 134 65v-86q-59 -43 -132 -43q-96 0 -159 62t-63 155q0 95 63 157.5t159 62.5q76 0 129 -40zM247 -52l66 -27l-101 -128l-49 24z" />
    <glyph glyph-name="egrave" unicode="&#xe8;" horiz-adv-x="481" 
d="M376 139l60 -33q-21 -40 -51 -67q-57 -51 -138 -51q-84 0 -144.5 54.5t-60.5 162.5q0 95 55 157.5t146 62.5q104 0 157 -76q44 -60 39 -156h-323q0 -62 38.5 -101.5t93.5 -39.5q49 0 85 30q28 24 43 57zM121 253h244q-9 49 -42.5 78.5t-79.5 29.5t-80 -30.5t-42 -77.5z
M249 497l-135 135l74 34l105 -145z" />
    <glyph glyph-name="eacute" unicode="&#xe9;" horiz-adv-x="481" 
d="M376 139l60 -33q-21 -40 -51 -67q-57 -51 -138 -51q-84 0 -144.5 54.5t-60.5 162.5q0 95 55 157.5t146 62.5q104 0 157 -76q44 -60 39 -156h-323q0 -62 38.5 -101.5t93.5 -39.5q49 0 85 30q28 24 43 57zM121 253h244q-9 49 -42.5 78.5t-79.5 29.5t-80 -30.5t-42 -77.5z
M293 666l74 -34l-134 -135l-45 24z" />
    <glyph glyph-name="ecircumflex" unicode="&#xea;" horiz-adv-x="481" 
d="M376 139l60 -33q-21 -40 -51 -67q-57 -51 -138 -51q-84 0 -144.5 54.5t-60.5 162.5q0 95 55 157.5t146 62.5q104 0 157 -76q44 -60 39 -156h-323q0 -62 38.5 -101.5t93.5 -39.5q49 0 85 30q28 24 43 57zM121 253h244q-9 49 -42.5 78.5t-79.5 29.5t-80 -30.5t-42 -77.5z
M243 578l-92 -81l-46 36l138 121l138 -121l-46 -36z" />
    <glyph glyph-name="edieresis" unicode="&#xeb;" horiz-adv-x="481" 
d="M376 139l60 -33q-21 -40 -51 -67q-57 -51 -138 -51q-84 0 -144.5 54.5t-60.5 162.5q0 95 55 157.5t146 62.5q104 0 157 -76q44 -60 39 -156h-323q0 -62 38.5 -101.5t93.5 -39.5q49 0 85 30q28 24 43 57zM121 253h244q-9 49 -42.5 78.5t-79.5 29.5t-80 -30.5t-42 -77.5z
M106 550q0 20 15 35t35 15t35 -15t15 -35t-15 -35t-35 -15t-35 15t-15 35zM280 550q0 20 15 35t35 15t35 -15t15 -35t-15 -35t-35 -15t-35 15t-15 35z" />
    <glyph glyph-name="igrave" unicode="&#xec;" horiz-adv-x="208" 
d="M68 415h72v-415h-72v415zM109 493l-123 147l77 27l91 -153z" />
    <glyph glyph-name="iacute" unicode="&#xed;" horiz-adv-x="208" 
d="M68 415h72v-415h-72v415zM145 667l77 -27l-123 -147l-47 21z" />
    <glyph glyph-name="icircumflex" unicode="&#xee;" horiz-adv-x="208" 
d="M68 415h72v-415h-72v415zM104 572l-75 -67l-43 35l118 106l118 -106l-43 -35z" />
    <glyph glyph-name="idieresis" unicode="&#xef;" horiz-adv-x="208" 
d="M68 415h72v-415h-72v415zM-32 550q0 20 15 35t35 15t35 -15t15 -35t-15 -35t-35 -15t-35 15t-15 35zM142 550q0 20 15 35t35 15t35 -15t15 -35t-15 -35t-35 -15t-35 15t-15 35z" />
    <glyph glyph-name="eth" unicode="&#xf0;" horiz-adv-x="524" 
d="M83 612l17 61q114 -9 211 -71l129 42l18 -54l-95 -31q47 -41 74 -97q45 -86 45 -210q0 -96 -35 -158q-61 -106 -185 -106q-95 0 -159 64q-61 61 -61 160q0 102 65 167q58 58 149 58q77 0 135 -49q-10 40 -37 79q-24 35 -64 68l-179 -59l-18 54l134 44q-62 29 -144 38z
M408 218q0 76 -48 120q-38 35 -95 35q-59 0 -101 -40q-48 -45 -48 -123q0 -72 46 -117q42 -41 100 -41t97 39q49 48 49 127z" />
    <glyph glyph-name="ntilde" unicode="&#xf1;" horiz-adv-x="470" 
d="M68 0v415h72v-48q48 58 119 58q80 0 119 -57q24 -35 24 -111v-257h-72v255q0 50 -19 76q-24 30 -68 30q-46 0 -73 -32q-30 -35 -30 -112v-217h-72zM119 497l-42 34q16 27 34 45q24 24 57 24q28 0 70 -20q38 -20 56 -20q19 0 29 12q13 15 21 31l41 -34q-7 -20 -26 -39
q-29 -30 -66 -30q-25 0 -69 21q-41 19 -55 19q-15 0 -29 -14q-11 -11 -21 -29z" />
    <glyph glyph-name="ograve" unicode="&#xf2;" horiz-adv-x="524" 
d="M262 -12q-95 0 -157.5 62t-62.5 156t62.5 156.5t157.5 62.5t157.5 -62.5t62.5 -156.5t-62.5 -156t-157.5 -62zM262 361q-61 0 -103.5 -41.5t-42.5 -113.5t43 -113t103 -41t103 41.5t43 112.5q0 72 -42.5 113.5t-103.5 41.5zM261 497l-135 135l74 34l105 -145z" />
    <glyph glyph-name="oacute" unicode="&#xf3;" horiz-adv-x="524" 
d="M262 -12q-95 0 -157.5 62t-62.5 156t62.5 156.5t157.5 62.5t157.5 -62.5t62.5 -156.5t-62.5 -156t-157.5 -62zM262 361q-61 0 -103.5 -41.5t-42.5 -113.5t43 -113t103 -41t103 41.5t43 112.5q0 72 -42.5 113.5t-103.5 41.5zM324 666l74 -34l-134 -135l-45 24z" />
    <glyph glyph-name="ocircumflex" unicode="&#xf4;" horiz-adv-x="524" 
d="M262 -12q-95 0 -157.5 62t-62.5 156t62.5 156.5t157.5 62.5t157.5 -62.5t62.5 -156.5t-62.5 -156t-157.5 -62zM262 361q-61 0 -103.5 -41.5t-42.5 -113.5t43 -113t103 -41t103 41.5t43 112.5q0 72 -42.5 113.5t-103.5 41.5zM262 578l-92 -81l-46 36l138 121l138 -121
l-46 -36z" />
    <glyph glyph-name="otilde" unicode="&#xf5;" horiz-adv-x="524" 
d="M262 -12q-95 0 -157.5 62t-62.5 156t62.5 156.5t157.5 62.5t157.5 -62.5t62.5 -156.5t-62.5 -156t-157.5 -62zM262 361q-61 0 -103.5 -41.5t-42.5 -113.5t43 -113t103 -41t103 41.5t43 112.5q0 72 -42.5 113.5t-103.5 41.5zM150 497l-42 34q17 27 34 45q24 24 57 24
q28 0 70 -20q38 -20 56 -20q19 0 29 12q13 15 21 31l41 -34q-7 -20 -26 -39q-29 -30 -66 -30q-25 0 -69 21q-41 19 -55 19q-15 0 -29 -14q-11 -11 -21 -29z" />
    <glyph glyph-name="odieresis" unicode="&#xf6;" horiz-adv-x="524" 
d="M262 -12q-95 0 -157.5 62t-62.5 156t62.5 156.5t157.5 62.5t157.5 -62.5t62.5 -156.5t-62.5 -156t-157.5 -62zM262 361q-61 0 -103.5 -41.5t-42.5 -113.5t43 -113t103 -41t103 41.5t43 112.5q0 72 -42.5 113.5t-103.5 41.5zM125 550q0 20 15 35t35 15t35 -15t15 -35
t-15 -35t-35 -15t-35 15t-15 35zM299 550q0 20 15 35t35 15t35 -15t15 -35t-15 -35t-35 -15t-35 15t-15 35z" />
    <glyph glyph-name="divide" unicode="&#xf7;" 
d="M201 515q0 20 14.5 34.5t34.5 14.5t34.5 -14.5t14.5 -34.5t-14.5 -34.5t-34.5 -14.5t-34.5 14.5t-14.5 34.5zM201 151q0 20 14.5 34.5t34.5 14.5t34.5 -14.5t14.5 -34.5t-14.5 -34.5t-34.5 -14.5t-34.5 14.5t-14.5 34.5zM33 300v66h434v-66h-434z" />
    <glyph glyph-name="oslash" unicode="&#xf8;" horiz-adv-x="524" 
d="M497 400l-59 -59q44 -55 44 -135q0 -95 -62.5 -156.5t-157.5 -61.5q-77 0 -134 42l-61 -60l-46 45l61 60q-40 56 -40 131q0 95 62.5 157t157.5 62q77 0 130 -40l61 60zM135 124l207 214q-35 23 -80 23q-61 0 -103.5 -41.5t-42.5 -113.5q0 -42 19 -82zM386 292l-207 -214
q36 -26 83 -26q60 0 103 40.5t43 113.5q0 49 -22 86z" />
    <glyph glyph-name="ugrave" unicode="&#xf9;" horiz-adv-x="466" 
d="M140 415v-242q0 -62 20 -89q23 -32 73 -32t73 32q20 27 20 89v242h72v-250q0 -84 -38 -125q-49 -52 -127 -52t-127 52q-38 41 -38 125v250h72zM240 497l-135 135l74 34l105 -145z" />
    <glyph glyph-name="uacute" unicode="&#xfa;" horiz-adv-x="466" 
d="M140 415v-242q0 -62 20 -89q23 -32 73 -32t73 32q20 27 20 89v242h72v-250q0 -84 -38 -125q-49 -52 -127 -52t-127 52q-38 41 -38 125v250h72zM287 666l74 -34l-134 -135l-45 24z" />
    <glyph glyph-name="ucircumflex" unicode="&#xfb;" horiz-adv-x="466" 
d="M140 415v-242q0 -62 20 -89q23 -32 73 -32t73 32q20 27 20 89v242h72v-250q0 -84 -38 -125q-49 -52 -127 -52t-127 52q-38 41 -38 125v250h72zM234 578l-92 -81l-46 36l138 121l138 -121l-46 -36z" />
    <glyph glyph-name="udieresis" unicode="&#xfc;" horiz-adv-x="466" 
d="M140 415v-242q0 -62 20 -89q23 -32 73 -32t73 32q20 27 20 89v242h72v-250q0 -84 -38 -125q-49 -52 -127 -52t-127 52q-38 41 -38 125v250h72zM97 550q0 20 15 35t35 15t35 -15t15 -35t-15 -35t-35 -15t-35 15t-15 35zM271 550q0 20 15 35t35 15t35 -15t15 -35t-15 -35
t-35 -15t-35 15t-15 35z" />
    <glyph glyph-name="yacute" unicode="&#xfd;" horiz-adv-x="460" 
d="M67 -230l132 269l-191 376h82l147 -297l135 297h80l-305 -645h-80zM293 666l74 -34l-134 -135l-45 24z" />
    <glyph glyph-name="thorn" unicode="&#xfe;" horiz-adv-x="526" 
d="M140 58v-288h-72v959h72v-372q53 68 142 68q93 0 147.5 -65.5t54.5 -154.5q0 -90 -54.5 -153.5t-144.5 -63.5q-91 0 -145 70zM275 52q61 0 98 44t37 109q0 72 -41 114t-95 42q-55 0 -96.5 -42t-41.5 -113q0 -65 38.5 -109.5t100.5 -44.5z" />
    <glyph glyph-name="ydieresis" unicode="&#xff;" horiz-adv-x="460" 
d="M67 -230l132 269l-191 376h82l147 -297l135 297h80l-305 -645h-80zM104 550q0 20 15 35t35 15t35 -15t15 -35t-15 -35t-35 -15t-35 15t-15 35zM278 550q0 20 15 35t35 15t35 -15t15 -35t-15 -35t-35 -15t-35 15t-15 35z" />
    <glyph glyph-name="Amacron" unicode="&#x100;" horiz-adv-x="622" 
d="M532 0l-78 188h-284l-80 -188h-82l307 699l299 -699h-82zM199 258h226l-112 267zM155 733v64h320v-64h-320z" />
    <glyph glyph-name="amacron" unicode="&#x101;" horiz-adv-x="526" 
d="M386 356v59h72v-415h-72v58q-52 -70 -142 -70q-84 0 -143 58t-59 162q0 102 58.5 159.5t143.5 57.5q87 0 142 -69zM252 361q-57 0 -96.5 -40.5t-39.5 -112.5q0 -68 36.5 -112t99.5 -44q64 0 101 45t37 110q0 74 -42 114t-96 40zM113 513v60h302v-60h-302z" />
    <glyph glyph-name="Abreve" unicode="&#x102;" horiz-adv-x="622" 
d="M532 0l-78 188h-284l-80 -188h-82l307 699l299 -699h-82zM199 258h226l-112 267zM404 841h66q-8 -39 -31 -67q-46 -53 -124 -53t-124 53q-23 28 -31 67h66q8 -23 25 -36q25 -20 64 -20t64 20q17 13 25 36z" />
    <glyph glyph-name="abreve" unicode="&#x103;" horiz-adv-x="526" 
d="M386 356v59h72v-415h-72v58q-52 -70 -142 -70q-84 0 -143 58t-59 162q0 102 58.5 159.5t143.5 57.5q87 0 142 -69zM252 361q-57 0 -96.5 -40.5t-39.5 -112.5q0 -68 36.5 -112t99.5 -44q64 0 101 45t37 110q0 74 -42 114t-96 40zM123 617h61q6 -23 24 -39q24 -21 60 -21
t60 21q18 16 24 39h61q-2 -13 -7 -26t-8.5 -19.5t-8.5 -13.5l-5 -8q-41 -53 -116 -53q-77 0 -116 53l-5 8q-5 7 -8.5 13.5t-8.5 19.5t-7 26z" />
    <glyph glyph-name="Aogonek" unicode="&#x104;" horiz-adv-x="622" 
d="M315 699l299 -699h-20q-32 -21 -50 -41q-20 -27 -20 -48q0 -17 12 -29q14 -12 38 -12q27 0 50 13l-8 -59q-28 -14 -55 -14q-46 0 -78 29q-23 21 -23 57q0 32 23 63q17 23 49 41l-78 188h-284l-80 -188h-82zM199 258h226l-112 267z" />
    <glyph glyph-name="aogonek" unicode="&#x105;" horiz-adv-x="526" 
d="M386 356v59h72v-415h-14q-20 -12 -47 -39q-23 -28 -23 -51q0 -18 12 -29t40 -11q26 0 48 13l-8 -55q-25 -14 -56 -14q-46 0 -74 28q-22 22 -22 56q0 60 72 102v58q-25 -29 -56 -48q-36 -22 -86 -22q-86 0 -143 57q-59 59 -59 163q0 102 60 162q55 55 142 55q89 0 142 -69
zM252 361q-55 0 -95 -40q-41 -45 -41 -117q0 -73 44 -117q40 -35 94 -35t91 37q45 49 45 118t-39 112q-40 42 -99 42z" />
    <glyph glyph-name="Cacute" unicode="&#x106;" horiz-adv-x="646" 
d="M596 612v-92q-41 41 -87 62q-57 26 -115 26q-115 0 -191.5 -80.5t-76.5 -197.5q0 -126 83.5 -199t185.5 -73q67 0 124 31q41 20 77 56v-92q-92 -65 -201 -65q-148 0 -246.5 99t-98.5 244q0 150 99.5 248.5t249.5 98.5q110 0 197 -66zM452 882l70 -45l-153 -117l-43 32z
" />
    <glyph glyph-name="cacute" unicode="&#x107;" horiz-adv-x="438" 
d="M393 385v-86q-50 62 -130 62q-61 0 -104 -41.5t-43 -113.5q0 -71 43.5 -112.5t102.5 -41.5q80 0 134 65v-86q-59 -43 -132 -43q-96 0 -159 62t-63 155q0 95 63 157.5t159 62.5q76 0 129 -40zM293 666l74 -34l-134 -135l-45 24z" />
    <glyph glyph-name="Ccircumflex" unicode="&#x108;" horiz-adv-x="646" 
d="M596 612v-92q-41 41 -87 62q-57 26 -115 26q-115 0 -191.5 -80.5t-76.5 -197.5q0 -126 83.5 -199t185.5 -73q67 0 124 31q41 20 77 56v-92q-92 -65 -201 -65q-148 0 -246.5 99t-98.5 244q0 150 99.5 248.5t249.5 98.5q110 0 197 -66zM400 797l-88 -76l-52 41l140 119
l140 -119l-52 -41z" />
    <glyph glyph-name="ccircumflex" unicode="&#x109;" horiz-adv-x="438" 
d="M393 385v-86q-50 62 -130 62q-61 0 -104 -41.5t-43 -113.5q0 -71 43.5 -112.5t102.5 -41.5q80 0 134 65v-86q-59 -43 -132 -43q-96 0 -159 62t-63 155q0 95 63 157.5t159 62.5q76 0 129 -40zM260 578l-92 -81l-46 36l138 121l138 -121l-46 -36z" />
    <glyph glyph-name="Cdotaccent" unicode="&#x10a;" horiz-adv-x="646" 
d="M596 612v-92q-41 41 -87 62q-57 26 -115 26q-115 0 -191.5 -80.5t-76.5 -197.5q0 -126 83.5 -199t185.5 -73q67 0 124 31q41 20 77 56v-92q-92 -65 -201 -65q-148 0 -246.5 99t-98.5 244q0 150 99.5 248.5t249.5 98.5q110 0 197 -66zM338 784q0 24 15.5 39.5t39.5 15.5
t39.5 -15.5t15.5 -39.5t-15.5 -39.5t-39.5 -15.5t-39.5 15.5t-15.5 39.5z" />
    <glyph glyph-name="cdotaccent" unicode="&#x10b;" horiz-adv-x="438" 
d="M393 385v-86q-50 62 -130 62q-61 0 -104 -41.5t-43 -113.5q0 -71 43.5 -112.5t102.5 -41.5q80 0 134 65v-86q-59 -43 -132 -43q-96 0 -159 62t-63 155q0 95 63 157.5t159 62.5q76 0 129 -40zM211 553q0 23 15 38t38 15t38 -15t15 -38t-15 -38t-38 -15t-38 15t-15 38z" />
    <glyph glyph-name="Ccaron" unicode="&#x10c;" horiz-adv-x="646" 
d="M596 612v-92q-41 41 -87 62q-57 26 -115 26q-115 0 -191.5 -80.5t-76.5 -197.5q0 -126 83.5 -199t185.5 -73q67 0 124 31q41 20 77 56v-92q-92 -65 -201 -65q-148 0 -246.5 99t-98.5 244q0 150 99.5 248.5t249.5 98.5q110 0 197 -66zM400 805l88 76l52 -41l-140 -119
l-140 119l52 41z" />
    <glyph glyph-name="ccaron" unicode="&#x10d;" horiz-adv-x="438" 
d="M393 385v-86q-50 62 -130 62q-61 0 -104 -41.5t-43 -113.5q0 -71 43.5 -112.5t102.5 -41.5q80 0 134 65v-86q-59 -43 -132 -43q-96 0 -159 62t-63 155q0 95 63 157.5t159 62.5q76 0 129 -40zM260 573l92 81l46 -36l-138 -121l-138 121l46 36z" />
    <glyph glyph-name="Dcaron" unicode="&#x10e;" horiz-adv-x="632" 
d="M86 0v667h136q154 0 246 -78q114 -95 114 -256q0 -159 -117 -256q-47 -40 -102 -58.5t-142 -18.5h-135zM160 597v-527h65q119 0 191 60q90 76 90 203q0 119 -77 191.5t-204 72.5h-65zM280 805l88 76l52 -41l-140 -119l-140 119l52 41z" />
    <glyph glyph-name="dcaron" unicode="&#x10f;" horiz-adv-x="596" 
d="M386 356v373h72v-729h-72v58q-52 -70 -142 -70q-84 0 -143 58t-59 162q0 102 58.5 159.5t143.5 57.5q87 0 142 -69zM252 361q-57 0 -96.5 -40.5t-39.5 -112.5q0 -68 36.5 -112t99.5 -44q64 0 101 45t37 110q0 74 -42 114t-96 40zM500 530l52 160l64 -24l-70 -156z" />
    <glyph glyph-name="Dcroat" unicode="&#x110;" horiz-adv-x="632" 
d="M86 0v336h-86v64h86v267h136q154 0 246 -78q114 -95 114 -256q0 -159 -117 -256q-47 -40 -102 -58.5t-142 -18.5h-135zM160 597v-197h136v-64h-136v-266h65q119 0 191 60q90 76 90 203q0 119 -77 191.5t-204 72.5h-65z" />
    <glyph glyph-name="dslash" unicode="&#x111;" horiz-adv-x="526" 
d="M386 356v198h-200v60h200v115h72v-115h68v-60h-68v-554h-72v58q-52 -70 -142 -70q-84 0 -143 58t-59 162q0 102 58.5 159.5t143.5 57.5q87 0 142 -69zM252 361q-57 0 -96.5 -40.5t-39.5 -112.5q0 -68 36.5 -112t99.5 -44t100.5 45t37.5 110q0 76 -40.5 115t-97.5 39z" />
    <glyph glyph-name="Emacron" unicode="&#x112;" horiz-adv-x="482" 
d="M432 667v-70h-272v-198h264v-70h-264v-259h272v-70h-346v667h346zM100 733v64h320v-64h-320z" />
    <glyph glyph-name="emacron" unicode="&#x113;" horiz-adv-x="481" 
d="M376 139l60 -33q-21 -40 -51 -67q-57 -51 -138 -51q-84 0 -144.5 54.5t-60.5 162.5q0 95 55 157.5t146 62.5q104 0 157 -76q44 -60 39 -156h-323q0 -62 38.5 -101.5t93.5 -39.5q49 0 85 30q28 24 43 57zM121 253h244q-9 49 -42.5 78.5t-79.5 29.5t-80 -30.5t-42 -77.5z
M92 513v60h302v-60h-302z" />
    <glyph glyph-name="Edotaccent" unicode="&#x116;" horiz-adv-x="482" 
d="M432 667v-70h-272v-198h264v-70h-264v-259h272v-70h-346v667h346zM205 784q0 24 15.5 39.5t39.5 15.5t39.5 -15.5t15.5 -39.5t-15.5 -39.5t-39.5 -15.5t-39.5 15.5t-15.5 39.5z" />
    <glyph glyph-name="edotaccent" unicode="&#x117;" horiz-adv-x="481" 
d="M376 139l60 -33q-21 -40 -51 -67q-57 -51 -138 -51q-84 0 -144.5 54.5t-60.5 162.5q0 95 55 157.5t146 62.5q104 0 157 -76q44 -60 39 -156h-323q0 -62 38.5 -101.5t93.5 -39.5q49 0 85 30q28 24 43 57zM121 253h244q-9 49 -42.5 78.5t-79.5 29.5t-80 -30.5t-42 -77.5z
M190 553q0 23 15 38t38 15t38 -15t15 -38t-15 -38t-38 -15t-38 15t-15 38z" />
    <glyph glyph-name="Eogonek" unicode="&#x118;" horiz-adv-x="482" 
d="M432 667v-70h-272v-198h264v-70h-264v-259h272v-70h-40q-32 -21 -50 -41q-20 -27 -20 -48q0 -17 12 -29q14 -12 38 -12q27 0 50 13l-8 -59q-28 -14 -55 -14q-46 0 -78 29q-23 21 -23 57q0 34 23 63q12 16 45 41h-240v667h346z" />
    <glyph glyph-name="eogonek" unicode="&#x119;" horiz-adv-x="482" 
d="M377 139l60 -33q-16 -35 -51 -66q-11 -10 -20 -16.5t-22.5 -14t-19.5 -11.5q-31 -18 -51 -38q-23 -24 -23 -50q0 -16 11 -27q13 -13 41 -13q23 0 48 13l-8 -55q-25 -14 -56 -14q-46 0 -73 27q-23 21 -23 57q0 29 18 54q11 15 35 36q-83 0 -140 55q-61 59 -61 162
q0 104 62 166q54 54 140 54q87 0 139 -54q57 -57 57 -178h-324q2 -63 40 -104q37 -37 93 -37q47 0 85 30q21 16 43 57zM122 253h244q-9 45 -38 74q-37 34 -84 34q-52 0 -85 -35q-28 -30 -37 -73z" />
    <glyph glyph-name="Ecaron" unicode="&#x11a;" horiz-adv-x="482" 
d="M432 667v-70h-272v-198h264v-70h-264v-259h272v-70h-346v667h346zM260 805l88 76l52 -41l-140 -119l-140 119l52 41z" />
    <glyph glyph-name="ecaron" unicode="&#x11b;" horiz-adv-x="481" 
d="M376 139l60 -33q-21 -40 -51 -67q-57 -51 -138 -51q-84 0 -144.5 54.5t-60.5 162.5q0 95 55 157.5t146 62.5q104 0 157 -76q44 -60 39 -156h-323q0 -62 38.5 -101.5t93.5 -39.5q49 0 85 30q28 24 43 57zM121 253h244q-9 49 -42.5 78.5t-79.5 29.5t-80 -30.5t-42 -77.5z
M243 573l92 81l46 -36l-138 -121l-138 121l46 36z" />
    <glyph glyph-name="Gcircumflex" unicode="&#x11c;" horiz-adv-x="758" 
d="M430 265v70h278v-16q0 -126 -64 -211q-97 -120 -248 -120q-148 0 -247 99t-99 246t99.5 246t248.5 99q120 0 204 -66q45 -33 77 -79l-55 -50q-28 41 -63 69q-66 56 -162 56q-119 0 -196 -79t-77 -197q0 -86 42 -150.5t102.5 -94t126.5 -29.5t120 30t84 82q23 41 27 95
h-198zM396 797l-88 -76l-52 41l140 119l140 -119l-52 -41z" />
    <glyph glyph-name="gcircumflex" unicode="&#x11d;" horiz-adv-x="526" 
d="M386 356v59h72v-405q0 -109 -40 -163q-56 -77 -166 -77q-92 0 -148 56q-54 54 -54 134h71q0 -52 32 -86q38 -40 100 -40q76 0 110 58q23 38 23 106v60q-52 -70 -142 -70q-86 0 -142 56q-60 60 -60 164q0 101 60 161q56 56 142 56q89 0 142 -69zM252 361q-55 0 -94 -39
q-42 -43 -42 -114q0 -79 47 -122q37 -34 89 -34q56 0 91 35q47 45 47 120q0 76 -44 117q-37 37 -94 37zM263 578l-92 -81l-46 36l138 121l138 -121l-46 -36z" />
    <glyph glyph-name="Gbreve" unicode="&#x11e;" horiz-adv-x="758" 
d="M430 265v70h278v-16q0 -126 -64 -211q-97 -120 -248 -120q-148 0 -247 99t-99 246t99.5 246t248.5 99q120 0 204 -66q45 -33 77 -79l-55 -50q-28 41 -63 69q-66 56 -162 56q-119 0 -196 -79t-77 -197q0 -86 42 -150.5t102.5 -94t126.5 -29.5t120 30t84 82q23 41 27 95
h-198zM485 841h66q-8 -39 -31 -67q-46 -53 -124 -53t-124 53q-23 28 -31 67h66q8 -23 25 -36q25 -20 64 -20t64 20q17 13 25 36z" />
    <glyph glyph-name="gbreve" unicode="&#x11f;" horiz-adv-x="526" 
d="M386 356v59h72v-405q0 -109 -40 -163q-56 -77 -166 -77q-92 0 -148 56q-54 54 -54 134h71q0 -52 32 -86q38 -40 100 -40q76 0 110 58q23 38 23 106v60q-52 -70 -142 -70q-86 0 -142 56q-60 60 -60 164q0 101 60 161q56 56 142 56q89 0 142 -69zM252 361q-55 0 -94 -39
q-42 -43 -42 -114q0 -79 47 -122q37 -34 89 -34q56 0 91 35q47 45 47 120q0 76 -44 117q-37 37 -94 37zM118 617h61q6 -23 24 -39q24 -21 60 -21t60 21q18 16 24 39h61q-2 -13 -7 -26t-8.5 -19.5t-8.5 -13.5l-5 -8q-41 -53 -116 -53q-77 0 -116 53l-5 8q-5 7 -8.5 13.5
t-8.5 19.5t-7 26z" />
    <glyph glyph-name="Gdotaccent" unicode="&#x120;" horiz-adv-x="758" 
d="M430 265v70h278v-16q0 -126 -64 -211q-97 -120 -248 -120q-148 0 -247 99t-99 246t99.5 246t248.5 99q120 0 204 -66q45 -33 77 -79l-55 -50q-28 41 -63 69q-66 56 -162 56q-119 0 -196 -79t-77 -197q0 -86 42 -150.5t102.5 -94t126.5 -29.5t120 30t84 82q23 41 27 95
h-198zM344 784q0 24 15.5 39.5t39.5 15.5t39.5 -15.5t15.5 -39.5t-15.5 -39.5t-39.5 -15.5t-39.5 15.5t-15.5 39.5z" />
    <glyph glyph-name="gdotaccent" unicode="&#x121;" horiz-adv-x="526" 
d="M386 356v59h72v-405q0 -109 -40 -163q-56 -77 -166 -77q-92 0 -148 56q-54 54 -54 134h71q0 -52 32 -86q38 -40 100 -40q76 0 110 58q23 38 23 106v60q-52 -70 -142 -70q-86 0 -142 56q-60 60 -60 164q0 101 60 161q56 56 142 56q89 0 142 -69zM252 361q-55 0 -94 -39
q-42 -43 -42 -114q0 -79 47 -122q37 -34 89 -34q56 0 91 35q47 45 47 120q0 76 -44 117q-37 37 -94 37zM194 553q0 23 15 38t38 15t38 -15t15 -38t-15 -38t-38 -15t-38 15t-15 38z" />
    <glyph glyph-name="Gcommaaccent" unicode="&#x122;" horiz-adv-x="758" 
d="M430 265v70h278v-16q0 -126 -64 -211q-97 -120 -248 -120q-148 0 -247 99t-99 246t99.5 246t248.5 99q120 0 204 -66q45 -33 77 -79l-55 -50q-28 41 -63 69q-66 56 -162 56q-119 0 -196 -79t-77 -197q0 -86 42 -150.5t102.5 -94t126.5 -29.5t120 30t84 82q23 41 27 95
h-198zM318 -210l56 160l64 -24l-70 -156z" />
    <glyph glyph-name="gcommaaccent" unicode="&#x123;" horiz-adv-x="526" 
d="M386 356v59h72v-405q0 -109 -40 -163q-56 -77 -166 -77q-92 0 -148 56q-54 54 -54 134h71q0 -52 32 -86q38 -40 100 -40q76 0 110 58q23 38 23 106v60q-52 -70 -142 -70q-86 0 -142 56q-60 60 -60 164q0 101 60 161q56 56 142 56q89 0 142 -69zM252 361q-55 0 -94 -39
q-42 -43 -42 -114q0 -79 47 -122q37 -34 89 -34q56 0 91 35q47 45 47 120q0 76 -44 117q-37 37 -94 37zM315 650l-56 -160l-64 24l70 156z" />
    <glyph glyph-name="Hcircumflex" unicode="&#x124;" horiz-adv-x="662" 
d="M160 667v-271h342v271h74v-667h-74v326h-342v-326h-74v667h74zM331 797l-88 -76l-52 41l140 119l140 -119l-52 -41z" />
    <glyph glyph-name="hcircumflex" unicode="&#x125;" horiz-adv-x="470" 
d="M68 0v729h72v-362q48 58 119 58q80 0 119 -57q24 -35 24 -111v-257h-72v255q0 50 -19 76q-24 30 -68 30q-46 0 -73 -32q-30 -35 -30 -112v-217h-72zM107 818l-92 -81l-46 36l138 121l138 -121l-46 -36z" />
    <glyph glyph-name="Hbar" unicode="&#x126;" horiz-adv-x="662" 
d="M160 667v-53h342v53h74v-53h60v-62h-60v-552h-74v326h-342v-326h-74v552h-60v62h60v53h74zM502 552h-342v-156h342v156z" />
    <glyph glyph-name="hbar" unicode="&#x127;" horiz-adv-x="470" 
d="M68 0v554h-68v60h68v115h72v-115h200v-60h-200v-187q48 58 119 58q80 0 119 -57q24 -35 24 -111v-257h-72v255q0 50 -19 76q-24 30 -68 30q-46 0 -73 -32q-30 -35 -30 -112v-217h-72z" />
    <glyph glyph-name="Imacron" unicode="&#x12a;" horiz-adv-x="246" 
d="M86 667h74v-667h-74v667zM0 733v64h246v-64h-246z" />
    <glyph glyph-name="imacron" unicode="&#x12b;" horiz-adv-x="208" 
d="M68 415h72v-415h-72v415zM0 513v60h208v-60h-208z" />
    <glyph glyph-name="Iogonek" unicode="&#x12e;" horiz-adv-x="246" 
d="M86 667h74v-667q-38 -28 -47 -39q-23 -32 -23 -51q0 -40 52 -40q28 0 48 13l-8 -59q-29 -14 -59 -14q-39 0 -68 23.5t-29 63.5q0 34 24 64q19 23 48 39h-12v667z" />
    <glyph glyph-name="iogonek" unicode="&#x12f;" horiz-adv-x="208" 
d="M68 415h72v-415q-38 -28 -47 -39q-23 -32 -23 -51q0 -40 52 -40q28 0 48 13l-8 -55q-27 -14 -56 -14q-39 0 -67.5 23t-28.5 60q0 34 24 64q24 27 48 39h-14v415zM53 572q0 21 15 36t36 15t36 -15t15 -36t-15 -36t-36 -15t-36 15t-15 36z" />
    <glyph glyph-name="Idot" unicode="&#x130;" horiz-adv-x="246" 
d="M86 667h74v-667h-74v667zM69 784q0 24 15.5 39.5t39.5 15.5t39.5 -15.5t15.5 -39.5t-15.5 -39.5t-39.5 -15.5t-39.5 15.5t-15.5 39.5z" />
    <glyph glyph-name="dotlessi" unicode="&#x131;" horiz-adv-x="208" 
d="M68 415h72v-415h-72v415z" />
    <glyph glyph-name="Jcircumflex" unicode="&#x134;" horiz-adv-x="306" 
d="M146 667h74v-480q0 -36 -1.5 -57.5t-11 -50.5t-28.5 -49q-39 -42 -106 -42q-76 0 -119 49l41 58q35 -37 76 -37q31 0 50 19q25 25 25 108v482zM181 797l-88 -76l-52 41l140 119l140 -119l-52 -41z" />
    <glyph glyph-name="jcircumflex" unicode="&#x135;" horiz-adv-x="208" 
d="M68 415h72v-645h-72v645zM104 572l-75 -67l-43 35l118 106l118 -106l-43 -35z" />
    <glyph glyph-name="Kcommaaccent" unicode="&#x136;" horiz-adv-x="568" 
d="M160 667v-286l284 286h100l-312 -311l322 -356h-102l-273 306l-19 -19v-287h-74v667h74zM202 -210l56 160l64 -24l-70 -156z" />
    <glyph glyph-name="kcommaaccent" unicode="&#x137;" horiz-adv-x="422" 
d="M68 729h72v-468l152 154h94l-178 -178l210 -237h-94l-166 189l-18 -18v-171h-72v729zM132 -210l56 160l64 -24l-70 -156z" />
    <glyph glyph-name="Lacute" unicode="&#x139;" horiz-adv-x="358" 
d="M86 667h74v-597h184v-70h-258v667zM243 882l70 -45l-153 -117l-43 32z" />
    <glyph glyph-name="lacute" unicode="&#x13a;" horiz-adv-x="208" 
d="M68 729h72v-729h-72v729zM173 926l74 -34l-134 -135l-45 24z" />
    <glyph glyph-name="Lcommaaccent" unicode="&#x13b;" horiz-adv-x="358" 
d="M86 667h74v-597h184v-70h-258v667zM139 -210l56 160l64 -24l-70 -156z" />
    <glyph glyph-name="lcommaaccent" unicode="&#x13c;" horiz-adv-x="208" 
d="M68 729h72v-729h-72v729zM25 -210l56 160l64 -24l-70 -156z" />
    <glyph glyph-name="Lcaron" unicode="&#x13d;" horiz-adv-x="358" 
d="M86 667h74v-597h184v-70h-258v667zM250 520l52 160l64 -24l-70 -156z" />
    <glyph glyph-name="lcaron" unicode="&#x13e;" horiz-adv-x="278" 
d="M68 729h72v-729h-72v729zM183 530l52 160l64 -24l-70 -156z" />
    <glyph glyph-name="Ldot" unicode="&#x13f;" horiz-adv-x="357" 
d="M86 667h74v-597h184v-70h-258v667zM242 335q0 24 15.5 39.5t39.5 15.5t39.5 -15.5t15.5 -39.5t-15.5 -39.5t-39.5 -15.5t-39.5 15.5t-15.5 39.5z" />
    <glyph glyph-name="ldot" unicode="&#x140;" horiz-adv-x="314" 
d="M68 729h72v-729h-72v729zM208 366q0 23 15 38t38 15t38 -15t15 -38t-15 -38t-38 -15t-38 15t-15 38z" />
    <glyph glyph-name="Lslash" unicode="&#x141;" horiz-adv-x="358" 
d="M86 667h74v-261l100 64v-64l-100 -64v-272h184v-70h-258v305l-86 -55v64l86 55v298z" />
    <glyph glyph-name="lslash" unicode="&#x142;" horiz-adv-x="208" 
d="M68 729h72v-230l68 53v-60l-68 -53v-439h-72v393l-68 -53v60l68 53v276z" />
    <glyph glyph-name="Nacute" unicode="&#x143;" horiz-adv-x="766" 
d="M160 0h-74v695l520 -545v517h74v-697l-520 545v-515zM465 882l70 -45l-153 -117l-43 32z" />
    <glyph glyph-name="nacute" unicode="&#x144;" horiz-adv-x="470" 
d="M68 0v415h72v-48q48 58 119 58q80 0 119 -57q24 -35 24 -111v-257h-72v255q0 50 -19 76q-24 30 -68 30q-46 0 -73 -32q-30 -35 -30 -112v-217h-72zM312 666l74 -34l-134 -135l-45 24z" />
    <glyph glyph-name="Ncommaaccent" unicode="&#x145;" horiz-adv-x="766" 
d="M160 0h-74v695l520 -545v517h74v-697l-520 545v-515zM308 -210l56 160l64 -24l-70 -156z" />
    <glyph glyph-name="ncommaaccent" unicode="&#x146;" horiz-adv-x="470" 
d="M68 0v415h72v-48q48 58 119 58q80 0 119 -57q24 -35 24 -111v-257h-72v255q0 50 -19 76q-24 30 -68 30q-46 0 -73 -32q-30 -35 -30 -112v-217h-72zM156 -210l56 160l64 -24l-70 -156z" />
    <glyph glyph-name="Ncaron" unicode="&#x147;" horiz-adv-x="766" 
d="M160 0h-74v695l520 -545v517h74v-697l-520 545v-515zM383 805l88 76l52 -41l-140 -119l-140 119l52 41z" />
    <glyph glyph-name="ncaron" unicode="&#x148;" horiz-adv-x="470" 
d="M68 0v415h72v-48q48 58 119 58q80 0 119 -57q24 -35 24 -111v-257h-72v255q0 50 -19 76q-24 30 -68 30q-46 0 -73 -32q-30 -35 -30 -112v-217h-72zM250 573l92 81l46 -36l-138 -121l-138 121l46 36z" />
    <glyph glyph-name="Omacron" unicode="&#x14c;" horiz-adv-x="794" 
d="M397 -12q-146 0 -246.5 99t-100.5 246q0 148 101 246.5t246 98.5t246 -98.5t101 -246.5q0 -147 -100.5 -246t-246.5 -99zM397 608q-113 0 -192 -80t-79 -195t79 -195t192 -80q112 0 191.5 80.5t79.5 194.5t-79.5 194.5t-191.5 80.5zM237 733v64h320v-64h-320z" />
    <glyph glyph-name="omacron" unicode="&#x14d;" horiz-adv-x="524" 
d="M262 -12q-95 0 -157.5 62t-62.5 156t62.5 156.5t157.5 62.5t157.5 -62.5t62.5 -156.5t-62.5 -156t-157.5 -62zM262 361q-61 0 -103.5 -41.5t-42.5 -113.5t43 -113t103 -41t103 41.5t43 112.5q0 72 -42.5 113.5t-103.5 41.5zM111 513v60h302v-60h-302z" />
    <glyph glyph-name="Obreve" unicode="&#x14e;" horiz-adv-x="794" 
d="M397 -12q-146 0 -246.5 99t-100.5 246q0 148 101 246.5t246 98.5t246 -98.5t101 -246.5q0 -147 -100.5 -246t-246.5 -99zM397 608q-113 0 -192 -80t-79 -195t79 -195t192 -80q112 0 191.5 80.5t79.5 194.5t-79.5 194.5t-191.5 80.5zM486 841h66q-8 -39 -31 -67
q-46 -53 -124 -53t-124 53q-23 28 -31 67h66q8 -23 25 -36q25 -20 64 -20t64 20q17 13 25 36z" />
    <glyph glyph-name="obreve" unicode="&#x14f;" horiz-adv-x="524" 
d="M262 -12q-95 0 -157.5 62t-62.5 156t62.5 156.5t157.5 62.5t157.5 -62.5t62.5 -156.5t-62.5 -156t-157.5 -62zM262 361q-61 0 -103.5 -41.5t-42.5 -113.5t43 -113t103 -41t103 41.5t43 112.5q0 72 -42.5 113.5t-103.5 41.5zM117 617h61q6 -23 24 -39q24 -21 60 -21t60 21
q18 16 24 39h61q-2 -13 -7 -26t-8.5 -19.5t-8.5 -13.5l-5 -8q-41 -53 -116 -53q-77 0 -116 53l-5 8q-5 7 -8.5 13.5t-8.5 19.5t-7 26z" />
    <glyph glyph-name="Ohungarumlaut" unicode="&#x150;" horiz-adv-x="794" 
d="M397 -12q-146 0 -246.5 99t-100.5 246q0 148 101 246.5t246 98.5t246 -98.5t101 -246.5q0 -147 -100.5 -246t-246.5 -99zM397 608q-113 0 -192 -80t-79 -195t79 -195t192 -80q112 0 191.5 80.5t79.5 194.5t-79.5 194.5t-191.5 80.5zM401 882l70 -40l-147 -122l-43 26z
M551 882l70 -40l-147 -122l-43 26z" />
    <glyph glyph-name="ohungarumlaut" unicode="&#x151;" horiz-adv-x="524" 
d="M262 -12q-95 0 -157.5 62t-62.5 156t62.5 156.5t157.5 62.5t157.5 -62.5t62.5 -156.5t-62.5 -156t-157.5 -62zM262 361q-61 0 -103.5 -41.5t-42.5 -113.5t43 -113t103 -41t103 41.5t43 112.5q0 72 -42.5 113.5t-103.5 41.5zM262 666l72 -32l-137 -136l-41 23zM396 666
l70 -32l-135 -136l-41 23z" />
    <glyph glyph-name="OE" unicode="&#x152;" horiz-adv-x="1056" 
d="M1006 667v-70h-267v-198h260v-70h-260v-259h267v-70h-341v128q-47 -71 -117.5 -105.5t-146.5 -34.5q-147 0 -249 101.5t-102 242.5q0 142 102 244t246 102q80 0 150 -36t117 -106v131h341zM396 608q-112 0 -191 -81.5t-79 -194.5q0 -112 79 -193t190 -81q112 0 191 80.5
t79 192.5q0 114 -79 195.5t-190 81.5z" />
    <glyph glyph-name="oe" unicode="&#x153;" horiz-adv-x="852" 
d="M810 209v-15h-327q2 -59 40 -100.5t96 -41.5q43 0 75.5 25t49.5 64l61 -35q-28 -52 -76.5 -85t-112.5 -33q-14 0 -30.5 2.5t-44.5 11t-55 30.5t-44 55q-65 -99 -182 -99q-93 0 -155.5 63t-62.5 155q0 94 63.5 156.5t157.5 62.5q120 0 179 -99q52 99 167 99
q93 0 147 -58.5t54 -157.5zM489 254h247q-8 49 -42 78t-82 29q-46 0 -79.5 -28.5t-43.5 -78.5zM261 361q-67 0 -106 -46t-39 -109t39.5 -108.5t104.5 -45.5q59 0 102.5 40.5t43.5 111.5q0 68 -38.5 112.5t-106.5 44.5z" />
    <glyph glyph-name="Racute" unicode="&#x154;" horiz-adv-x="502" 
d="M86 667h107q109 0 162 -37q73 -51 73 -148q0 -77 -46 -127.5t-122 -56.5l212 -298h-90l-203 292h-19v-292h-74v667zM160 597v-239h47q70 0 108.5 31.5t38.5 90.5q0 68 -53 98q-35 19 -96 19h-45zM313 882l70 -45l-153 -117l-43 32z" />
    <glyph glyph-name="racute" unicode="&#x155;" horiz-adv-x="296" 
d="M68 0v415h72v-45q40 55 94 55q28 0 64 -17l-34 -65q-20 14 -42 14q-39 0 -58 -26q-24 -32 -24 -112v-219h-72zM253 666l74 -34l-134 -135l-45 24z" />
    <glyph glyph-name="Rcommaaccent" unicode="&#x156;" horiz-adv-x="502" 
d="M86 667h107q109 0 162 -37q73 -51 73 -148q0 -77 -46 -127.5t-122 -56.5l212 -298h-90l-203 292h-19v-292h-74v667zM160 597v-239h47q70 0 108.5 31.5t38.5 90.5q0 68 -53 98q-35 19 -96 19h-45zM178 -210l56 160l64 -24l-70 -156z" />
    <glyph glyph-name="rcommaaccent" unicode="&#x157;" horiz-adv-x="296" 
d="M68 0v415h72v-45q40 55 94 55q28 0 64 -17l-34 -65q-20 14 -42 14q-39 0 -58 -26q-24 -32 -24 -112v-219h-72zM66 -210l56 160l64 -24l-70 -156z" />
    <glyph glyph-name="Rcaron" unicode="&#x158;" horiz-adv-x="502" 
d="M86 667h107q109 0 162 -37q73 -51 73 -148q0 -77 -46 -127.5t-122 -56.5l212 -298h-90l-203 292h-19v-292h-74v667zM160 597v-239h47q70 0 108.5 31.5t38.5 90.5q0 68 -53 98q-35 19 -96 19h-45zM231 805l88 76l52 -41l-140 -119l-140 119l52 41z" />
    <glyph glyph-name="rcaron" unicode="&#x159;" horiz-adv-x="296" 
d="M68 0v415h72v-45q40 55 94 55q28 0 64 -17l-34 -65q-20 14 -42 14q-39 0 -58 -26q-24 -32 -24 -112v-219h-72zM201 573l92 81l46 -36l-138 -121l-138 121l46 36z" />
    <glyph glyph-name="Sacute" unicode="&#x15a;" horiz-adv-x="518" 
d="M443 574l-59 -39q-14 30 -39 50q-27 23 -75 23q-51 0 -81.5 -28t-30.5 -75q0 -36 25 -58q20 -20 70 -42l64 -28q71 -31 103 -63q48 -48 48 -121q0 -92 -60 -148.5t-151 -56.5q-89 0 -145 54q-45 44 -62 118l72 20q7 -50 40 -85q37 -37 96 -37q65 0 99.5 38.5t34.5 93.5
q0 46 -33 78q-17 17 -80 46l-60 28q-58 26 -89 55q-46 44 -46 109q0 77 52.5 124.5t134.5 47.5q64 0 107 -30q42 -30 65 -74zM341 882l70 -45l-153 -117l-43 32z" />
    <glyph glyph-name="sacute" unicode="&#x15b;" horiz-adv-x="352" 
d="M298 350l-59 -31q-19 42 -58 42q-22 0 -36 -12t-14 -35q0 -21 13 -31.5t54 -27.5q79 -33 104 -64q22 -27 22 -67q0 -63 -40.5 -99.5t-102.5 -36.5q-12 0 -25.5 2.5t-38.5 11t-47 32.5t-34 60l62 26q25 -68 84 -68q33 0 50.5 20t17.5 46q0 14 -4.5 24.5t-15 18.5t-20 13
t-27.5 13q-81 36 -101 61q-19 24 -19 61q0 54 33.5 85t87.5 31q81 0 114 -75zM239 666l74 -34l-134 -135l-45 24z" />
    <glyph glyph-name="Scircumflex" unicode="&#x15c;" horiz-adv-x="518" 
d="M443 574l-59 -39q-14 30 -39 50q-27 23 -75 23q-51 0 -81.5 -28t-30.5 -75q0 -36 25 -58q20 -20 70 -42l64 -28q71 -31 103 -63q48 -48 48 -121q0 -92 -60 -148.5t-151 -56.5q-89 0 -145 54q-45 44 -62 118l72 20q7 -50 40 -85q37 -37 96 -37q65 0 99.5 38.5t34.5 93.5
q0 46 -33 78q-17 17 -80 46l-60 28q-58 26 -89 55q-46 44 -46 109q0 77 52.5 124.5t134.5 47.5q64 0 107 -30q42 -30 65 -74zM274 797l-88 -76l-52 41l140 119l140 -119l-52 -41z" />
    <glyph glyph-name="scircumflex" unicode="&#x15d;" horiz-adv-x="352" 
d="M298 350l-59 -31q-19 42 -58 42q-22 0 -36 -12t-14 -35q0 -21 13 -31.5t54 -27.5q79 -33 104 -64q22 -27 22 -67q0 -63 -40.5 -99.5t-102.5 -36.5q-12 0 -25.5 2.5t-38.5 11t-47 32.5t-34 60l62 26q25 -68 84 -68q33 0 50.5 20t17.5 46q0 14 -4.5 24.5t-15 18.5t-20 13
t-27.5 13q-81 36 -101 61q-19 24 -19 61q0 54 33.5 85t87.5 31q81 0 114 -75zM185 578l-92 -81l-46 36l138 121l138 -121l-46 -36z" />
    <glyph glyph-name="Scedilla" unicode="&#x15e;" horiz-adv-x="518" 
d="M443 574l-59 -39q-14 30 -39 50q-27 23 -75 23q-51 0 -81.5 -28t-30.5 -75q0 -36 25 -58q20 -20 70 -42l64 -28q71 -31 103 -63q48 -48 48 -121q0 -92 -60 -148.5t-151 -56.5q-89 0 -145 54q-45 44 -62 118l72 20q7 -50 40 -85q37 -37 96 -37q65 0 99.5 38.5t34.5 93.5
q0 46 -33 78q-17 17 -80 46l-60 28q-58 26 -89 55q-46 44 -46 109q0 77 52.5 124.5t134.5 47.5q64 0 107 -30q42 -30 65 -74zM255 -52l70 -30l-104 -128l-50 26z" />
    <glyph glyph-name="scedilla" unicode="&#x15f;" horiz-adv-x="352" 
d="M298 350l-59 -31q-19 42 -58 42q-22 0 -36 -12t-14 -35q0 -21 13 -31.5t54 -27.5q79 -33 104 -64q22 -27 22 -67q0 -63 -40.5 -99.5t-102.5 -36.5q-12 0 -25.5 2.5t-38.5 11t-47 32.5t-34 60l62 26q25 -68 84 -68q33 0 50.5 20t17.5 46q0 14 -4.5 24.5t-15 18.5t-20 13
t-27.5 13q-81 36 -101 61q-19 24 -19 61q0 54 33.5 85t87.5 31q81 0 114 -75zM177 -52l66 -27l-101 -128l-49 24z" />
    <glyph glyph-name="Scaron" unicode="&#x160;" horiz-adv-x="518" 
d="M443 574l-59 -39q-14 30 -39 50q-27 23 -75 23q-51 0 -81.5 -28t-30.5 -75q0 -36 25 -58q20 -20 70 -42l64 -28q71 -31 103 -63q48 -48 48 -121q0 -92 -60 -148.5t-151 -56.5q-89 0 -145 54q-45 44 -62 118l72 20q7 -50 40 -85q37 -37 96 -37q65 0 99.5 38.5t34.5 93.5
q0 46 -33 78q-17 17 -80 46l-60 28q-58 26 -89 55q-46 44 -46 109q0 77 52.5 124.5t134.5 47.5q64 0 107 -30q42 -30 65 -74zM274 805l88 76l52 -41l-140 -119l-140 119l52 41z" />
    <glyph glyph-name="scaron" unicode="&#x161;" horiz-adv-x="352" 
d="M298 350l-59 -31q-19 42 -58 42q-22 0 -36 -12t-14 -35q0 -21 13 -31.5t54 -27.5q79 -33 104 -64q22 -27 22 -67q0 -63 -40.5 -99.5t-102.5 -36.5q-12 0 -25.5 2.5t-38.5 11t-47 32.5t-34 60l62 26q25 -68 84 -68q33 0 50.5 20t17.5 46q0 14 -4.5 24.5t-15 18.5t-20 13
t-27.5 13q-81 36 -101 61q-19 24 -19 61q0 54 33.5 85t87.5 31q81 0 114 -75zM185 573l92 81l46 -36l-138 -121l-138 121l46 36z" />
    <glyph glyph-name="Tcedilla" unicode="&#x162;" horiz-adv-x="426" 
d="M412 597h-162v-597h-74v597h-162v70h398v-70zM205 -52l70 -30l-104 -128l-50 26z" />
    <glyph glyph-name="tcedilla" unicode="&#x163;" horiz-adv-x="214" 
d="M214 349h-72v-349h-72v349h-44v66h44v150h72v-150h72v-66zM97 -52l66 -27l-101 -128l-49 24z" />
    <glyph glyph-name="Tcaron" unicode="&#x164;" horiz-adv-x="426" 
d="M412 597h-162v-597h-74v597h-162v70h398v-70zM214 805l88 76l52 -41l-140 -119l-140 119l52 41z" />
    <glyph glyph-name="tcaron" unicode="&#x165;" horiz-adv-x="276" 
d="M214 349h-72v-349h-72v349h-44v66h44v150h72v-150h72v-66zM181 530l52 160l64 -24l-70 -156z" />
    <glyph glyph-name="Utilde" unicode="&#x168;" horiz-adv-x="646" 
d="M160 667v-409q0 -37 1.5 -58t14 -52t37.5 -52q45 -38 110 -38t110 38q25 21 37.5 52t14 52t1.5 58v409h74v-429q0 -100 -42 -160q-64 -90 -195 -90t-195 90q-42 60 -42 160v429h74zM435 842l43 -35q-9 -24 -26 -41q-30 -31 -70 -31q-21 0 -67 22q-42 20 -56 20
q-17 0 -30 -13q-13 -15 -17 -31l-44 36q10 25 30 45q27 27 63 27q24 0 68 -21q36 -21 56 -21q18 0 32 14q12 12 18 29z" />
    <glyph glyph-name="utilde" unicode="&#x169;" horiz-adv-x="466" 
d="M140 415v-242q0 -62 20 -89q23 -32 73 -32t73 32q20 27 20 89v242h72v-250q0 -84 -38 -125q-49 -52 -127 -52t-127 52q-38 41 -38 125v250h72zM122 497l-42 34q16 27 34 45q24 24 57 24q28 0 70 -20q38 -20 56 -20q19 0 29 12q13 15 21 31l41 -34q-7 -20 -26 -39
q-29 -30 -66 -30q-25 0 -69 21q-41 19 -55 19q-15 0 -29 -14q-11 -11 -21 -29z" />
    <glyph glyph-name="Umacron" unicode="&#x16a;" horiz-adv-x="646" 
d="M160 667v-409q0 -37 1.5 -58t14 -52t37.5 -52q45 -38 110 -38t110 38q25 21 37.5 52t14 52t1.5 58v409h74v-429q0 -100 -42 -160q-64 -90 -195 -90t-195 90q-42 60 -42 160v429h74zM163 733v64h320v-64h-320z" />
    <glyph glyph-name="umacron" unicode="&#x16b;" horiz-adv-x="466" 
d="M140 415v-242q0 -62 20 -89q23 -32 73 -32t73 32q20 27 20 89v242h72v-250q0 -84 -38 -125q-49 -52 -127 -52t-127 52q-38 41 -38 125v250h72zM83 513v60h302v-60h-302z" />
    <glyph glyph-name="Ubreve" unicode="&#x16c;" horiz-adv-x="646" 
d="M160 667v-409q0 -37 1.5 -58t14 -52t37.5 -52q45 -38 110 -38t110 38q25 21 37.5 52t14 52t1.5 58v409h74v-429q0 -100 -42 -160q-64 -90 -195 -90t-195 90q-42 60 -42 160v429h74zM412 841h66q-8 -39 -31 -67q-46 -53 -124 -53t-124 53q-23 28 -31 67h66q8 -23 25 -36
q25 -20 64 -20t64 20q17 13 25 36z" />
    <glyph glyph-name="ubreve" unicode="&#x16d;" horiz-adv-x="466" 
d="M140 415v-242q0 -62 20 -89q23 -32 73 -32t73 32q20 27 20 89v242h72v-250q0 -84 -38 -125q-49 -52 -127 -52t-127 52q-38 41 -38 125v250h72zM89 617h61q6 -23 24 -39q24 -21 60 -21t60 21q18 16 24 39h61q-2 -13 -7 -26t-8.5 -19.5t-8.5 -13.5l-5 -8q-41 -53 -116 -53
q-77 0 -116 53l-5 8q-5 7 -8.5 13.5t-8.5 19.5t-7 26z" />
    <glyph glyph-name="Uring" unicode="&#x16e;" horiz-adv-x="646" 
d="M160 667v-409q0 -37 1.5 -58t14 -52t37.5 -52q45 -38 110 -38t110 38q25 21 37.5 52t14 52t1.5 58v409h74v-429q0 -100 -42 -160q-64 -90 -195 -90t-195 90q-42 60 -42 160v429h74zM235 818q0 36 26 62t62 26t62 -26t26 -62t-26 -62t-62 -26t-62 26t-26 62zM281 819
q0 -17 12.5 -29.5t29.5 -12.5t29.5 12.5t12.5 29.5t-12.5 29.5t-29.5 12.5t-29.5 -12.5t-12.5 -29.5z" />
    <glyph glyph-name="uring" unicode="&#x16f;" horiz-adv-x="466" 
d="M140 415v-242q0 -62 20 -89q23 -32 73 -32t73 32q20 27 20 89v242h72v-250q0 -84 -38 -125q-49 -52 -127 -52t-127 52q-38 41 -38 125v250h72zM148 583q0 35 25.5 60.5t60.5 25.5t60.5 -25.5t25.5 -60.5t-25.5 -60.5t-60.5 -25.5t-60.5 25.5t-25.5 60.5zM192 583
q0 -17 12.5 -29.5t29.5 -12.5t29.5 12.5t12.5 29.5t-12.5 29.5t-29.5 12.5t-29.5 -12.5t-12.5 -29.5z" />
    <glyph glyph-name="Uhungarumlaut" unicode="&#x170;" horiz-adv-x="646" 
d="M160 667v-409q0 -37 1.5 -58t14 -52t37.5 -52q45 -38 110 -38t110 38q25 21 37.5 52t14 52t1.5 58v409h74v-429q0 -100 -42 -160q-64 -90 -195 -90t-195 90q-42 60 -42 160v429h74zM327 882l70 -40l-147 -122l-43 26zM477 882l70 -40l-147 -122l-43 26z" />
    <glyph glyph-name="uhungarumlaut" unicode="&#x171;" horiz-adv-x="466" 
d="M140 415v-242q0 -62 20 -89q23 -32 73 -32t73 32q20 27 20 89v242h72v-250q0 -84 -38 -125q-49 -52 -127 -52t-127 52q-38 41 -38 125v250h72zM234 666l72 -32l-137 -136l-41 23zM368 666l70 -32l-135 -136l-41 23z" />
    <glyph glyph-name="Uogonek" unicode="&#x172;" horiz-adv-x="646" 
d="M160 667v-422q0 -95 43 -139q21 -21 54 -34.5t66 -13.5q65 0 110 38q53 46 53 151v420h74v-429q0 -119 -57 -179q-7 -7 -18.5 -15.5t-21 -14.5t-25.5 -15t-24 -14q-46 -25 -59 -42q-20 -23 -20 -48q0 -17 13 -29q12 -11 39 -11q26 0 48 13l-8 -59q-25 -14 -59 -14
q-46 0 -76 30q-21 22 -21 56q0 29 21 60q13 19 31 32q-127 0 -195 90q-42 60 -42 160v429h74z" />
    <glyph glyph-name="uogonek" unicode="&#x173;" horiz-adv-x="466" 
d="M140 415v-242q0 -62 20 -89q23 -32 73 -32t73 32q20 27 20 89v242h72v-250q0 -85 -38 -125q-9 -9 -17.5 -15t-22.5 -14.5t-20 -12.5q-28 -17 -50 -41q-20 -24 -20 -47q0 -19 13 -29q15 -11 39 -11q26 0 48 13l-8 -55q-24 -14 -57 -14q-45 0 -73 28q-22 22 -22 55
q0 30 16 52l5 7q5 7 13.5 15.5t18.5 16.5q-72 6 -117 52q-38 41 -38 125v250h72z" />
    <glyph glyph-name="Ydieresis" unicode="&#x178;" horiz-adv-x="530" 
d="M227 0v287l-219 380h86l170 -298l172 298h86l-221 -380v-287h-74zM119 784q0 21 15 36t36 15t36 -15t15 -36t-15 -36t-36 -15t-36 15t-15 36zM309 784q0 21 15 36t36 15t36 -15t15 -36t-15 -36t-36 -15t-36 15t-15 36z" />
    <glyph glyph-name="Zacute" unicode="&#x179;" horiz-adv-x="536" 
d="M512 667l-364 -597h354v-70h-478l364 597h-317v70h441zM350 882l70 -45l-153 -117l-43 32z" />
    <glyph glyph-name="zacute" unicode="&#x17a;" horiz-adv-x="460" 
d="M452 415l-300 -349h288v-66h-432l300 349h-242v66h386zM293 666l74 -34l-134 -135l-45 24z" />
    <glyph glyph-name="Zdotaccent" unicode="&#x17b;" horiz-adv-x="536" 
d="M512 667l-364 -597h354v-70h-478l364 597h-317v70h441zM225 784q0 24 15.5 39.5t39.5 15.5t39.5 -15.5t15.5 -39.5t-15.5 -39.5t-39.5 -15.5t-39.5 15.5t-15.5 39.5z" />
    <glyph glyph-name="zdotaccent" unicode="&#x17c;" horiz-adv-x="460" 
d="M452 415l-300 -349h288v-66h-432l300 349h-242v66h386zM197 553q0 23 15 38t38 15t38 -15t15 -38t-15 -38t-38 -15t-38 15t-15 38z" />
    <glyph glyph-name="Zcaron" unicode="&#x17d;" horiz-adv-x="536" 
d="M512 667l-364 -597h354v-70h-478l364 597h-317v70h441zM280 805l88 76l52 -41l-140 -119l-140 119l52 41z" />
    <glyph glyph-name="zcaron" unicode="&#x17e;" horiz-adv-x="460" 
d="M452 415l-300 -349h288v-66h-432l300 349h-242v66h386zM250 573l92 81l46 -36l-138 -121l-138 121l46 36z" />
    <glyph glyph-name="uni018F" unicode="&#x18f;" horiz-adv-x="756" 
d="M132 483l-55 50q32 46 77 79q84 66 204 66q149 0 248.5 -99t99.5 -246t-98.5 -246t-245.5 -99q-82 0 -146.5 34t-101.5 86q-64 85 -64 211v16h580q0 114 -77 193.5t-196 79.5q-96 0 -162 -56q-35 -28 -63 -69zM623 265h-497q4 -54 27 -95q30 -52 84 -82t120 -30
q96 0 171 58.5t95 148.5z" />
    <glyph glyph-name="florin" unicode="&#x192;" horiz-adv-x="568" 
d="M427 355h-108l-61 -329q-7 -38 -12 -57t-18 -46t-32 -46q-49 -47 -139 -47q-26 0 -42 4l14 64q14 -2 25 -2q59 0 89 29q31 31 48 128l55 302h-72l9 60h74l33 179q14 78 49 113q33 33 92 33q34 0 64 -10l-13 -67q-24 11 -46 11q-27 0 -44 -16q-19 -19 -32 -84l-30 -159
h106z" />
    <glyph glyph-name="uni01CF" unicode="&#x1cf;" horiz-adv-x="246" 
d="M86 667h74v-667h-74v667zM124 805l88 76l52 -41l-140 -119l-140 119l52 41z" />
    <glyph glyph-name="uni01D0" unicode="&#x1d0;" horiz-adv-x="208" 
d="M68 415h72v-415h-72v415zM104 579l75 67l43 -35l-118 -106l-118 106l43 35z" />
    <glyph glyph-name="uni01DD" unicode="&#x1dd;" horiz-adv-x="482" 
d="M105 274l-60 33q21 40 51 67q56 51 138 51q84 0 145 -55t61 -162q0 -95 -55 -157.5t-147 -62.5q-105 0 -158 76q-45 64 -38 156h324q0 62 -39 101.5t-94 39.5q-51 0 -85 -30q-28 -24 -43 -57zM360 160h-244q8 -49 41 -78.5t81 -29.5q46 0 80 30.5t42 77.5z" />
    <glyph glyph-name="Gcaron" unicode="&#x1e6;" horiz-adv-x="758" 
d="M430 265v70h278v-16q0 -126 -64 -211q-97 -120 -248 -120q-148 0 -247 99t-99 246t99.5 246t248.5 99q120 0 204 -66q45 -33 77 -79l-55 -50q-28 41 -63 69q-66 56 -162 56q-119 0 -196 -79t-77 -197q0 -86 42 -150.5t102.5 -94t126.5 -29.5t120 30t84 82q23 41 27 95
h-198zM379 805l88 76l52 -41l-140 -119l-140 119l52 41z" />
    <glyph glyph-name="gcaron" unicode="&#x1e7;" horiz-adv-x="526" 
d="M386 356v59h72v-405q0 -109 -40 -163q-56 -77 -166 -77q-92 0 -148 56q-54 54 -54 134h71q0 -52 32 -86q38 -40 100 -40q76 0 110 58q23 38 23 106v60q-52 -70 -142 -70q-86 0 -142 56q-60 60 -60 164q0 101 60 161q56 56 142 56q89 0 142 -69zM252 361q-55 0 -94 -39
q-42 -43 -42 -114q0 -79 47 -122q37 -34 89 -34q56 0 91 35q47 45 47 120q0 76 -44 117q-37 37 -94 37zM263 573l92 81l46 -36l-138 -121l-138 121l46 36z" />
    <glyph glyph-name="AEacute" unicode="&#x1fc;" horiz-adv-x="900" 
d="M538 0l-79 187h-284l-79 -187h-82l297 667h293l29 -70h-269l83 -198h264l29 -70h-262l108 -259h271l29 -70h-270h-78zM207 257h223l-110 261zM532 882l70 -45l-153 -117l-43 32z" />
    <glyph glyph-name="aeacute" unicode="&#x1fd;" horiz-adv-x="774" 
d="M667 140l60 -36q-63 -116 -187 -116q-106 0 -163 83q-48 -83 -156 -83q-77 0 -128 35t-51 100t49 101t124 36q70 0 119 -35q2 52 -19 88q-28 48 -99 48q-50 0 -128 -26v68q65 22 129 22q114 0 157 -84q52 84 160 84q91 0 144.5 -61.5t53.5 -163.5v-7h-324
q2 -62 39.5 -101.5t91.5 -39.5q42 0 75.5 24.5t52.5 63.5zM413 253h245q-7 50 -41 79t-82 29q-46 0 -80 -29t-42 -79zM221 196q-52 0 -79.5 -20.5t-27.5 -52.5q0 -28 24 -49.5t81 -21.5t84 22.5t27 51.5q0 26 -27 48t-82 22zM449 666l74 -34l-134 -135l-45 24z" />
    <glyph glyph-name="Scommaaccent" unicode="&#x218;" horiz-adv-x="518" 
d="M443 574l-59 -39q-14 30 -39 50q-27 23 -75 23q-51 0 -81.5 -28t-30.5 -75q0 -36 25 -58q20 -20 70 -42l64 -28q71 -31 103 -63q48 -48 48 -121q0 -92 -60 -148.5t-151 -56.5q-89 0 -145 54q-45 44 -62 118l72 20q7 -50 40 -85q37 -37 96 -37q65 0 99.5 38.5t34.5 93.5
q0 46 -33 78q-17 17 -80 46l-60 28q-58 26 -89 55q-46 44 -46 109q0 77 52.5 124.5t134.5 47.5q64 0 107 -30q42 -30 65 -74zM188 -210l56 160l64 -24l-70 -156z" />
    <glyph glyph-name="scommaaccent" unicode="&#x219;" horiz-adv-x="352" 
d="M298 350l-59 -31q-19 42 -58 42q-22 0 -36 -12t-14 -35q0 -21 13 -31.5t54 -27.5q79 -33 104 -64q22 -27 22 -67q0 -63 -40.5 -99.5t-102.5 -36.5q-12 0 -25.5 2.5t-38.5 11t-47 32.5t-34 60l62 26q25 -68 84 -68q33 0 50.5 20t17.5 46q0 14 -4.5 24.5t-15 18.5t-20 13
t-27.5 13q-81 36 -101 61q-19 24 -19 61q0 54 33.5 85t87.5 31q81 0 114 -75zM111 -210l56 160l64 -24l-70 -156z" />
    <glyph glyph-name="Tcommaaccent" unicode="&#x21a;" horiz-adv-x="426" 
d="M412 597h-162v-597h-74v597h-162v70h398v-70zM129 -210l56 160l64 -24l-70 -156z" />
    <glyph glyph-name="tcommaaccent" unicode="&#x21b;" horiz-adv-x="214" 
d="M214 349h-72v-349h-72v349h-44v66h44v150h72v-150h72v-66zM31 -210l56 160l64 -24l-70 -156z" />
    <glyph glyph-name="uni0228" unicode="&#x228;" horiz-adv-x="482" 
d="M432 667v-70h-272v-198h264v-70h-264v-259h272v-70h-346v667h346zM256 -52l70 -30l-104 -128l-50 26z" />
    <glyph glyph-name="uni0229" unicode="&#x229;" horiz-adv-x="481" 
d="M376 139l60 -33q-21 -40 -51 -67q-57 -51 -138 -51q-84 0 -144.5 54.5t-60.5 162.5q0 95 55 157.5t146 62.5q104 0 157 -76q44 -60 39 -156h-323q0 -62 38.5 -101.5t93.5 -39.5q49 0 85 30q28 24 43 57zM121 253h244q-9 49 -42.5 78.5t-79.5 29.5t-80 -30.5t-42 -77.5z
M257 -52l66 -27l-101 -128l-49 24z" />
    <glyph glyph-name="uni0237" unicode="&#x237;" horiz-adv-x="208" 
d="M68 415h72v-645h-72v645z" />
    <glyph glyph-name="uni0259" unicode="&#x259;" horiz-adv-x="482" 
d="M105 274l-60 33q21 40 51 67q56 51 138 51q84 0 145 -55t61 -162q0 -95 -55 -157.5t-147 -62.5q-105 0 -158 76q-45 64 -38 156h324q0 62 -39 101.5t-94 39.5q-51 0 -85 -30q-28 -24 -43 -57zM360 160h-244q8 -49 41 -78.5t81 -29.5q46 0 80 30.5t42 77.5z" />
    <glyph glyph-name="afii57929" unicode="&#x2bc;" 
d="M190 530l52 160l64 -24l-70 -156z" />
    <glyph glyph-name="circumflex" unicode="&#x2c6;" 
d="M250 578l-92 -81l-46 36l138 121l138 -121l-46 -36z" />
    <glyph glyph-name="caron" unicode="&#x2c7;" 
d="M250 573l92 81l46 -36l-138 -121l-138 121l46 36z" />
    <glyph glyph-name="uni02C9" unicode="&#x2c9;" 
d="M99 513v60h302v-60h-302z" />
    <glyph glyph-name="breve" unicode="&#x2d8;" 
d="M105 617h61q6 -23 24 -39q24 -21 60 -21t60 21q18 16 24 39h61q-2 -13 -7 -26t-8.5 -19.5t-8.5 -13.5l-5 -8q-41 -53 -116 -53q-77 0 -116 53l-5 8q-5 7 -8.5 13.5t-8.5 19.5t-7 26z" />
    <glyph glyph-name="dotaccent" unicode="&#x2d9;" 
d="M197 553q0 23 15 38t38 15t38 -15t15 -38t-15 -38t-38 -15t-38 15t-15 38z" />
    <glyph glyph-name="ring" unicode="&#x2da;" 
d="M164 583q0 35 25.5 60.5t60.5 25.5t60.5 -25.5t25.5 -60.5t-25.5 -60.5t-60.5 -25.5t-60.5 25.5t-25.5 60.5zM208 583q0 -17 12.5 -29.5t29.5 -12.5t29.5 12.5t12.5 29.5t-12.5 29.5t-29.5 12.5t-29.5 -12.5t-12.5 -29.5z" />
    <glyph glyph-name="ogonek" unicode="&#x2db;" 
d="M364 -117l-8 -55q-27 -14 -56 -14q-39 0 -67.5 23t-28.5 60q0 34 24 64q24 27 48 39h58q-38 -28 -47 -39q-23 -32 -23 -51q0 -40 52 -40q28 0 48 13z" />
    <glyph glyph-name="tilde" unicode="&#x2dc;" 
d="M138 497l-42 34q17 27 34 45q24 24 57 24q28 0 70 -20q38 -20 56 -20q19 0 29 12q13 15 21 31l41 -34q-7 -20 -26 -39q-29 -30 -66 -30q-25 0 -69 21q-41 19 -55 19q-15 0 -29 -14q-11 -11 -21 -29z" />
    <glyph glyph-name="hungarumlaut" unicode="&#x2dd;" 
d="M250 666l72 -32l-137 -136l-41 23zM384 666l70 -32l-135 -136l-41 23z" />
    <glyph glyph-name="acutecomb" unicode="&#x301;" horiz-adv-x="2" 
d="M-186 666l74 -34l-134 -135l-45 24z" />
    <glyph glyph-name="uni0394" unicode="&#x394;" horiz-adv-x="668" 
d="M640 0h-612l268 667h76zM334 574l-200 -504h400z" />
    <glyph glyph-name="uni0394" unicode="&#x2206;" horiz-adv-x="668" 
d="M640 0h-612l268 667h76zM334 574l-200 -504h400z" />
    <glyph glyph-name="uni03A9" unicode="&#x3a9;" horiz-adv-x="668" 
d="M379 0v70q85 45 133 113q51 74 51 169q0 121 -76 197q-65 59 -153 59t-153 -59q-76 -70 -76 -197q0 -95 51 -169q48 -68 133 -113v-70h-260v70h179q-75 40 -121 103q-58 80 -58 186q0 148 92 237q82 82 213 82t213 -82q92 -89 92 -237q0 -106 -58 -186q-46 -63 -121 -103
h179v-70h-260z" />
    <glyph glyph-name="uni03A9" unicode="&#x2126;" horiz-adv-x="668" 
d="M379 0v70q85 45 133 113q51 74 51 169q0 121 -76 197q-65 59 -153 59t-153 -59q-76 -70 -76 -197q0 -95 51 -169q48 -68 133 -113v-70h-260v70h179q-75 40 -121 103q-58 80 -58 186q0 148 92 237q82 82 213 82t213 -82q92 -89 92 -237q0 -106 -58 -186q-46 -63 -121 -103
h179v-70h-260z" />
    <glyph glyph-name="pi" unicode="&#x3c0;" horiz-adv-x="538" 
d="M174 0h-72v349h-74v66h482v-66h-74v-349h-72v349h-190v-349z" />
    <glyph glyph-name="afii10023" unicode="&#x401;" horiz-adv-x="482" 
d="M432 667v-70h-272v-198h264v-70h-264v-259h272v-70h-346v667h346zM112 784q0 21 15 36t36 15t36 -15t15 -36t-15 -36t-36 -15t-36 15t-15 36zM302 784q0 21 15 36t36 15t36 -15t15 -36t-15 -36t-36 -15t-36 15t-15 36z" />
    <glyph glyph-name="afii10051" unicode="&#x402;" horiz-adv-x="646" 
d="M450 597h-202v-212q72 23 137 23q120 0 175 -67q44 -55 44 -147q0 -112 -70 -163q-49 -37 -134 -37q-28 0 -68 6v70q28 -6 63 -6q61 0 93 27q40 34 40 104q0 63 -28 97q-39 46 -122 46q-69 0 -130 -23v-315h-74v597h-160v70h436v-70z" />
    <glyph glyph-name="afii10052" unicode="&#x403;" horiz-adv-x="404" 
d="M86 0v667h304v-70h-230v-597h-74zM323 882l70 -45l-153 -117l-43 32z" />
    <glyph glyph-name="afii10053" unicode="&#x404;" horiz-adv-x="645" 
d="M595 612v-92q-36 36 -87 60q-60 28 -135 28q-101 0 -168.5 -65.5t-75.5 -162.5h386v-70h-389q0 -111 73 -181.5t175 -70.5q75 0 144 33q45 22 77 54v-92q-102 -65 -221 -65q-147 0 -235.5 96.5t-88.5 246.5q0 152 89.5 249.5t238.5 97.5q121 0 217 -66z" />
    <glyph glyph-name="afii10054" unicode="&#x405;" horiz-adv-x="518" 
d="M443 574l-59 -39q-14 30 -39 50q-27 23 -75 23q-51 0 -81.5 -28t-30.5 -75q0 -36 25 -58q20 -20 70 -42l64 -28q71 -31 103 -63q48 -48 48 -121q0 -92 -60 -148.5t-151 -56.5q-89 0 -145 54q-45 44 -62 118l72 20q7 -50 40 -85q37 -37 96 -37q65 0 99.5 38.5t34.5 93.5
q0 46 -33 78q-17 17 -80 46l-60 28q-58 26 -89 55q-46 44 -46 109q0 77 52.5 124.5t134.5 47.5q64 0 107 -30q42 -30 65 -74z" />
    <glyph glyph-name="afii10055" unicode="&#x406;" horiz-adv-x="246" 
d="M86 667h74v-667h-74v667z" />
    <glyph glyph-name="afii10056" unicode="&#x407;" horiz-adv-x="246" 
d="M86 667h74v-667h-74v667zM15 784q0 21 12.5 36t32.5 15t32.5 -15t12.5 -36t-12.5 -36t-32.5 -15t-32.5 15t-12.5 36zM141 784q0 21 12.5 36t32.5 15t32.5 -15t12.5 -36t-12.5 -36t-32.5 -15t-32.5 15t-12.5 36z" />
    <glyph glyph-name="afii10057" unicode="&#x408;" horiz-adv-x="306" 
d="M146 667h74v-480q0 -36 -1.5 -57.5t-11 -50.5t-28.5 -49q-39 -42 -106 -42q-76 0 -119 49l41 58q35 -37 76 -37q31 0 50 19q25 25 25 108v482z" />
    <glyph glyph-name="afii10058" unicode="&#x409;" horiz-adv-x="922" 
d="M154 667h406v-277h90q230 0 230 -188q0 -95 -58.5 -148.5t-157.5 -53.5h-178v597h-258v-358q0 -47 -1 -70.5t-15.5 -66t-43.5 -68.5q-43 -40 -114 -40q-16 0 -40 6v70q22 -6 37 -6q39 0 65 26q18 18 27 51t10 56.5t1 71.5v398zM560 320v-250h86q86 0 123 37q35 31 35 95
q0 72 -54 101q-31 17 -112 17h-78z" />
    <glyph glyph-name="afii10059" unicode="&#x40a;" horiz-adv-x="938" 
d="M160 667v-277h342v277h74v-277h90q230 0 230 -188q0 -95 -58.5 -148.5t-157.5 -53.5h-178v320h-342v-320h-74v667h74zM576 320v-250h86q86 0 123 37q35 31 35 95q0 72 -54 101q-31 17 -112 17h-78z" />
    <glyph glyph-name="afii10060" unicode="&#x40b;" horiz-adv-x="678" 
d="M450 597h-202v-196q93 7 138 7q119 0 165 -36q61 -47 61 -155v-217h-74v207q0 81 -40 110q-27 21 -116 21q-59 0 -134 -7v-331h-74v597h-160v70h436v-70z" />
    <glyph glyph-name="afii10061" unicode="&#x40c;" horiz-adv-x="568" 
d="M160 667v-286l284 286h100l-312 -311l322 -356h-102l-273 306l-19 -19v-287h-74v667h74zM366 882l70 -45l-153 -117l-43 32z" />
    <glyph glyph-name="afii10062" unicode="&#x40e;" horiz-adv-x="568" 
d="M8 667h90l208 -393l174 393h80l-301 -667h-80l85 186zM135 818l70 23q6 -19 18.5 -31.5t28 -17t23.5 -6t15 -1.5t15 1.5t23.5 6t28 17t18.5 31.5l70 -23q-3 -10 -11 -22.5t-25 -31t-48 -31t-71 -12.5t-71 12.5t-48 31t-25 31t-11 22.5z" />
    <glyph glyph-name="afii10145" unicode="&#x40f;" horiz-adv-x="658" 
d="M86 0v667h74v-597h338v597h74v-667h-208v-160h-70v160h-208z" />
    <glyph glyph-name="afii10017" unicode="&#x410;" horiz-adv-x="622" 
d="M532 0l-78 188h-284l-80 -188h-82l307 699l299 -699h-82zM199 258h226l-112 267z" />
    <glyph glyph-name="afii10018" unicode="&#x411;" horiz-adv-x="530" 
d="M86 0v667h331v-70h-257v-207h90q230 0 230 -188q0 -95 -58.5 -148.5t-157.5 -53.5h-178zM160 320v-250h86q86 0 123 37q35 31 35 95q0 72 -54 101q-31 17 -112 17h-78z" />
    <glyph glyph-name="afii10019" unicode="&#x412;" horiz-adv-x="530" 
d="M86 667h120q102 0 153 -42q60 -46 60 -138q0 -85 -66 -131q64 -17 95.5 -65t31.5 -103q0 -45 -19.5 -83t-48.5 -61q-54 -44 -160 -44h-166v667zM160 597v-223h56q15 0 29 1.5t33.5 8t34 17.5t24.5 33t10 51q0 31 -12 53.5t-27 33.5t-36 17t-32 7t-22 1h-58zM160 308v-238
h85q81 0 117 28q44 31 44 92q0 66 -57 98q-37 20 -113 20h-76z" />
    <glyph glyph-name="afii10020" unicode="&#x413;" horiz-adv-x="404" 
d="M86 0v667h304v-70h-230v-597h-74z" />
    <glyph glyph-name="afii10021" unicode="&#x414;" horiz-adv-x="640" 
d="M144 667h406v-597h76v-210h-70v140h-472v-140h-70v210q66 -4 106 90q24 61 24 175v332zM218 597v-262q0 -121 -24 -186q-17 -45 -51 -79h333v527h-258z" />
    <glyph glyph-name="afii10022" unicode="&#x415;" horiz-adv-x="482" 
d="M432 667v-70h-272v-198h264v-70h-264v-259h272v-70h-346v667h346z" />
    <glyph glyph-name="afii10024" unicode="&#x416;" horiz-adv-x="810" 
d="M368 667h74v-286l254 286h92l-280 -311l288 -356h-94l-244 305l-16 -18v-287h-74v287l-16 18l-244 -305h-94l288 356l-280 311h92l254 -286v286z" />
    <glyph glyph-name="afii10025" unicode="&#x417;" horiz-adv-x="576" 
d="M157 536l-57 45q64 97 191 97q91 0 141 -47q52 -48 52 -123q0 -49 -25.5 -85.5t-66.5 -55.5q65 -15 99.5 -62t34.5 -110q0 -104 -83 -163q-65 -44 -152 -44q-92 0 -151 45.5t-90 114.5l72 32q20 -57 66 -89.5t106 -32.5q61 0 102 28q54 39 54 107q0 131 -178 131h-60v70
h60q66 0 101 32t35 81q0 43 -27 70q-31 31 -90 31q-85 0 -134 -72z" />
    <glyph glyph-name="afii10026" unicode="&#x418;" horiz-adv-x="710" 
d="M550 0v509l-464 -539v697h74v-511l464 539v-695h-74z" />
    <glyph glyph-name="afii10027" unicode="&#x419;" horiz-adv-x="710" 
d="M550 0v509l-464 -539v697h74v-511l464 539v-695h-74zM200 818l70 23q6 -19 18.5 -31.5t28 -17t23.5 -6t15 -1.5t15 1.5t23.5 6t28 17t18.5 31.5l70 -23q-3 -10 -11 -22.5t-25 -31t-48 -31t-71 -12.5t-71 12.5t-48 31t-25 31t-11 22.5z" />
    <glyph glyph-name="afii10028" unicode="&#x41a;" horiz-adv-x="568" 
d="M160 667v-286l284 286h100l-312 -311l322 -356h-102l-273 306l-19 -19v-287h-74v667h74z" />
    <glyph glyph-name="afii10029" unicode="&#x41b;" horiz-adv-x="646" 
d="M154 667h406v-667h-74v597h-258v-358q0 -47 -1 -70.5t-15.5 -66t-43.5 -68.5q-43 -40 -114 -40q-16 0 -40 6v70q22 -6 37 -6q39 0 65 26q18 18 27 51t10 56.5t1 71.5v398z" />
    <glyph glyph-name="afii10030" unicode="&#x41c;" horiz-adv-x="863" 
d="M139 0h-76l111 704l256 -563l261 564l104 -705h-76l-63 464l-227 -492l-224 492z" />
    <glyph glyph-name="afii10031" unicode="&#x41d;" horiz-adv-x="662" 
d="M160 667v-271h342v271h74v-667h-74v326h-342v-326h-74v667h74z" />
    <glyph glyph-name="afii10032" unicode="&#x41e;" horiz-adv-x="794" 
d="M397 -12q-146 0 -246.5 99t-100.5 246q0 148 101 246.5t246 98.5t246 -98.5t101 -246.5q0 -147 -100.5 -246t-246.5 -99zM397 608q-113 0 -192 -80t-79 -195t79 -195t192 -80q112 0 191.5 80.5t79.5 194.5t-79.5 194.5t-191.5 80.5z" />
    <glyph glyph-name="afii10033" unicode="&#x41f;" horiz-adv-x="662" 
d="M86 667h490v-667h-74v597h-342v-597h-74v667z" />
    <glyph glyph-name="afii10034" unicode="&#x420;" horiz-adv-x="456" 
d="M86 667h121q114 0 168 -47q61 -54 61 -143q0 -78 -52.5 -132.5t-158.5 -54.5h-65v-290h-74v667zM160 597v-237h61q66 0 103.5 32t37.5 89q0 116 -147 116h-55z" />
    <glyph glyph-name="afii10035" unicode="&#x421;" horiz-adv-x="646" 
d="M596 612v-92q-41 41 -87 62q-57 26 -115 26q-115 0 -191.5 -80.5t-76.5 -197.5q0 -126 83.5 -199t185.5 -73q67 0 124 31q41 20 77 56v-92q-92 -65 -201 -65q-148 0 -246.5 99t-98.5 244q0 150 99.5 248.5t249.5 98.5q110 0 197 -66z" />
    <glyph glyph-name="afii10036" unicode="&#x422;" horiz-adv-x="426" 
d="M412 597h-162v-597h-74v597h-162v70h398v-70z" />
    <glyph glyph-name="afii10037" unicode="&#x423;" horiz-adv-x="568" 
d="M8 667h90l208 -393l174 393h80l-301 -667h-80l85 186z" />
    <glyph glyph-name="afii10038" unicode="&#x424;" horiz-adv-x="822" 
d="M374 0v94h-18q-71 0 -126.5 17t-88.5 43t-54.5 62t-29 69.5t-7.5 68.5t7.5 68.5t29 69.5t54.5 62t88.5 43t126.5 17h18v80h74v-80h18q71 0 126.5 -17t88.5 -43t54.5 -62t29 -69.5t7.5 -68.5t-7.5 -68.5t-29 -69.5t-54.5 -62t-88.5 -43t-126.5 -17h-18v-94h-74zM374 164
v380h-20q-65 0 -112 -17t-71 -46.5t-34.5 -60.5t-10.5 -66t10.5 -66t34.5 -60.5t71 -46.5t112 -17h20zM448 544v-380h20q65 0 112 17t71 46.5t34.5 60.5t10.5 66t-10.5 66t-34.5 60.5t-71 46.5t-112 17h-20z" />
    <glyph glyph-name="afii10039" unicode="&#x425;" horiz-adv-x="504" 
d="M14 0l197 345l-179 322h84l138 -251l142 251h84l-183 -322l193 -345h-84l-153 274l-155 -274h-84z" />
    <glyph glyph-name="afii10040" unicode="&#x426;" horiz-adv-x="662" 
d="M86 0v667h74v-597h338v597h74v-597h76v-210h-70v140h-492z" />
    <glyph glyph-name="afii10041" unicode="&#x427;" horiz-adv-x="590" 
d="M430 0v286q-93 -7 -138 -7q-119 0 -165 36q-61 47 -61 155v197h74v-187q0 -81 40 -110q27 -21 116 -21q59 0 134 7v311h74v-667h-74z" />
    <glyph glyph-name="afii10042" unicode="&#x428;" horiz-adv-x="922" 
d="M86 0v667h74v-597h264v597h74v-597h264v597h74v-667h-750z" />
    <glyph glyph-name="afii10043" unicode="&#x429;" horiz-adv-x="926" 
d="M86 0v667h74v-597h264v597h74v-597h264v597h74v-597h76v-210h-70v140h-756z" />
    <glyph glyph-name="afii10044" unicode="&#x42a;" horiz-adv-x="610" 
d="M174 0v597h-160v70h234v-277h90q230 0 230 -188q0 -95 -58.5 -148.5t-157.5 -53.5h-178zM248 320v-250h86q86 0 123 37q35 31 35 95q0 72 -54 101q-31 17 -112 17h-78z" />
    <glyph glyph-name="afii10045" unicode="&#x42b;" horiz-adv-x="710" 
d="M86 0v667h74v-277h90q230 0 230 -188q0 -95 -58.5 -148.5t-157.5 -53.5h-178zM160 320v-250h86q86 0 123 37q35 31 35 95q0 72 -54 101q-31 17 -112 17h-78zM550 667h74v-667h-74v667z" />
    <glyph glyph-name="afii10046" unicode="&#x42c;" horiz-adv-x="522" 
d="M86 0v667h74v-277h90q230 0 230 -188q0 -95 -58.5 -148.5t-157.5 -53.5h-178zM160 320v-250h86q86 0 123 37q35 31 35 95q0 72 -54 101q-31 17 -112 17h-78z" />
    <glyph glyph-name="afii10047" unicode="&#x42d;" horiz-adv-x="645" 
d="M50 520v92q96 66 217 66q149 0 238.5 -97.5t89.5 -249.5q0 -150 -88.5 -246.5t-235.5 -96.5q-119 0 -221 65v92q32 -32 77 -54q69 -33 144 -33q102 0 175 70.5t73 181.5h-389v70h386q-8 97 -75.5 162.5t-168.5 65.5q-75 0 -135 -28q-51 -24 -87 -60z" />
    <glyph glyph-name="afii10048" unicode="&#x42e;" horiz-adv-x="990" 
d="M160 389h102q18 125 111.5 207t225.5 82q148 0 244.5 -97t96.5 -248q0 -149 -97 -247t-244 -98q-145 0 -239.5 97t-100.5 234h-99v-319h-74v667h74v-278zM599 608q-111 0 -187.5 -79t-76.5 -196t76.5 -196t187.5 -79q112 0 188.5 79t76.5 196t-76.5 196t-188.5 79z" />
    <glyph glyph-name="afii10049" unicode="&#x42f;" horiz-adv-x="510" 
d="M30 0l196 296q-68 7 -112 42q-58 47 -58 136q0 80 46 133q52 60 166 60h156v-667h-74v292h-40l-190 -292h-90zM350 597h-72q-80 0 -114 -35q-32 -32 -32 -86q0 -59 38 -90q34 -28 102 -28h78v239z" />
    <glyph glyph-name="afii10065" unicode="&#x430;" horiz-adv-x="526" 
d="M386 356v59h72v-415h-72v58q-52 -70 -142 -70q-84 0 -143 58t-59 162q0 102 58.5 159.5t143.5 57.5q87 0 142 -69zM252 361q-57 0 -96.5 -40.5t-39.5 -112.5q0 -68 36.5 -112t99.5 -44q64 0 101 45t37 110q0 74 -42 114t-96 40z" />
    <glyph glyph-name="afii10066" unicode="&#x431;" horiz-adv-x="524" 
d="M388 700h80q-11 -37 -37.5 -62.5t-48 -34.5t-50.5 -16q-5 -1 -24 -5.5t-29 -7.5l-26 -8t-29 -12t-24 -15q-38 -29 -61.5 -80.5t-25.5 -109.5h2q44 76 151 76q93 0 154.5 -63t61.5 -156q0 -94 -63 -156t-164 -62q-87 0 -143 52q-70 64 -70 214q0 260 118 342q9 6 19 11.5
t21.5 10t19.5 8t22.5 7t20 5t22 5t20.5 4.5q40 9 58 21.5t25 31.5zM262 361q-61 0 -103.5 -41.5t-42.5 -113.5t43 -113t103 -41t103 41.5t43 112.5q0 72 -42.5 113.5t-103.5 41.5z" />
    <glyph glyph-name="afii10067" unicode="&#x432;" horiz-adv-x="430" 
d="M68 415h157q57 0 87 -24q36 -29 36 -78q0 -54 -45 -83q31 -8 52 -28q33 -31 33 -80q0 -58 -43 -94q-37 -28 -98 -28h-179v415zM140 246h76q29 0 46 12q20 18 20 43t-20 40q-15 10 -58 10h-64v-105zM140 64h89q45 0 65 14q24 20 24 46q0 30 -21 47q-19 15 -65 15h-92v-122
z" />
    <glyph glyph-name="afii10068" unicode="&#x433;" horiz-adv-x="318" 
d="M68 0v415h246v-66h-174v-349h-72z" />
    <glyph glyph-name="afii10069" unicode="&#x434;" horiz-adv-x="460" 
d="M98 415h292v-349h62v-176h-66v110h-316v-110h-66v176q50 1 77 54q17 33 17 110v185zM318 66v283h-148v-156q0 -82 -50 -127h198z" />
    <glyph glyph-name="afii10070" unicode="&#x435;" horiz-adv-x="481" 
d="M376 139l60 -33q-21 -40 -51 -67q-57 -51 -138 -51q-84 0 -144.5 54.5t-60.5 162.5q0 95 55 157.5t146 62.5q104 0 157 -76q44 -60 39 -156h-323q0 -62 38.5 -101.5t93.5 -39.5q49 0 85 30q28 24 43 57zM121 253h244q-9 49 -42.5 78.5t-79.5 29.5t-80 -30.5t-42 -77.5z
" />
    <glyph glyph-name="afii10072" unicode="&#x436;" horiz-adv-x="596" 
d="M262 415h72v-170l156 170h84l-180 -192l198 -223h-90l-154 175l-14 -14v-161h-72v161l-14 14l-154 -175h-90l198 223l-180 192h84l156 -170v170z" />
    <glyph glyph-name="afii10073" unicode="&#x437;" horiz-adv-x="422" 
d="M122 309l-50 41q28 37 53 52q39 23 91 23q65 0 98 -29q36 -31 36 -79q0 -58 -47 -87q28 -7 48 -27q29 -32 29 -76q0 -68 -54 -107q-43 -32 -118 -32q-66 0 -111 35q-36 29 -55 71l62 26q10 -27 37 -47q28 -21 68 -21q45 0 70 16q29 17 29 58q0 33 -25 48q-20 14 -68 14
h-42v66h35q35 0 54 11q22 14 22 38q0 28 -18 43q-17 15 -53 15q-31 0 -57 -16q-21 -13 -34 -36z" />
    <glyph glyph-name="afii10074" unicode="&#x438;" horiz-adv-x="492" 
d="M68 415h72v-274l284 306v-447h-72v277l-284 -306v444z" />
    <glyph glyph-name="afii10075" unicode="&#x439;" horiz-adv-x="492" 
d="M68 415h72v-274l284 306v-447h-72v277l-284 -306v444zM105 594l60 23q19 -60 85 -60t85 60l60 -23q-16 -45 -54 -71t-91 -26t-91 26t-54 71z" />
    <glyph glyph-name="afii10076" unicode="&#x43a;" horiz-adv-x="422" 
d="M68 415h72v-170l168 170h88l-180 -185l202 -230h-94l-162 182l-22 -21v-161h-72v415z" />
    <glyph glyph-name="afii10077" unicode="&#x43b;" horiz-adv-x="450" 
d="M382 415v-415h-72v349h-148v-187q0 -81 -32 -120q-36 -44 -100 -44q-8 0 -22 2v66q14 -2 16 -2q35 0 52 27q14 22 14 71v253h292z" />
    <glyph glyph-name="afii10078" unicode="&#x43c;" horiz-adv-x="580" 
d="M20 0l100 447l172 -338l168 338l100 -447h-74l-55 257l-141 -286l-143 286l-53 -257h-74z" />
    <glyph glyph-name="afii10079" unicode="&#x43d;" horiz-adv-x="476" 
d="M68 0v415h72v-170h196v170h72v-415h-72v179h-196v-179h-72z" />
    <glyph glyph-name="afii10080" unicode="&#x43e;" horiz-adv-x="524" 
d="M262 -12q-95 0 -157.5 62t-62.5 156t62.5 156.5t157.5 62.5t157.5 -62.5t62.5 -156.5t-62.5 -156t-157.5 -62zM262 361q-61 0 -103.5 -41.5t-42.5 -113.5t43 -113t103 -41t103 41.5t43 112.5q0 72 -42.5 113.5t-103.5 41.5z" />
    <glyph glyph-name="afii10081" unicode="&#x43f;" horiz-adv-x="470" 
d="M68 415h334v-415h-72v349h-190v-349h-72v415z" />
    <glyph glyph-name="afii10082" unicode="&#x440;" horiz-adv-x="526" 
d="M140 58v-288h-72v645h72v-58q53 68 142 68q93 0 147.5 -65.5t54.5 -154.5q0 -90 -54.5 -153.5t-144.5 -63.5q-91 0 -145 70zM275 52q61 0 98 44t37 109q0 72 -41 114t-95 42q-55 0 -96.5 -42t-41.5 -113q0 -65 38.5 -109.5t100.5 -44.5z" />
    <glyph glyph-name="afii10083" unicode="&#x441;" horiz-adv-x="438" 
d="M393 385v-86q-50 62 -130 62q-61 0 -104 -41.5t-43 -113.5q0 -71 43.5 -112.5t102.5 -41.5q80 0 134 65v-86q-59 -43 -132 -43q-96 0 -159 62t-63 155q0 95 63 157.5t159 62.5q76 0 129 -40z" />
    <glyph glyph-name="afii10084" unicode="&#x442;" horiz-adv-x="348" 
d="M340 349h-130v-349h-72v349h-130v66h332v-66z" />
    <glyph glyph-name="afii10085" unicode="&#x443;" horiz-adv-x="460" 
d="M67 -230l132 269l-191 376h82l147 -297l135 297h80l-305 -645h-80z" />
    <glyph glyph-name="afii10086" unicode="&#x444;" horiz-adv-x="650" 
d="M289 -230v223q-110 0 -175 54q-72 59 -72 161t71 160q64 54 176 54v245h72v-245q112 0 176 -54q71 -58 71 -160t-72 -161q-65 -54 -175 -54v-223h-72zM289 57v301q-73 0 -111 -26q-62 -37 -62 -124q0 -82 58 -121q40 -30 115 -30zM361 358v-301q75 0 115 30q58 39 58 121
q0 87 -62 124q-38 26 -111 26z" />
    <glyph glyph-name="afii10087" unicode="&#x445;" horiz-adv-x="454" 
d="M8 0l177 222l-151 193h88l107 -141l109 141h88l-152 -194l172 -221h-88l-131 169l-131 -169h-88z" />
    <glyph glyph-name="afii10088" unicode="&#x446;" horiz-adv-x="474" 
d="M68 0v415h72v-349h186v349h72v-349h68v-176h-66v110h-332z" />
    <glyph glyph-name="afii10089" unicode="&#x447;" horiz-adv-x="430" 
d="M290 0v163q-61 -9 -98 -9q-68 0 -101 30q-35 31 -35 102v129h72v-119q0 -34 9 -49q14 -27 63 -27q44 0 90 9v186h72v-415h-72z" />
    <glyph glyph-name="afii10090" unicode="&#x448;" horiz-adv-x="672" 
d="M68 0v415h72v-349h160v349h72v-349h160v349h72v-415h-536z" />
    <glyph glyph-name="afii10091" unicode="&#x449;" horiz-adv-x="680" 
d="M68 0v415h72v-349h160v349h72v-349h160v349h72v-349h68v-176h-66v110h-538z" />
    <glyph glyph-name="afii10092" unicode="&#x44a;" horiz-adv-x="430" 
d="M98 0v349h-90v66h162v-159h74q85 0 126 -41q32 -32 32 -87q0 -60 -37 -93q-38 -35 -122 -35h-145zM170 64h67q47 0 64 11q27 21 27 53q0 36 -26 52q-19 12 -64 12h-68v-128z" />
    <glyph glyph-name="afii10093" unicode="&#x44b;" horiz-adv-x="562" 
d="M68 0v415h72v-159h74q85 0 126 -41q32 -32 32 -87q0 -60 -37 -93q-38 -35 -122 -35h-145zM140 64h67q47 0 64 11q27 21 27 53q0 36 -26 52q-19 12 -64 12h-68v-128zM422 0v415h72v-415h-72z" />
    <glyph glyph-name="afii10094" unicode="&#x44c;" horiz-adv-x="400" 
d="M68 0v415h72v-159h74q85 0 126 -41q32 -32 32 -87q0 -60 -37 -93q-38 -35 -122 -35h-145zM140 64h67q47 0 64 11q27 21 27 53q0 36 -26 52q-19 12 -64 12h-68v-128z" />
    <glyph glyph-name="afii10095" unicode="&#x44d;" horiz-adv-x="423" 
d="M42 334v70q53 21 113 21q106 0 166 -61t60 -159q0 -94 -61.5 -155.5t-159.5 -61.5q-62 0 -118 23v70q57 -29 117 -29q58 0 100 35.5t48 92.5h-219v64h219q-12 56 -52.5 86.5t-96.5 30.5q-61 0 -116 -27z" />
    <glyph glyph-name="afii10096" unicode="&#x44e;" horiz-adv-x="690" 
d="M140 245h75q10 72 56 118q57 62 157 62q96 0 158 -62.5t62 -156.5t-62.5 -156t-157.5 -62q-109 0 -171 78q-40 50 -46 113h-71v-179h-72v415h72v-170zM428 361q-60 0 -101.5 -41.5t-41.5 -113.5q0 -73 42 -113.5t101 -40.5q60 0 103 41.5t43 112.5q0 72 -42.5 113.5
t-103.5 41.5z" />
    <glyph glyph-name="afii10097" unicode="&#x44f;" horiz-adv-x="408" 
d="M20 0l129 171q-47 0 -80 33q-33 31 -33 83q0 59 37 93q38 35 122 35h145v-415h-72v167h-44l-118 -167h-86zM268 227v124h-67q-47 0 -65 -11q-26 -17 -26 -51q0 -33 26 -50q19 -12 64 -12h68z" />
    <glyph glyph-name="afii10071" unicode="&#x451;" horiz-adv-x="481" 
d="M376 139l60 -33q-21 -40 -51 -67q-57 -51 -138 -51q-84 0 -144.5 54.5t-60.5 162.5q0 95 55 157.5t146 62.5q104 0 157 -76q44 -60 39 -156h-323q0 -62 38.5 -101.5t93.5 -39.5q49 0 85 30q28 24 43 57zM121 253h244q-9 49 -42.5 78.5t-79.5 29.5t-80 -30.5t-42 -77.5z
M111 550q0 20 15 35t35 15t35 -15t15 -35t-15 -35t-35 -15t-35 15t-15 35zM285 550q0 20 15 35t35 15t35 -15t15 -35t-15 -35t-35 -15t-35 15t-15 35z" />
    <glyph glyph-name="afii10099" unicode="&#x452;" horiz-adv-x="470" 
d="M68 0v514h-68v60h68v155h72v-155h200v-60h-200v-187q48 58 119 58q80 0 119 -57q24 -35 24 -111v-303q0 -74 -32 -109q-35 -35 -91 -35q-30 0 -51 9v70q27 -9 47 -9q32 0 46 22q9 15 9 60v293q0 50 -19 76q-24 30 -68 30q-46 0 -73 -32q-30 -35 -30 -112v-177h-72z" />
    <glyph glyph-name="afii10100" unicode="&#x453;" horiz-adv-x="318" 
d="M68 0v415h246v-66h-174v-349h-72zM253 666l74 -34l-134 -135l-45 24z" />
    <glyph glyph-name="afii10101" unicode="&#x454;" horiz-adv-x="438" 
d="M393 385v-86q-54 62 -130 62q-52 0 -93.5 -31t-50.5 -86h217v-64h-218q6 -57 47.5 -92.5t96.5 -35.5q80 0 134 65v-86q-59 -43 -132 -43q-96 0 -159 62t-63 155q0 95 63 157.5t159 62.5q76 0 129 -40z" />
    <glyph glyph-name="afii10102" unicode="&#x455;" horiz-adv-x="352" 
d="M298 350l-59 -31q-19 42 -58 42q-22 0 -36 -12t-14 -35q0 -21 13 -31.5t54 -27.5q79 -33 104 -64q22 -27 22 -67q0 -63 -40.5 -99.5t-102.5 -36.5q-12 0 -25.5 2.5t-38.5 11t-47 32.5t-34 60l62 26q25 -68 84 -68q33 0 50.5 20t17.5 46q0 14 -4.5 24.5t-15 18.5t-20 13
t-27.5 13q-81 36 -101 61q-19 24 -19 61q0 54 33.5 85t87.5 31q81 0 114 -75z" />
    <glyph glyph-name="afii10103" unicode="&#x456;" horiz-adv-x="208" 
d="M68 415h72v-415h-72v415zM53 572q0 21 15 36t36 15t36 -15t15 -36t-15 -36t-36 -15t-36 15t-15 36z" />
    <glyph glyph-name="afii10104" unicode="&#x457;" horiz-adv-x="208" 
d="M68 415h72v-415h-72v415zM9 573q0 20 12.5 35t29.5 15t29.5 -15t12.5 -35t-12.5 -35t-29.5 -15t-29.5 15t-12.5 35zM115 573q0 20 12.5 35t29.5 15t29.5 -15t12.5 -35t-12.5 -35t-29.5 -15t-29.5 15t-12.5 35z" />
    <glyph glyph-name="afii10105" unicode="&#x458;" horiz-adv-x="208" 
d="M68 415h72v-645h-72v645zM53 572q0 21 15 36t36 15t36 -15t15 -36t-15 -36t-36 -15t-36 15t-15 36z" />
    <glyph glyph-name="afii10106" unicode="&#x459;" horiz-adv-x="642" 
d="M382 415v-159h74q85 0 126 -41q32 -32 32 -87q0 -60 -37 -93q-38 -35 -122 -35h-145v349h-148v-187q0 -81 -32 -120q-36 -44 -100 -44q-8 0 -22 2v66q14 -2 16 -2q35 0 52 27q14 22 14 71v253h292zM382 64h67q47 0 64 11q27 21 27 53q0 36 -26 52q-19 12 -64 12h-68v-128
z" />
    <glyph glyph-name="afii10107" unicode="&#x45a;" horiz-adv-x="668" 
d="M68 0v415h72v-157h196v157h72v-159h74q85 0 126 -41q32 -32 32 -87q0 -60 -37 -93q-38 -35 -122 -35h-145v192h-196v-192h-72zM408 64h67q47 0 64 11q27 21 27 53q0 36 -26 52q-19 12 -64 12h-68v-128z" />
    <glyph glyph-name="afii10108" unicode="&#x45b;" horiz-adv-x="470" 
d="M68 0v514h-68v60h68v155h72v-155h200v-60h-200v-187q48 58 119 58q80 0 119 -57q24 -35 24 -111v-217h-72v215q0 50 -19 76q-24 30 -68 30q-46 0 -73 -32q-30 -35 -30 -112v-177h-72z" />
    <glyph glyph-name="afii10109" unicode="&#x45c;" horiz-adv-x="422" 
d="M68 415h72v-170l168 170h88l-180 -185l202 -230h-94l-162 182l-22 -21v-161h-72v415zM274 666l74 -34l-134 -135l-45 24z" />
    <glyph glyph-name="afii10110" unicode="&#x45e;" horiz-adv-x="460" 
d="M67 -230l132 269l-191 376h82l147 -297l135 297h80l-305 -645h-80zM96 594l60 23q19 -60 85 -60t85 60l60 -23q-16 -45 -54 -71t-91 -26t-91 26t-54 71z" />
    <glyph glyph-name="afii10193" unicode="&#x45f;" horiz-adv-x="466" 
d="M68 0v415h72v-349h186v349h72v-415h-132v-120h-66v120h-132z" />
    <glyph glyph-name="afii10146" unicode="&#x462;" horiz-adv-x="610" 
d="M174 0v517h-160v70h160v107h74v-107h180v-70h-180v-127h90q230 0 230 -188q0 -95 -58.5 -148.5t-157.5 -53.5h-178zM248 320v-250h86q86 0 123 37q35 31 35 95q0 72 -54 101q-31 17 -112 17h-78z" />
    <glyph glyph-name="afii10194" unicode="&#x463;" horiz-adv-x="430" 
d="M8 415h90v252h72v-252h120v-66h-120v-93h74q85 0 126 -41q32 -32 32 -87q0 -60 -37 -93q-38 -35 -122 -35h-145v349h-90v66zM170 64h67q47 0 64 11q27 21 27 53q0 36 -26 52q-19 12 -64 12h-68v-128z" />
    <glyph glyph-name="afii10147" unicode="&#x472;" horiz-adv-x="792" 
d="M396 -12q-145 0 -245.5 99t-100.5 246q0 148 100.5 246.5t245.5 98.5t245.5 -98.5t100.5 -246.5q0 -147 -100.5 -246t-245.5 -99zM129 380h534q-17 105 -95.5 166.5t-171.5 61.5t-171.5 -61.5t-95.5 -166.5zM666 310h-540q10 -111 88.5 -181.5t181.5 -70.5t181.5 70.5
t88.5 181.5z" />
    <glyph glyph-name="afii10195" unicode="&#x473;" horiz-adv-x="524" 
d="M262 -12q-95 0 -157.5 62t-62.5 156t62.5 156.5t157.5 62.5t157.5 -62.5t62.5 -156.5t-62.5 -156t-157.5 -62zM120 244h284q-9 55 -50 86t-92 31t-92 -31t-50 -86zM406 180h-288q6 -57 48 -92.5t96 -35.5q55 0 96.5 35.5t47.5 92.5z" />
    <glyph glyph-name="afii10148" unicode="&#x474;" horiz-adv-x="556" 
d="M8 667h82l188 -509l188 509h82l-270 -707z" />
    <glyph glyph-name="afii10196" unicode="&#x475;" horiz-adv-x="424" 
d="M8 415h80l124 -280l124 280h80l-204 -442z" />
    <glyph glyph-name="afii10050" unicode="&#x490;" horiz-adv-x="404" 
d="M86 0v667h234v140h70v-210h-230v-597h-74z" />
    <glyph glyph-name="afii10098" unicode="&#x491;" horiz-adv-x="328" 
d="M68 0v415h180v110h66v-176h-174v-349h-72z" />
    <glyph glyph-name="uni0492" unicode="&#x492;" horiz-adv-x="404" 
d="M86 0v334h-86v66h86v267h304v-70h-230v-197h136v-66h-136v-334h-74z" />
    <glyph glyph-name="uni0493" unicode="&#x493;" horiz-adv-x="318" 
d="M68 0v188h-68v60h68v167h246v-66h-174v-101h100v-60h-100v-188h-72z" />
    <glyph glyph-name="uni0494" unicode="&#x494;" horiz-adv-x="558" 
d="M402 597h-242v-212q72 23 137 23q120 0 175 -67q44 -55 44 -147q0 -112 -70 -163q-49 -37 -134 -37q-28 0 -68 6v70q28 -6 63 -6q61 0 93 27q40 34 40 104q0 63 -28 97q-39 46 -122 46q-69 0 -130 -23v-315h-74v667h316v-70z" />
    <glyph glyph-name="uni0495" unicode="&#x495;" horiz-adv-x="430" 
d="M68 0v415h246v-66h-174v-113h30q110 0 167 -57q51 -53 51 -139q0 -109 -79 -182q-62 -57 -146 -66v70q54 7 96 48q53 50 53 131q0 66 -39 99q-34 30 -103 30h-30v-170h-72z" />
    <glyph glyph-name="uni0496" unicode="&#x496;" horiz-adv-x="810" 
d="M368 667h74v-286l254 286h92l-280 -311l231 -286h57v-210h-70v140h-24l-244 305l-16 -18v-287h-74v287l-16 18l-244 -305h-94l288 356l-280 311h92l254 -286v286z" />
    <glyph glyph-name="uni0497" unicode="&#x497;" horiz-adv-x="596" 
d="M262 415h72v-170l156 170h84l-180 -192l140 -157h58v-176h-66v110h-24l-154 175l-14 -14v-161h-72v161l-14 14l-154 -175h-90l198 223l-180 192h84l156 -170v170z" />
    <glyph glyph-name="uni0498" unicode="&#x498;" horiz-adv-x="576" 
d="M157 536l-57 45q32 47 78 72t109 25q98 0 149 -51q48 -44 48 -118q0 -51 -27 -89q-30 -38 -65 -53q52 -12 87 -47q47 -47 47 -122q0 -82 -56 -143q-57 -59 -142 -65v-150h-70v150q-78 7 -135 57q-49 42 -73 101l72 32q16 -42 47 -73q49 -49 128 -49q71 0 115 40
q38 38 38 99q0 53 -36 88q-46 39 -142 39h-60v70h60q68 0 101 31q35 31 35 82q0 43 -27 70q-31 31 -90 31q-52 0 -88 -25q-27 -17 -46 -47z" />
    <glyph glyph-name="uni0499" unicode="&#x499;" horiz-adv-x="422" 
d="M122 309l-50 41q28 37 53 52q37 23 95 23t94 -29q36 -31 36 -81q0 -31 -14 -54q-10 -19 -33 -31q28 -7 48 -27q29 -29 29 -77q0 -52 -38 -92q-39 -39 -95 -44v-110h-66v110q-47 4 -84 33q-33 27 -55 71l62 26q14 -30 37 -47q29 -21 68 -21q42 0 68 15q31 21 31 59
q0 32 -25 48q-22 14 -68 14h-42v66h35q38 0 54 11q22 15 22 39q0 27 -18 42t-56 15q-31 0 -54 -16q-23 -17 -34 -36z" />
    <glyph glyph-name="uni049A" unicode="&#x49a;" horiz-adv-x="568" 
d="M86 667h74v-286l284 286h100l-312 -311l259 -286h63v-210h-70v140h-32l-273 306l-19 -19v-287h-74v667z" />
    <glyph glyph-name="uni049B" unicode="&#x49b;" horiz-adv-x="422" 
d="M68 415h72v-170l168 170h88l-180 -185l144 -164h58v-176h-66v110h-28l-162 182l-22 -21v-161h-72v415z" />
    <glyph glyph-name="uni049C" unicode="&#x49c;" horiz-adv-x="644" 
d="M86 667h74v-291h80v140h66v-140l233 291h82l-255 -315l264 -352h-88l-236 310v-150h-66v150h-80v-310h-74v667z" />
    <glyph glyph-name="uni049D" unicode="&#x49d;" horiz-adv-x="450" 
d="M68 415h72v-170h50v100h60v-100l109 170h78l-131 -199l140 -216h-80l-116 185v-110h-60v110h-50v-185h-72v415z" />
    <glyph glyph-name="uni04A0" unicode="&#x4a0;" horiz-adv-x="656" 
d="M174 0v597h-160v70h234v-286l284 286h100l-312 -311l322 -356h-102l-273 306l-19 -19v-287h-74z" />
    <glyph glyph-name="uni04A1" unicode="&#x4a1;" horiz-adv-x="452" 
d="M98 0v349h-90v66h162v-170l168 170h88l-180 -185l202 -230h-94l-162 182l-22 -21v-161h-72z" />
    <glyph glyph-name="uni04A2" unicode="&#x4a2;" horiz-adv-x="666" 
d="M86 0v667h74v-271h342v271h74v-597h76v-210h-70v140h-80v326h-342v-326h-74z" />
    <glyph glyph-name="uni04A3" unicode="&#x4a3;" horiz-adv-x="484" 
d="M68 0v415h72v-170h196v170h72v-349h68v-176h-66v110h-74v179h-196v-179h-72z" />
    <glyph glyph-name="uni04A4" unicode="&#x4a4;" horiz-adv-x="820" 
d="M86 0v667h74v-271h342v271h304v-70h-230v-597h-74v326h-342v-326h-74z" />
    <glyph glyph-name="uni04A5" unicode="&#x4a5;" horiz-adv-x="586" 
d="M68 0v415h72v-170h196v170h246v-66h-174v-349h-72v179h-196v-179h-72z" />
    <glyph glyph-name="uni04AA" unicode="&#x4aa;" horiz-adv-x="646" 
d="M596 612v-92q-41 41 -87 62q-57 26 -115 26q-112 0 -190 -78t-78 -200q0 -117 76 -193q79 -79 193 -79q59 0 114 26q44 20 87 61v-92q-61 -48 -163 -63v-150h-70v150q-127 6 -217 99q-96 96 -96 242q0 143 94 244q98 103 255 103q111 0 197 -66z" />
    <glyph glyph-name="uni04AB" unicode="&#x4ab;" horiz-adv-x="438" 
d="M393 385v-86q-51 62 -130 62q-63 0 -106 -43q-41 -41 -41 -112q0 -64 36 -105q43 -49 113 -49q76 0 131 65v-86q-44 -35 -94 -40v-111h-66v110q-80 6 -135 61q-59 59 -59 153q0 96 61 157q64 64 164 64q69 0 126 -40z" />
    <glyph glyph-name="uni04AE" unicode="&#x4ae;" horiz-adv-x="530" 
d="M227 0v287l-219 380h86l170 -298l172 298h86l-221 -380v-287h-74z" />
    <glyph glyph-name="uni04AF" unicode="&#x4af;" horiz-adv-x="424" 
d="M8 415h80l124 -280l124 280h80l-168 -364v-281h-72v281z" />
    <glyph glyph-name="uni04B0" unicode="&#x4b0;" horiz-adv-x="530" 
d="M227 0v221h-190v66h190l-219 380h86l170 -298l172 298h86l-221 -380h190v-66h-190v-221h-74z" />
    <glyph glyph-name="uni04B1" unicode="&#x4b1;" horiz-adv-x="424" 
d="M8 415h80l124 -280l124 280h80l-168 -364v-51h120v-66h-120v-164h-72v164h-120v66h120v51z" />
    <glyph glyph-name="uni04B2" unicode="&#x4b2;" horiz-adv-x="520" 
d="M14 0l197 345l-179 322h84l138 -251l142 251h84l-183 -322l154 -275h55v-210h-70v140h-30l-153 274l-155 -274h-84z" />
    <glyph glyph-name="uni04B3" unicode="&#x4b3;" horiz-adv-x="454" 
d="M8 0l177 222l-151 193h88l107 -141l109 141h88l-152 -194l121 -155h51v-176h-66v110h-22l-131 169l-131 -169h-88z" />
    <glyph glyph-name="uni04B6" unicode="&#x4b6;" horiz-adv-x="594" 
d="M430 0v286q-93 -7 -138 -7q-119 0 -165 36q-61 47 -61 155v197h74v-187q0 -81 40 -110q27 -21 116 -21q59 0 134 7v311h74v-597h76v-210h-70v140h-80z" />
    <glyph glyph-name="uni04B7" unicode="&#x4b7;" horiz-adv-x="438" 
d="M290 0v163q-61 -9 -98 -9q-68 0 -101 30q-35 31 -35 102v129h72v-119q0 -34 9 -49q14 -27 63 -27q44 0 90 9v186h72v-349h68v-176h-66v110h-74z" />
    <glyph glyph-name="uni04B8" unicode="&#x4b8;" horiz-adv-x="620" 
d="M460 0v286q-15 -1 -116 -6v-140h-66v139q-105 0 -151 36q-61 47 -61 155v197h74v-187q0 -81 40 -110q28 -21 98 -21v147h66v-146q109 5 116 6v311h74v-667h-74z" />
    <glyph glyph-name="uni04B9" unicode="&#x4b9;" horiz-adv-x="460" 
d="M320 0v163q-30 -6 -64 -6v-102h-60v99q-25 -2 -56 6t-49 24q-35 30 -35 102v129h72v-119q0 -35 9 -49q17 -28 59 -26v104h60v-103q29 0 64 7v186h72v-415h-72z" />
    <glyph glyph-name="uni04BA" unicode="&#x4ba;" horiz-adv-x="590" 
d="M160 667v-266q93 7 138 7q119 0 165 -36q61 -47 61 -155v-217h-74v207q0 81 -40 110q-27 21 -116 21q-59 0 -134 -7v-331h-74v667h74z" />
    <glyph glyph-name="uni04BB" unicode="&#x4bb;" horiz-adv-x="470" 
d="M68 0v729h72v-362q48 58 119 58q80 0 119 -57q24 -35 24 -111v-257h-72v255q0 50 -19 76q-24 30 -68 30q-46 0 -73 -32q-30 -35 -30 -112v-217h-72z" />
    <glyph glyph-name="uni04C0" unicode="&#x4c0;" horiz-adv-x="246" 
d="M86 667h74v-667h-74v667z" />
    <glyph glyph-name="uni04C1" unicode="&#x4c1;" horiz-adv-x="810" 
d="M368 667h74v-286l254 286h92l-280 -311l288 -356h-94l-244 305l-16 -18v-287h-74v287l-16 18l-244 -305h-94l288 356l-280 311h92l254 -286v286zM250 818l70 23q6 -19 18.5 -31.5t28 -17t23.5 -6t15 -1.5t15 1.5t23.5 6t28 17t18.5 31.5l70 -23q-3 -10 -11 -22.5t-25 -31
t-48 -31t-71 -12.5t-71 12.5t-48 31t-25 31t-11 22.5z" />
    <glyph glyph-name="uni04C2" unicode="&#x4c2;" horiz-adv-x="596" 
d="M262 415h72v-170l156 170h84l-180 -192l198 -223h-90l-154 175l-14 -14v-161h-72v161l-14 14l-154 -175h-90l198 223l-180 192h84l156 -170v170zM153 594l60 23q19 -60 85 -60t85 60l60 -23q-16 -45 -54 -71t-91 -26t-91 26t-54 71z" />
    <glyph glyph-name="uni04C3" unicode="&#x4c3;" horiz-adv-x="584" 
d="M86 667h74v-306l284 306h100l-260 -272q121 0 182 -61q76 -72 76 -226q0 -143 -67 -212q-56 -56 -151 -56q-58 0 -111 21l21 71q38 -22 86 -22q59 0 96 33q51 51 51 158q0 137 -70 193q-46 36 -123 36q-55 0 -114 -13v-317h-74v667z" />
    <glyph glyph-name="uni04C4" unicode="&#x4c4;" horiz-adv-x="414" 
d="M68 415h72v-170l168 170h88l-182 -185q77 -5 123 -51q51 -51 51 -135q0 -113 -79 -186q-62 -57 -146 -66v70q54 7 96 48q53 51 53 128q0 69 -39 102q-34 30 -103 30h-30v-170h-72v415z" />
    <glyph glyph-name="uni04C7" unicode="&#x4c7;" horiz-adv-x="662" 
d="M86 0v667h74v-271h342v271h74v-753q0 -79 -34 -113q-31 -31 -89 -31q-29 0 -53 9v72q19 -9 42 -9q28 0 44 13q16 16 16 55v416h-342v-326h-74z" />
    <glyph glyph-name="uni04C8" unicode="&#x4c8;" horiz-adv-x="476" 
d="M68 0v415h72v-170h196v170h72v-501q0 -74 -32 -109q-35 -35 -91 -35q-30 0 -51 9v70q27 -9 47 -9q32 0 46 22q9 15 9 60v257h-196v-179h-72z" />
    <glyph glyph-name="uni04D0" unicode="&#x4d0;" horiz-adv-x="622" 
d="M532 0l-78 188h-284l-80 -188h-82l307 699l299 -699h-82zM199 258h226l-112 267zM160 818l70 23q6 -19 18.5 -31.5t28 -17t23.5 -6t15 -1.5t15 1.5t23.5 6t28 17t18.5 31.5l70 -23q-3 -10 -11 -22.5t-25 -31t-48 -31t-71 -12.5t-71 12.5t-48 31t-25 31t-11 22.5z" />
    <glyph glyph-name="uni04D1" unicode="&#x4d1;" horiz-adv-x="526" 
d="M386 356v59h72v-415h-72v58q-52 -70 -142 -70q-84 0 -143 58t-59 162q0 102 58.5 159.5t143.5 57.5q87 0 142 -69zM252 361q-57 0 -96.5 -40.5t-39.5 -112.5q0 -68 36.5 -112t99.5 -44q64 0 101 45t37 110q0 74 -42 114t-96 40zM109 594l60 23q19 -60 85 -60t85 60
l60 -23q-16 -45 -54 -71t-91 -26t-91 26t-54 71z" />
    <glyph glyph-name="uni04D2" unicode="&#x4d2;" horiz-adv-x="622" 
d="M532 0l-78 188h-284l-80 -188h-82l307 699l299 -699h-82zM199 258h226l-112 267zM169 784q0 21 15 36t36 15t36 -15t15 -36t-15 -36t-36 -15t-36 15t-15 36zM359 784q0 21 15 36t36 15t36 -15t15 -36t-15 -36t-36 -15t-36 15t-15 36z" />
    <glyph glyph-name="uni04D3" unicode="&#x4d3;" horiz-adv-x="526" 
d="M386 356v59h72v-415h-72v58q-52 -70 -142 -70q-84 0 -143 58t-59 162q0 102 58.5 159.5t143.5 57.5q87 0 142 -69zM252 361q-57 0 -96.5 -40.5t-39.5 -112.5q0 -68 36.5 -112t99.5 -44q64 0 101 45t37 110q0 74 -42 114t-96 40zM104 550q0 20 15 35t35 15t35 -15t15 -35
t-15 -35t-35 -15t-35 15t-15 35zM278 550q0 20 15 35t35 15t35 -15t15 -35t-15 -35t-35 -15t-35 15t-15 35z" />
    <glyph glyph-name="uni04D4" unicode="&#x4d4;" horiz-adv-x="900" 
d="M538 0l-79 187h-284l-79 -187h-82l297 667h293l29 -70h-269l83 -198h264l29 -70h-262l108 -259h271l29 -70h-270h-78zM207 257h223l-110 261z" />
    <glyph glyph-name="uni04D5" unicode="&#x4d5;" horiz-adv-x="774" 
d="M667 140l60 -36q-63 -116 -187 -116q-106 0 -163 83q-48 -83 -156 -83q-77 0 -128 35t-51 100t49 101t124 36q70 0 119 -35q2 52 -19 88q-28 48 -99 48q-50 0 -128 -26v68q65 22 129 22q114 0 157 -84q52 84 160 84q91 0 144.5 -61.5t53.5 -163.5v-7h-324
q2 -62 39.5 -101.5t91.5 -39.5q42 0 75.5 24.5t52.5 63.5zM413 253h245q-7 50 -41 79t-82 29q-46 0 -80 -29t-42 -79zM221 196q-52 0 -79.5 -20.5t-27.5 -52.5q0 -28 24 -49.5t81 -21.5t84 22.5t27 51.5q0 26 -27 48t-82 22z" />
    <glyph glyph-name="uni04D6" unicode="&#x4d6;" horiz-adv-x="482" 
d="M432 667v-70h-272v-198h264v-70h-264v-259h272v-70h-346v667h346zM105 818l70 23q6 -19 18.5 -31.5t28 -17t23.5 -6t15 -1.5t15 1.5t23.5 6t28 17t18.5 31.5l70 -23q-3 -10 -11 -22.5t-25 -31t-48 -31t-71 -12.5t-71 12.5t-48 31t-25 31t-11 22.5z" />
    <glyph glyph-name="uni04D7" unicode="&#x4d7;" horiz-adv-x="481" 
d="M376 139l60 -33q-21 -40 -51 -67q-57 -51 -138 -51q-84 0 -144.5 54.5t-60.5 162.5q0 95 55 157.5t146 62.5q104 0 157 -76q44 -60 39 -156h-323q0 -62 38.5 -101.5t93.5 -39.5q49 0 85 30q28 24 43 57zM121 253h244q-9 49 -42.5 78.5t-79.5 29.5t-80 -30.5t-42 -77.5z
M97 594l60 23q19 -60 85 -60t85 60l60 -23q-16 -45 -54 -71t-91 -26t-91 26t-54 71z" />
    <glyph glyph-name="uni04D8" unicode="&#x4d8;" horiz-adv-x="756" 
d="M132 483l-55 50q32 46 77 79q84 66 204 66q149 0 248.5 -99t99.5 -246t-98.5 -246t-245.5 -99q-82 0 -146.5 34t-101.5 86q-64 85 -64 211v16h580q0 114 -77 193.5t-196 79.5q-96 0 -162 -56q-35 -28 -63 -69zM623 265h-497q4 -54 27 -95q30 -52 84 -82t120 -30
q96 0 171 58.5t95 148.5z" />
    <glyph glyph-name="afii10846" unicode="&#x4d9;" horiz-adv-x="482" 
d="M105 274l-60 33q21 40 51 67q56 51 138 51q84 0 145 -55t61 -162q0 -95 -55 -157.5t-147 -62.5q-105 0 -158 76q-45 64 -38 156h324q0 62 -39 101.5t-94 39.5q-51 0 -85 -30q-28 -24 -43 -57zM360 160h-244q8 -49 41 -78.5t81 -29.5q46 0 80 30.5t42 77.5z" />
    <glyph glyph-name="uni04DA" unicode="&#x4da;" horiz-adv-x="756" 
d="M132 483l-55 50q32 46 77 79q84 66 204 66q149 0 248.5 -99t99.5 -246t-98.5 -246t-245.5 -99q-82 0 -146.5 34t-101.5 86q-64 85 -64 211v16h580q0 114 -77 193.5t-196 79.5q-96 0 -162 -56q-35 -28 -63 -69zM623 265h-497q4 -54 27 -95q30 -52 84 -82t120 -30
q96 0 171 58.5t95 148.5zM214 784q0 21 15 36t36 15t36 -15t15 -36t-15 -36t-36 -15t-36 15t-15 36zM404 784q0 21 15 36t36 15t36 -15t15 -36t-15 -36t-36 -15t-36 15t-15 36z" />
    <glyph glyph-name="uni04DB" unicode="&#x4db;" horiz-adv-x="482" 
d="M105 274l-60 33q21 40 51 67q56 51 138 51q84 0 145 -55t61 -162q0 -95 -55 -157.5t-147 -62.5q-105 0 -158 76q-45 64 -38 156h324q0 62 -39 101.5t-94 39.5q-51 0 -85 -30q-28 -24 -43 -57zM360 160h-244q8 -49 41 -78.5t81 -29.5q46 0 80 30.5t42 77.5zM106 550
q0 20 15 35t35 15t35 -15t15 -35t-15 -35t-35 -15t-35 15t-15 35zM280 550q0 20 15 35t35 15t35 -15t15 -35t-15 -35t-35 -15t-35 15t-15 35z" />
    <glyph glyph-name="uni04DC" unicode="&#x4dc;" horiz-adv-x="810" 
d="M368 667h74v-286l254 286h92l-280 -311l288 -356h-94l-244 305l-16 -18v-287h-74v287l-16 18l-244 -305h-94l288 356l-280 311h92l254 -286v286zM259 784q0 21 15 36t36 15t36 -15t15 -36t-15 -36t-36 -15t-36 15t-15 36zM449 784q0 21 15 36t36 15t36 -15t15 -36
t-15 -36t-36 -15t-36 15t-15 36z" />
    <glyph glyph-name="uni04DD" unicode="&#x4dd;" horiz-adv-x="596" 
d="M262 415h72v-170l156 170h84l-180 -192l198 -223h-90l-154 175l-14 -14v-161h-72v161l-14 14l-154 -175h-90l198 223l-180 192h84l156 -170v170zM161 550q0 20 15 35t35 15t35 -15t15 -35t-15 -35t-35 -15t-35 15t-15 35zM335 550q0 20 15 35t35 15t35 -15t15 -35
t-15 -35t-35 -15t-35 15t-15 35z" />
    <glyph glyph-name="uni04DE" unicode="&#x4de;" horiz-adv-x="576" 
d="M157 536l-57 45q64 97 191 97q91 0 141 -47q52 -48 52 -123q0 -49 -25.5 -85.5t-66.5 -55.5q65 -15 99.5 -62t34.5 -110q0 -104 -83 -163q-65 -44 -152 -44q-92 0 -151 45.5t-90 114.5l72 32q20 -57 66 -89.5t106 -32.5q61 0 102 28q54 39 54 107q0 131 -178 131h-60v70
h60q66 0 101 32t35 81q0 43 -27 70q-31 31 -90 31q-85 0 -134 -72zM144 784q0 21 15 36t36 15t36 -15t15 -36t-15 -36t-36 -15t-36 15t-15 36zM334 784q0 21 15 36t36 15t36 -15t15 -36t-15 -36t-36 -15t-36 15t-15 36z" />
    <glyph glyph-name="uni04DF" unicode="&#x4df;" horiz-adv-x="422" 
d="M122 309l-50 41q28 37 53 52q39 23 91 23q65 0 98 -29q36 -31 36 -79q0 -58 -47 -87q28 -7 48 -27q29 -32 29 -76q0 -68 -54 -107q-43 -32 -118 -32q-66 0 -111 35q-36 29 -55 71l62 26q10 -27 37 -47q28 -21 68 -21q45 0 70 16q29 17 29 58q0 33 -25 48q-20 14 -68 14
h-42v66h35q35 0 54 11q22 14 22 38q0 28 -18 43q-17 15 -53 15q-31 0 -57 -16q-21 -13 -34 -36zM84 550q0 20 15 35t35 15t35 -15t15 -35t-15 -35t-35 -15t-35 15t-15 35zM258 550q0 20 15 35t35 15t35 -15t15 -35t-15 -35t-35 -15t-35 15t-15 35z" />
    <glyph glyph-name="uni04E2" unicode="&#x4e2;" horiz-adv-x="710" 
d="M550 0v509l-464 -539v697h74v-511l464 539v-695h-74zM200 733v64h320v-64h-320z" />
    <glyph glyph-name="uni04E3" unicode="&#x4e3;" horiz-adv-x="492" 
d="M68 415h72v-274l284 306v-447h-72v277l-284 -306v444zM96 513v60h302v-60h-302z" />
    <glyph glyph-name="uni04E4" unicode="&#x4e4;" horiz-adv-x="710" 
d="M550 0v509l-464 -539v697h74v-511l464 539v-695h-74zM214 784q0 21 15 36t36 15t36 -15t15 -36t-15 -36t-36 -15t-36 15t-15 36zM404 784q0 21 15 36t36 15t36 -15t15 -36t-15 -36t-36 -15t-36 15t-15 36z" />
    <glyph glyph-name="uni04E5" unicode="&#x4e5;" horiz-adv-x="492" 
d="M68 415h72v-274l284 306v-447h-72v277l-284 -306v444zM110 550q0 20 15 35t35 15t35 -15t15 -35t-15 -35t-35 -15t-35 15t-15 35zM284 550q0 20 15 35t35 15t35 -15t15 -35t-15 -35t-35 -15t-35 15t-15 35z" />
    <glyph glyph-name="uni04E6" unicode="&#x4e6;" horiz-adv-x="794" 
d="M397 -12q-146 0 -246.5 99t-100.5 246q0 148 101 246.5t246 98.5t246 -98.5t101 -246.5q0 -147 -100.5 -246t-246.5 -99zM397 608q-113 0 -192 -80t-79 -195t79 -195t192 -80q112 0 191.5 80.5t79.5 194.5t-79.5 194.5t-191.5 80.5zM251 784q0 21 15 36t36 15t36 -15
t15 -36t-15 -36t-36 -15t-36 15t-15 36zM441 784q0 21 15 36t36 15t36 -15t15 -36t-15 -36t-36 -15t-36 15t-15 36z" />
    <glyph glyph-name="uni04E7" unicode="&#x4e7;" horiz-adv-x="524" 
d="M262 -12q-95 0 -157.5 62t-62.5 156t62.5 156.5t157.5 62.5t157.5 -62.5t62.5 -156.5t-62.5 -156t-157.5 -62zM262 361q-61 0 -103.5 -41.5t-42.5 -113.5t43 -113t103 -41t103 41.5t43 112.5q0 72 -42.5 113.5t-103.5 41.5zM125 550q0 20 15 35t35 15t35 -15t15 -35
t-15 -35t-35 -15t-35 15t-15 35zM299 550q0 20 15 35t35 15t35 -15t15 -35t-15 -35t-35 -15t-35 15t-15 35z" />
    <glyph glyph-name="uni04E8" unicode="&#x4e8;" horiz-adv-x="792" 
d="M396 -12q-145 0 -245.5 99t-100.5 246q0 148 100.5 246.5t245.5 98.5t245.5 -98.5t100.5 -246.5q0 -147 -100.5 -246t-245.5 -99zM129 380h534q-17 105 -95.5 166.5t-171.5 61.5t-171.5 -61.5t-95.5 -166.5zM666 310h-540q10 -111 88.5 -181.5t181.5 -70.5t181.5 70.5
t88.5 181.5z" />
    <glyph glyph-name="uni04E9" unicode="&#x4e9;" horiz-adv-x="524" 
d="M262 -12q-95 0 -157.5 62t-62.5 156t62.5 156.5t157.5 62.5t157.5 -62.5t62.5 -156.5t-62.5 -156t-157.5 -62zM120 244h284q-9 55 -50 86t-92 31t-92 -31t-50 -86zM406 180h-288q6 -57 48 -92.5t96 -35.5q55 0 96.5 35.5t47.5 92.5z" />
    <glyph glyph-name="uni04EA" unicode="&#x4ea;" horiz-adv-x="792" 
d="M396 -12q-145 0 -245.5 99t-100.5 246q0 148 100.5 246.5t245.5 98.5t245.5 -98.5t100.5 -246.5q0 -147 -100.5 -246t-245.5 -99zM129 380h534q-17 105 -95.5 166.5t-171.5 61.5t-171.5 -61.5t-95.5 -166.5zM666 310h-540q10 -111 88.5 -181.5t181.5 -70.5t181.5 70.5
t88.5 181.5zM251 784q0 21 15 36t36 15t36 -15t15 -36t-15 -36t-36 -15t-36 15t-15 36zM441 784q0 21 15 36t36 15t36 -15t15 -36t-15 -36t-36 -15t-36 15t-15 36z" />
    <glyph glyph-name="uni04EB" unicode="&#x4eb;" horiz-adv-x="524" 
d="M262 -12q-95 0 -157.5 62t-62.5 156t62.5 156.5t157.5 62.5t157.5 -62.5t62.5 -156.5t-62.5 -156t-157.5 -62zM120 244h284q-9 55 -50 86t-92 31t-92 -31t-50 -86zM406 180h-288q6 -57 48 -92.5t96 -35.5q55 0 96.5 35.5t47.5 92.5zM125 550q0 20 15 35t35 15t35 -15
t15 -35t-15 -35t-35 -15t-35 15t-15 35zM299 550q0 20 15 35t35 15t35 -15t15 -35t-15 -35t-35 -15t-35 15t-15 35z" />
    <glyph glyph-name="uni04EE" unicode="&#x4ee;" horiz-adv-x="568" 
d="M8 667h90l208 -393l174 393h80l-301 -667h-80l85 186zM135 733v64h320v-64h-320z" />
    <glyph glyph-name="uni04EF" unicode="&#x4ef;" horiz-adv-x="460" 
d="M67 -230l132 269l-191 376h82l147 -297l135 297h80l-305 -645h-80zM80 513v60h302v-60h-302z" />
    <glyph glyph-name="uni04F0" unicode="&#x4f0;" horiz-adv-x="568" 
d="M8 667h90l208 -393l174 393h80l-301 -667h-80l85 186zM149 784q0 21 15 36t36 15t36 -15t15 -36t-15 -36t-36 -15t-36 15t-15 36zM339 784q0 21 15 36t36 15t36 -15t15 -36t-15 -36t-36 -15t-36 15t-15 36z" />
    <glyph glyph-name="uni04F1" unicode="&#x4f1;" horiz-adv-x="460" 
d="M67 -230l132 269l-191 376h82l147 -297l135 297h80l-305 -645h-80zM104 550q0 20 15 35t35 15t35 -15t15 -35t-15 -35t-35 -15t-35 15t-15 35zM278 550q0 20 15 35t35 15t35 -15t15 -35t-15 -35t-35 -15t-35 15t-15 35z" />
    <glyph glyph-name="uni04F2" unicode="&#x4f2;" horiz-adv-x="568" 
d="M8 667h90l208 -393l174 393h80l-301 -667h-80l85 186zM288 882l70 -40l-147 -122l-43 26zM438 882l70 -40l-147 -122l-43 26z" />
    <glyph glyph-name="uni04F3" unicode="&#x4f3;" horiz-adv-x="460" 
d="M67 -230l132 269l-191 376h82l147 -297l135 297h80l-305 -645h-80zM231 666l72 -32l-137 -136l-41 23zM365 666l70 -32l-135 -136l-41 23z" />
    <glyph glyph-name="uni04F4" unicode="&#x4f4;" horiz-adv-x="590" 
d="M430 0v286q-93 -7 -138 -7q-119 0 -165 36q-61 47 -61 155v197h74v-187q0 -81 40 -110q27 -21 116 -21q59 0 134 7v311h74v-667h-74zM144 784q0 21 15 36t36 15t36 -15t15 -36t-15 -36t-36 -15t-36 15t-15 36zM334 784q0 21 15 36t36 15t36 -15t15 -36t-15 -36t-36 -15
t-36 15t-15 36z" />
    <glyph glyph-name="uni04F5" unicode="&#x4f5;" horiz-adv-x="430" 
d="M290 0v163q-61 -9 -98 -9q-68 0 -101 30q-35 31 -35 102v129h72v-119q0 -34 9 -49q14 -27 63 -27q44 0 90 9v186h72v-415h-72zM74 550q0 20 15 35t35 15t35 -15t15 -35t-15 -35t-35 -15t-35 15t-15 35zM248 550q0 20 15 35t35 15t35 -15t15 -35t-15 -35t-35 -15t-35 15
t-15 35z" />
    <glyph glyph-name="uni04F8" unicode="&#x4f8;" horiz-adv-x="710" 
d="M86 0v667h74v-277h90q230 0 230 -188q0 -95 -58.5 -148.5t-157.5 -53.5h-178zM160 320v-250h86q86 0 123 37q35 31 35 95q0 72 -54 101q-31 17 -112 17h-78zM550 667h74v-667h-74v667zM209 784q0 21 15 36t36 15t36 -15t15 -36t-15 -36t-36 -15t-36 15t-15 36zM399 784
q0 21 15 36t36 15t36 -15t15 -36t-15 -36t-36 -15t-36 15t-15 36z" />
    <glyph glyph-name="uni04F9" unicode="&#x4f9;" horiz-adv-x="562" 
d="M68 0v415h72v-159h74q85 0 126 -41q32 -32 32 -87q0 -60 -37 -93q-38 -35 -122 -35h-145zM140 64h67q47 0 64 11q27 21 27 53q0 36 -26 52q-19 12 -64 12h-68v-128zM422 0v415h72v-415h-72zM144 550q0 20 15 35t35 15t35 -15t15 -35t-15 -35t-35 -15t-35 15t-15 35z
M318 550q0 20 15 35t35 15t35 -15t15 -35t-15 -35t-35 -15t-35 15t-15 35z" />
    <glyph glyph-name="uni1E9E" unicode="&#x1e9e;" horiz-adv-x="577" 
d="M86 0v480q0 91 59 145q58 53 142 53q76 0 125 -32q36 -23 57 -65.5t21 -82.5l-143 -122q66 -10 114 -46q66 -51 66 -134q0 -102 -96 -163q-63 -39 -160 -45v70q75 6 118 34q62 40 62 99q0 66 -64 107q-39 24 -116 31v60l142 128q-20 91 -124 91q-62 0 -97 -39
q-32 -35 -32 -103v-466h-74z" />
    <glyph glyph-name="uni2010" unicode="&#x2010;" horiz-adv-x="320" 
d="M50 176v74h220v-74h-220z" />
    <glyph glyph-name="uni2011" unicode="&#x2011;" horiz-adv-x="320" 
d="M50 176v74h220v-74h-220z" />
    <glyph glyph-name="figuredash" unicode="&#x2012;" horiz-adv-x="580" 
d="M70 307v64h440v-64h-440z" />
    <glyph glyph-name="endash" unicode="&#x2013;" horiz-adv-x="580" 
d="M70 181v64h440v-64h-440z" />
    <glyph glyph-name="emdash" unicode="&#x2014;" horiz-adv-x="800" 
d="M70 181v64h660v-64h-660z" />
    <glyph glyph-name="afii00208" unicode="&#x2015;" horiz-adv-x="800" 
d="M70 181v64h660v-64h-660z" />
    <glyph glyph-name="quoteleft" unicode="&#x2018;" horiz-adv-x="264" 
d="M206 667l-83 -231l-65 24l101 226z" />
    <glyph glyph-name="quoteright" unicode="&#x2019;" horiz-adv-x="264" 
d="M58 460l81 231l67 -24l-101 -226z" />
    <glyph glyph-name="quotesinglbase" unicode="&#x201a;" horiz-adv-x="308" 
d="M58 -133l81 231l67 -24l-101 -226z" />
    <glyph glyph-name="quotedblleft" unicode="&#x201c;" horiz-adv-x="410" 
d="M206 667l-83 -231l-65 24l101 226zM352 667l-81 -231l-67 24l101 226z" />
    <glyph glyph-name="quotedblright" unicode="&#x201d;" horiz-adv-x="410" 
d="M58 460l81 231l67 -24l-101 -226zM204 460l83 231l65 -24l-101 -226z" />
    <glyph glyph-name="quotedblbase" unicode="&#x201e;" horiz-adv-x="454" 
d="M58 -133l81 231l67 -24l-101 -226zM204 -133l83 231l65 -24l-101 -226z" />
    <glyph glyph-name="dagger" unicode="&#x2020;" horiz-adv-x="568" 
d="M248 503v226h72v-226h148v-68h-148v-605h-72v605h-148v68h148z" />
    <glyph glyph-name="daggerdbl" unicode="&#x2021;" horiz-adv-x="568" 
d="M248 503v226h72v-226h148v-68h-148v-277h148v-68h-148v-266h-72v266h-148v68h148v277h-148v68h148z" />
    <glyph glyph-name="bullet" unicode="&#x2022;" horiz-adv-x="1000" 
d="M360 340q0 58 41 99t99 41t99 -41t41 -99t-41 -99t-99 -41t-99 41t-41 99z" />
    <glyph glyph-name="ellipsis" unicode="&#x2026;" horiz-adv-x="746" 
d="M75 40q0 20 15 35t35 15t35 -15t15 -35t-15 -35t-35 -15t-35 15t-15 35zM323 40q0 20 15 35t35 15t35 -15t15 -35t-15 -35t-35 -15t-35 15t-15 35zM571 40q0 20 15 35t35 15t35 -15t15 -35t-15 -35t-35 -15t-35 15t-15 35z" />
    <glyph glyph-name="perthousand" unicode="&#x2030;" horiz-adv-x="1060" 
d="M178 673q60 0 102.5 -42.5t42.5 -102.5t-42.5 -102.5t-102.5 -42.5t-102.5 42.5t-42.5 102.5t42.5 102.5t102.5 42.5zM178 438q36 0 60.5 26.5t24.5 63.5t-24.5 63.5t-60.5 26.5t-60.5 -26t-24.5 -64t24.5 -64t60.5 -26zM141 10l389 670l39 -22l-389 -671zM532 283
q60 0 102.5 -42.5t42.5 -102.5t-42.5 -102.5t-102.5 -42.5t-102.5 42.5t-42.5 102.5t42.5 102.5t102.5 42.5zM532 48q36 0 60.5 26.5t24.5 63.5t-24.5 63.5t-60.5 26.5t-60.5 -26t-24.5 -64t24.5 -64t60.5 -26zM882 283q60 0 102.5 -42.5t42.5 -102.5t-42.5 -102.5
t-102.5 -42.5t-102.5 42.5t-42.5 102.5t42.5 102.5t102.5 42.5zM882 48q36 0 60.5 26.5t24.5 63.5t-24.5 63.5t-60.5 26.5t-60.5 -26t-24.5 -64t24.5 -64t60.5 -26z" />
    <glyph glyph-name="guilsinglleft" unicode="&#x2039;" horiz-adv-x="282" 
d="M112 212l120 -146l-46 -36l-150 182l150 188l46 -37z" />
    <glyph glyph-name="guilsinglright" unicode="&#x203a;" horiz-adv-x="282" 
d="M170 218l-120 146l46 36l150 -182l-150 -188l-46 37z" />
    <glyph glyph-name="fraction" unicode="&#x2044;" horiz-adv-x="126" 
d="M-150 10l388 670l38 -22l-388 -671z" />
    <glyph glyph-name="uni2080" unicode="&#x2080;" horiz-adv-x="350" 
d="M175 -7q-63 0 -106 60q-41 57 -41 147q0 93 41 147q42 59 106 59t106 -59q41 -54 41 -147q0 -90 -41 -147q-43 -60 -106 -60zM175 360q-41 0 -67 -41q-28 -43 -28 -119q0 -72 28 -118q28 -43 67 -43t67 43t28 118q0 79 -28 119q-26 41 -67 41z" />
    <glyph glyph-name="uni2081" unicode="&#x2081;" horiz-adv-x="350" 
d="M166 0v354h-78l24 46h106v-400h-52z" />
    <glyph glyph-name="uni2082" unicode="&#x2082;" horiz-adv-x="350" 
d="M297 0h-265l146 169q28 33 46 58q22 32 22 61q0 30 -20.5 51t-55.5 21q-45 0 -65 -34q-12 -22 -12 -48h-50q3 54 30 87q35 41 96 41q57 0 93 -32.5t36 -86.5q0 -39 -32 -85q-16 -23 -55 -67l-77 -89h163v-46z" />
    <glyph glyph-name="uni2083" unicode="&#x2083;" horiz-adv-x="350" 
d="M102 296h-50q2 37 19 64q28 46 97 46q61 0 88.5 -33.5t27.5 -73.5q0 -66 -52 -89q58 -22 58 -97q0 -51 -34.5 -85.5t-92.5 -34.5q-85 0 -115 69q-8 17 -10 47h50q1 -20 14 -40q22 -30 59 -30q35 0 56 21.5t21 54.5q0 48 -39 65q-17 9 -46 7v46q29 -2 46 8q33 17 33 57
q0 26 -15.5 44t-48.5 18q-36 0 -51 -21q-13 -16 -15 -43z" />
    <glyph glyph-name="uni2084" unicode="&#x2084;" horiz-adv-x="350" 
d="M269 422v-300h49v-46h-49v-76h-50v76h-205zM106 122h113v155z" />
    <glyph glyph-name="uni2085" unicode="&#x2085;" horiz-adv-x="350" 
d="M297 400v-46h-134l-22 -81q16 2 25 2q62 0 98 -38.5t36 -97.5q0 -68 -45.5 -107t-107.5 -39q-52 0 -90 31q-23 18 -35 41l39 30q12 -20 26 -32q28 -24 62 -24q42 0 70.5 28.5t28.5 68.5q0 41 -28 67t-71 26q-41 0 -77 -28l45 153l13 46h167z" />
    <glyph glyph-name="uni2086" unicode="&#x2086;" horiz-adv-x="350" 
d="M202 413l42 -31l-92 -123q15 5 31 5q60 0 97 -38t37 -96q0 -60 -39.5 -98.5t-101.5 -38.5q-61 0 -102 38.5t-41 97.5q0 44 33 92zM175 39q42 0 66 28t24 62q0 38 -26.5 63.5t-64.5 25.5t-63.5 -25.5t-25.5 -63.5q0 -35 23 -62.5t67 -27.5z" />
    <glyph glyph-name="uni2087" unicode="&#x2087;" horiz-adv-x="350" 
d="M32 18l222 336h-214v46h300l-267 -410z" />
    <glyph glyph-name="uni2088" unicode="&#x2088;" horiz-adv-x="350" 
d="M109 208q-48 28 -48 88q0 47 30.5 78.5t83.5 31.5t83.5 -31.5t30.5 -78.5q0 -60 -48 -88q61 -27 61 -98q0 -50 -34 -83.5t-93 -33.5t-93 33.5t-34 83.5q0 71 61 98zM175 229q29 0 47 19t18 47q0 31 -18.5 48t-46.5 17t-46.5 -17t-18.5 -48q0 -28 18 -47t47 -19zM175 185
q-33 0 -54 -21t-21 -52q0 -32 21 -52.5t54 -20.5t54 20.5t21 52.5q0 31 -21 52t-54 21z" />
    <glyph glyph-name="uni2089" unicode="&#x2089;" horiz-adv-x="350" 
d="M148 -14l-42 31l92 123q-15 -5 -31 -5q-60 0 -97 38t-37 96q0 60 39.5 98.5t101.5 38.5q61 0 102 -38.5t41 -97.5q0 -44 -33 -92zM175 360q-42 0 -66 -28t-24 -62q0 -38 26.5 -63.5t64.5 -25.5t63.5 25.5t25.5 63.5q0 35 -23 62.5t-67 27.5z" />
    <glyph glyph-name="Euro" unicode="&#x20ac;" horiz-adv-x="568" 
d="M528 622l-33 -67q-63 53 -151 53q-49 0 -87.5 -17.5t-61 -46.5t-34.5 -53.5t-20 -50.5h319l-26 -66h-305q-6 -37 -1 -78h281l-26 -66h-244q15 -76 70 -124t137 -48q100 0 182 77v-92q-83 -55 -186 -55q-123 0 -195.5 69t-87.5 173h-67l26 66h34q-5 42 1 78h-61l26 66h43
q22 100 96 169t192 69q100 0 179 -56z" />
    <glyph glyph-name="uni20B4" unicode="&#x20b4;" horiz-adv-x="568" 
d="M158 535l-59 39q35 45 79 71q53 33 127 33q70 0 112 -36q42 -35 42 -89q0 -62 -49 -113h93v-56h-138l-89 -88h227v-56h-278q-45 -44 -45 -100q0 -34 25 -57q29 -25 74 -25q54 0 97 38q27 25 49 74l68 -30q-20 -55 -59 -92q-60 -60 -159 -60q-74 0 -118 33q-53 42 -53 114
q0 56 39 105h-77v56h122l89 88h-211v56h262q57 50 57 95q0 31 -22 50q-24 23 -71 23q-43 0 -77 -22q-33 -21 -57 -51z" />
    <glyph glyph-name="uni20B6" unicode="&#x20b6;" horiz-adv-x="568" 
d="M142 667h121q121 0 177 -56q52 -52 52 -134q0 -79 -50 -127q-56 -56 -161 -56h-65v-88h164v-56h-164v-150h-74v150h-76v56h76v88h-76v66h76v307zM216 597v-237h61q73 0 112 39q29 35 29 84q0 48 -28 76q-38 38 -119 38h-55z" />
    <glyph glyph-name="uni20B6" unicode="&#x20cf;" horiz-adv-x="568" 
d="M142 667h121q121 0 177 -56q52 -52 52 -134q0 -79 -50 -127q-56 -56 -161 -56h-65v-88h164v-56h-164v-150h-74v150h-76v56h76v88h-76v66h76v307zM216 597v-237h61q73 0 112 39q29 35 29 84q0 48 -28 76q-38 38 -119 38h-55z" />
    <glyph glyph-name="uni20B6" unicode="&#x20ce;" horiz-adv-x="568" 
d="M142 667h121q121 0 177 -56q52 -52 52 -134q0 -79 -50 -127q-56 -56 -161 -56h-65v-88h164v-56h-164v-150h-74v150h-76v56h76v88h-76v66h76v307zM216 597v-237h61q73 0 112 39q29 35 29 84q0 48 -28 76q-38 38 -119 38h-55z" />
    <glyph glyph-name="uni20B6" unicode="&#x20cd;" horiz-adv-x="568" 
d="M142 667h121q121 0 177 -56q52 -52 52 -134q0 -79 -50 -127q-56 -56 -161 -56h-65v-88h164v-56h-164v-150h-74v150h-76v56h76v88h-76v66h76v307zM216 597v-237h61q73 0 112 39q29 35 29 84q0 48 -28 76q-38 38 -119 38h-55z" />
    <glyph glyph-name="uni20B6" unicode="&#x20cc;" horiz-adv-x="568" 
d="M142 667h121q121 0 177 -56q52 -52 52 -134q0 -79 -50 -127q-56 -56 -161 -56h-65v-88h164v-56h-164v-150h-74v150h-76v56h76v88h-76v66h76v307zM216 597v-237h61q73 0 112 39q29 35 29 84q0 48 -28 76q-38 38 -119 38h-55z" />
    <glyph glyph-name="uni20B6" unicode="&#x20cb;" horiz-adv-x="568" 
d="M142 667h121q121 0 177 -56q52 -52 52 -134q0 -79 -50 -127q-56 -56 -161 -56h-65v-88h164v-56h-164v-150h-74v150h-76v56h76v88h-76v66h76v307zM216 597v-237h61q73 0 112 39q29 35 29 84q0 48 -28 76q-38 38 -119 38h-55z" />
    <glyph glyph-name="uni20B6" unicode="&#x20ca;" horiz-adv-x="568" 
d="M142 667h121q121 0 177 -56q52 -52 52 -134q0 -79 -50 -127q-56 -56 -161 -56h-65v-88h164v-56h-164v-150h-74v150h-76v56h76v88h-76v66h76v307zM216 597v-237h61q73 0 112 39q29 35 29 84q0 48 -28 76q-38 38 -119 38h-55z" />
    <glyph glyph-name="uni20B6" unicode="&#x20c9;" horiz-adv-x="568" 
d="M142 667h121q121 0 177 -56q52 -52 52 -134q0 -79 -50 -127q-56 -56 -161 -56h-65v-88h164v-56h-164v-150h-74v150h-76v56h76v88h-76v66h76v307zM216 597v-237h61q73 0 112 39q29 35 29 84q0 48 -28 76q-38 38 -119 38h-55z" />
    <glyph glyph-name="uni20B6" unicode="&#x20c8;" horiz-adv-x="568" 
d="M142 667h121q121 0 177 -56q52 -52 52 -134q0 -79 -50 -127q-56 -56 -161 -56h-65v-88h164v-56h-164v-150h-74v150h-76v56h76v88h-76v66h76v307zM216 597v-237h61q73 0 112 39q29 35 29 84q0 48 -28 76q-38 38 -119 38h-55z" />
    <glyph glyph-name="uni20B6" unicode="&#x20c7;" horiz-adv-x="568" 
d="M142 667h121q121 0 177 -56q52 -52 52 -134q0 -79 -50 -127q-56 -56 -161 -56h-65v-88h164v-56h-164v-150h-74v150h-76v56h76v88h-76v66h76v307zM216 597v-237h61q73 0 112 39q29 35 29 84q0 48 -28 76q-38 38 -119 38h-55z" />
    <glyph glyph-name="uni20B6" unicode="&#x20c6;" horiz-adv-x="568" 
d="M142 667h121q121 0 177 -56q52 -52 52 -134q0 -79 -50 -127q-56 -56 -161 -56h-65v-88h164v-56h-164v-150h-74v150h-76v56h76v88h-76v66h76v307zM216 597v-237h61q73 0 112 39q29 35 29 84q0 48 -28 76q-38 38 -119 38h-55z" />
    <glyph glyph-name="uni20B6" unicode="&#x20c5;" horiz-adv-x="568" 
d="M142 667h121q121 0 177 -56q52 -52 52 -134q0 -79 -50 -127q-56 -56 -161 -56h-65v-88h164v-56h-164v-150h-74v150h-76v56h76v88h-76v66h76v307zM216 597v-237h61q73 0 112 39q29 35 29 84q0 48 -28 76q-38 38 -119 38h-55z" />
    <glyph glyph-name="uni20B6" unicode="&#x20c4;" horiz-adv-x="568" 
d="M142 667h121q121 0 177 -56q52 -52 52 -134q0 -79 -50 -127q-56 -56 -161 -56h-65v-88h164v-56h-164v-150h-74v150h-76v56h76v88h-76v66h76v307zM216 597v-237h61q73 0 112 39q29 35 29 84q0 48 -28 76q-38 38 -119 38h-55z" />
    <glyph glyph-name="uni20B6" unicode="&#x20c3;" horiz-adv-x="568" 
d="M142 667h121q121 0 177 -56q52 -52 52 -134q0 -79 -50 -127q-56 -56 -161 -56h-65v-88h164v-56h-164v-150h-74v150h-76v56h76v88h-76v66h76v307zM216 597v-237h61q73 0 112 39q29 35 29 84q0 48 -28 76q-38 38 -119 38h-55z" />
    <glyph glyph-name="uni20B6" unicode="&#x20c2;" horiz-adv-x="568" 
d="M142 667h121q121 0 177 -56q52 -52 52 -134q0 -79 -50 -127q-56 -56 -161 -56h-65v-88h164v-56h-164v-150h-74v150h-76v56h76v88h-76v66h76v307zM216 597v-237h61q73 0 112 39q29 35 29 84q0 48 -28 76q-38 38 -119 38h-55z" />
    <glyph glyph-name="uni20B6" unicode="&#x20c1;" horiz-adv-x="568" 
d="M142 667h121q121 0 177 -56q52 -52 52 -134q0 -79 -50 -127q-56 -56 -161 -56h-65v-88h164v-56h-164v-150h-74v150h-76v56h76v88h-76v66h76v307zM216 597v-237h61q73 0 112 39q29 35 29 84q0 48 -28 76q-38 38 -119 38h-55z" />
    <glyph glyph-name="uni20B6" unicode="&#x20c0;" horiz-adv-x="568" 
d="M142 667h121q121 0 177 -56q52 -52 52 -134q0 -79 -50 -127q-56 -56 -161 -56h-65v-88h164v-56h-164v-150h-74v150h-76v56h76v88h-76v66h76v307zM216 597v-237h61q73 0 112 39q29 35 29 84q0 48 -28 76q-38 38 -119 38h-55z" />
    <glyph glyph-name="uni20B6" unicode="&#x20bf;" horiz-adv-x="568" 
d="M142 667h121q121 0 177 -56q52 -52 52 -134q0 -79 -50 -127q-56 -56 -161 -56h-65v-88h164v-56h-164v-150h-74v150h-76v56h76v88h-76v66h76v307zM216 597v-237h61q73 0 112 39q29 35 29 84q0 48 -28 76q-38 38 -119 38h-55z" />
    <glyph glyph-name="uni20B6" unicode="&#x20be;" horiz-adv-x="568" 
d="M142 667h121q121 0 177 -56q52 -52 52 -134q0 -79 -50 -127q-56 -56 -161 -56h-65v-88h164v-56h-164v-150h-74v150h-76v56h76v88h-76v66h76v307zM216 597v-237h61q73 0 112 39q29 35 29 84q0 48 -28 76q-38 38 -119 38h-55z" />
    <glyph glyph-name="uni20B6" unicode="&#x20bd;" horiz-adv-x="568" 
d="M142 667h121q121 0 177 -56q52 -52 52 -134q0 -79 -50 -127q-56 -56 -161 -56h-65v-88h164v-56h-164v-150h-74v150h-76v56h76v88h-76v66h76v307zM216 597v-237h61q73 0 112 39q29 35 29 84q0 48 -28 76q-38 38 -119 38h-55z" />
    <glyph glyph-name="uni20B6" unicode="&#x20bc;" horiz-adv-x="568" 
d="M142 667h121q121 0 177 -56q52 -52 52 -134q0 -79 -50 -127q-56 -56 -161 -56h-65v-88h164v-56h-164v-150h-74v150h-76v56h76v88h-76v66h76v307zM216 597v-237h61q73 0 112 39q29 35 29 84q0 48 -28 76q-38 38 -119 38h-55z" />
    <glyph glyph-name="uni20B6" unicode="&#x20bb;" horiz-adv-x="568" 
d="M142 667h121q121 0 177 -56q52 -52 52 -134q0 -79 -50 -127q-56 -56 -161 -56h-65v-88h164v-56h-164v-150h-74v150h-76v56h76v88h-76v66h76v307zM216 597v-237h61q73 0 112 39q29 35 29 84q0 48 -28 76q-38 38 -119 38h-55z" />
    <glyph glyph-name="uni20B6" unicode="&#x20ba;" horiz-adv-x="568" 
d="M142 667h121q121 0 177 -56q52 -52 52 -134q0 -79 -50 -127q-56 -56 -161 -56h-65v-88h164v-56h-164v-150h-74v150h-76v56h76v88h-76v66h76v307zM216 597v-237h61q73 0 112 39q29 35 29 84q0 48 -28 76q-38 38 -119 38h-55z" />
    <glyph glyph-name="uni20B6" unicode="&#x20b9;" horiz-adv-x="568" 
d="M142 667h121q121 0 177 -56q52 -52 52 -134q0 -79 -50 -127q-56 -56 -161 -56h-65v-88h164v-56h-164v-150h-74v150h-76v56h76v88h-76v66h76v307zM216 597v-237h61q73 0 112 39q29 35 29 84q0 48 -28 76q-38 38 -119 38h-55z" />
    <glyph glyph-name="uni20B6" unicode="&#x20b7;" horiz-adv-x="568" 
d="M142 667h121q121 0 177 -56q52 -52 52 -134q0 -79 -50 -127q-56 -56 -161 -56h-65v-88h164v-56h-164v-150h-74v150h-76v56h76v88h-76v66h76v307zM216 597v-237h61q73 0 112 39q29 35 29 84q0 48 -28 76q-38 38 -119 38h-55z" />
    <glyph glyph-name="uni20B8" unicode="&#x20b8;" horiz-adv-x="568" 
d="M483 487h-162v-487h-74v487h-162v70h398v-70zM483 607h-398v60h398v-60z" />
    <glyph glyph-name="afii61352" unicode="&#x2116;" horiz-adv-x="1020" 
d="M160 0h-74v695l466 -529v501h74v-697l-466 529v-499zM845 667q60 0 102.5 -42.5t42.5 -102.5t-42.5 -102.5t-102.5 -42.5t-102.5 42.5t-42.5 102.5t42.5 102.5t102.5 42.5zM845 432q36 0 60.5 26.5t24.5 63.5t-24.5 63.5t-60.5 26.5t-60.5 -26t-24.5 -64t24.5 -64
t60.5 -26zM720 227v70h250v-70h-250z" />
    <glyph glyph-name="uni2117" unicode="&#x2117;" horiz-adv-x="740" 
d="M263 519h74q80 0 110 -31q28 -28 28 -77t-28 -77q-31 -31 -99 -31h-31v-158h-54v374zM317 471v-120h22q47 0 65 17q17 14 17 44q0 26 -13 40q-16 19 -71 19h-20zM715 332q0 -131 -94 -238q-101 -107 -251 -107q-80 0 -144.5 30.5t-106.5 76.5q-94 98 -94 238
q0 139 94 237q42 46 106.5 76.5t144.5 30.5q150 0 251 -107q94 -107 94 -237zM370 620q-54 0 -109 -22t-94 -60q-41 -40 -63.5 -95t-22.5 -111q0 -123 86 -207q39 -38 94 -60t109 -22t109 22t94 60q86 84 86 207q0 56 -22.5 111t-63.5 95q-39 38 -94 60t-109 22z" />
    <glyph glyph-name="trademark" unicode="&#x2122;" horiz-adv-x="722" 
d="M234 621h-90v-334h-50v334h-90v46h230v-46zM316 287h-46l65 404l143 -315l147 315l61 -404h-46l-35 257l-127 -276l-125 276z" />
    <glyph glyph-name="partialdiff" unicode="&#x2202;" horiz-adv-x="524" 
d="M83 604l17 69q128 -12 219 -77q70 -50 118 -134q45 -84 45 -213q0 -99 -41 -165q-60 -96 -179 -96q-98 0 -159 64.5t-61 159.5q0 96 59 160.5t155 64.5q85 0 133 -48h2q-30 94 -124 157q-78 50 -184 58zM408 218q0 65 -39.5 110t-103.5 45q-66 0 -107.5 -46t-41.5 -117
q0 -74 44 -116t102 -42q64 0 105 48.5t41 117.5z" />
    <glyph glyph-name="product" unicode="&#x220f;" horiz-adv-x="698" 
d="M36 684v66h626v-66h-78v-868h78v-66h-234v66h82v868h-322v-868h81v-66h-233v66h78v868h-78z" />
    <glyph glyph-name="summation" unicode="&#x2211;" horiz-adv-x="686" 
d="M32 750h574v-215h-74v149h-402l238 -413l-242 -455h414v147h74v-213h-582v46l252 476l-252 432v46z" />
    <glyph glyph-name="minus" unicode="&#x2212;" 
d="M33 300v66h434v-66h-434z" />
    <glyph glyph-name="uni2215" unicode="&#x2215;" horiz-adv-x="592" 
d="M0 -170l514 929l58 -30l-514 -927z" />
    <glyph glyph-name="uni2219" unicode="&#x2219;" horiz-adv-x="200" 
d="M36 340q0 26 19 45t45 19t45 -19t19 -45t-19 -45t-45 -19t-45 19t-19 45z" />
    <glyph glyph-name="radical" unicode="&#x221a;" horiz-adv-x="668" 
d="M409 827h259v-66h-199l-215 -761h-89l-82 300h-83v66h141l70 -268h2z" />
    <glyph glyph-name="infinity" unicode="&#x221e;" horiz-adv-x="668" 
d="M336 292q-68 -105 -165 -105q-67 0 -109.5 43t-42.5 111q0 66 42.5 109t109.5 43q96 0 162 -105q66 105 166 105q66 0 108 -43t42 -111q0 -67 -42 -109.5t-108 -42.5q-100 0 -163 105zM489 429q-36 0 -68.5 -28t-50.5 -61q22 -38 54 -63.5t66 -25.5q35 0 60 24.5t25 64.5
q0 37 -24 63t-62 26zM179 251q66 0 119 89q-20 37 -52 63t-68 26q-38 0 -61.5 -26t-23.5 -64q0 -42 26.5 -65t59.5 -23z" />
    <glyph glyph-name="integral" unicode="&#x222b;" 
d="M404 739l-16 -64q-21 11 -47 11q-27 0 -40 -15q-14 -14 -14 -79v-8v-668q0 -32 -0.5 -47t-7 -39.5t-19.5 -40.5q-33 -39 -97 -39q-34 0 -67 11l16 64q21 -11 47 -11q27 0 40 15q14 14 14 79v8v668q0 32 0.5 47t7 39.5t19.5 40.5q33 39 97 39q34 0 67 -11z" />
    <glyph glyph-name="approxequal" unicode="&#x2248;" 
d="M446 488l44 -26q-19 -44 -50 -73q-39 -39 -96 -39q-34 0 -108 34q-69 32 -95 32q-29 0 -52 -20q-20 -16 -35 -52l-44 26q21 48 48 78q34 38 87 38q40 0 113 -34q66 -32 95 -32q37 0 61 24q20 19 32 44zM446 322l44 -26q-19 -44 -50 -73q-39 -39 -96 -39q-34 0 -108 34
q-69 32 -95 32q-29 0 -52 -20q-20 -16 -35 -52l-44 26q21 48 48 78q34 38 87 38q40 0 113 -34q66 -32 95 -32q37 0 61 24q20 19 32 44z" />
    <glyph glyph-name="notequal" unicode="&#x2260;" 
d="M33 384v66h240l55 114h59l-54 -114h134v-66h-166l-42 -88h208v-66h-240l-54 -114h-60l55 114h-135v66h166l43 88h-209z" />
    <glyph glyph-name="lessequal" unicode="&#x2264;" 
d="M110 377l357 -159v-68l-434 196v62l434 196v-68zM467 55h-434v66h434v-66z" />
    <glyph glyph-name="greaterequal" unicode="&#x2265;" 
d="M390 377l-357 159v68l434 -196v-62l-434 -196v68zM467 55h-434v66h434v-66z" />
    <glyph glyph-name="dotmath" unicode="&#x22c5;" horiz-adv-x="200" 
d="M36 340q0 26 19 45t45 19t45 -19t19 -45t-19 -45t-45 -19t-45 19t-19 45z" />
    <glyph glyph-name="lozenge" unicode="&#x25ca;" horiz-adv-x="680" 
d="M74 334l260 360l260 -360l-260 -360zM510 334l-176 243l-176 -243l176 -243z" />
    <glyph glyph-name="openbullet" unicode="&#x25e6;" horiz-adv-x="493" 
d="M108 531q0 59 39.5 98.5t98.5 39.5t98.5 -39.5t39.5 -98.5t-39.5 -98.5t-98.5 -39.5t-98.5 39.5t-39.5 98.5zM158 531q0 -43 27.5 -67.5t60.5 -24.5t60.5 24.5t27.5 67.5t-27.5 67.5t-60.5 24.5t-60.5 -24.5t-27.5 -67.5z" />
    <glyph glyph-name="uniF400" unicode="&#xf400;" horiz-adv-x="2" 
d="M-186 666l74 -34l-134 -135l-45 24z" />
    <glyph glyph-name="uniF401" unicode="&#xf401;" horiz-adv-x="2" 
d="M-236 882l70 -45l-153 -117l-43 32z" />
    <glyph glyph-name="uniF406" unicode="&#xf406;" 
d="M339 841h66q-8 -39 -31 -67q-46 -53 -124 -53t-124 53q-23 28 -31 67h66q8 -23 25 -36q25 -20 64 -20t64 20q17 13 25 36z" />
    <glyph glyph-name="uniF407" unicode="&#xf407;" 
d="M264 -52l70 -30l-104 -128l-50 26z" />
    <glyph glyph-name="uniF408" unicode="&#xf408;" 
d="M250 797l-88 -76l-52 41l140 119l140 -119l-52 -41z" />
    <glyph glyph-name="uniF409" unicode="&#xf409;" 
d="M168 -210l56 160l64 -24l-70 -156z" />
    <glyph glyph-name="uniF40A" unicode="&#xf40a;" 
d="M190 520l52 160l64 -24l-70 -156z" />
    <glyph glyph-name="uniF40B" unicode="&#xf40b;" 
d="M195 784q0 24 15.5 39.5t39.5 15.5t39.5 -15.5t15.5 -39.5t-15.5 -39.5t-39.5 -15.5t-39.5 15.5t-15.5 39.5z" />
    <glyph glyph-name="uniF40C" unicode="&#xf40c;" 
d="M162 818q0 36 26 62t62 26t62 -26t26 -62t-26 -62t-62 -26t-62 26t-26 62zM208 819q0 -17 12.5 -29.5t29.5 -12.5t29.5 12.5t12.5 29.5t-12.5 29.5t-29.5 12.5t-29.5 -12.5t-12.5 -29.5z" />
    <glyph glyph-name="uniF40D" unicode="&#xf40d;" 
d="M362 842l43 -35q-9 -24 -26 -41q-30 -31 -70 -31q-21 0 -67 22q-42 20 -56 20q-17 0 -30 -13q-13 -15 -17 -31l-44 36q11 25 30 45q27 27 63 27q24 0 68 -21q36 -21 56 -21q18 0 32 14q12 12 18 29z" />
    <glyph glyph-name="uniF40E" unicode="&#xf40e;" 
d="M366 -117l-8 -59q-29 -14 -59 -14q-39 0 -68 23.5t-29 63.5q0 34 24 64q19 23 48 39h62q-38 -28 -47 -39q-23 -32 -23 -51q0 -40 52 -40q28 0 48 13z" />
    <glyph glyph-name="uniF4C6" unicode="&#xf4c6;" horiz-adv-x="590" 
d="M430 667h74v-753q0 -79 -34 -113q-31 -31 -87 -31q-31 0 -55 9v72q19 -9 42 -9q28 0 44 13q16 15 16 57v374q-93 -7 -138 -7q-119 0 -165 36q-61 47 -61 155v197h74v-187q0 -81 40 -110q27 -21 116 -21q59 0 134 7v311z" />
    <glyph glyph-name="uniF4C7" unicode="&#xf4c7;" horiz-adv-x="430" 
d="M290 415h72v-487q0 -28 -1 -43.5t-8.5 -39t-22.5 -40.5q-31 -35 -91 -35q-30 0 -51 9v70q27 -9 47 -9q32 0 46 22q9 15 9 60v241q-61 -9 -98 -9q-68 0 -101 30q-35 31 -35 102v129h72v-119q0 -34 9 -49q14 -27 63 -27q44 0 90 9v186z" />
    <glyph glyph-name="uniF4CC" unicode="&#xf4cc;" horiz-adv-x="568" 
d="M8 667h90l208 -393l174 393h80l-301 -667h-80l85 186zM366 882l70 -45l-153 -117l-43 32z" />
    <glyph glyph-name="uniF4CD" unicode="&#xf4cd;" horiz-adv-x="460" 
d="M67 -230l132 269l-191 376h82l147 -297l135 297h80l-305 -645h-80zM293 666l74 -34l-134 -135l-45 24z" />
    <glyph glyph-name="dollar.fitted" unicode="&#xf5f5;" horiz-adv-x="442" 
d="M403 574l-59 -39q-15 32 -38 50q-15 13 -43 21v-222q79 -31 117 -70q47 -49 47 -121t-44 -131t-120 -70v-93h-60v89q-76 4 -128 54q-46 46 -62 118l72 20q7 -52 40 -85q34 -35 78 -37v274q-74 31 -110 65q-46 43 -46 109q0 69 45 116.5t111 53.5v87h60v-87q45 -7 76 -28
q40 -28 64 -74zM263 304v-242q40 12 64 48.5t24 79.5q0 47 -32 79q-17 17 -56 35zM203 411v195q-40 -6 -61 -34t-21 -65q0 -35 25 -60q22 -22 57 -36z" />
    <glyph glyph-name="Euro.fitted" unicode="&#xf5f6;" horiz-adv-x="587" 
d="M553 622l-33 -67q-63 53 -151 53q-49 0 -87.5 -17.5t-61 -46.5t-34.5 -53.5t-20 -50.5h319l-26 -66h-305q-6 -37 -1 -78h281l-26 -66h-244q15 -76 70 -124t137 -48q100 0 182 77v-92q-83 -55 -186 -55q-123 0 -195.5 69t-87.5 173h-67l26 66h34q-5 42 1 78h-61l26 66h43
q22 100 96 169t192 69q100 0 179 -56z" />
    <glyph glyph-name="cent.fitted" unicode="&#xf5f7;" horiz-adv-x="383" 
d="M258 655v-97q58 -8 105 -39v-86q-44 53 -105 61v-306q63 9 108 63v-86q-42 -33 -108 -42v-109h-60v111q-76 11 -127 61q-59 59 -59 153q0 96 62 158q49 49 124 59v99h60zM198 189v302q-40 -5 -69 -34q-43 -43 -43 -117q0 -71 44 -115q27 -27 68 -36z" />
    <glyph glyph-name="sterling.fitted" unicode="&#xf5f8;" horiz-adv-x="526" 
d="M470 458h-73v10q0 70 -36 106q-32 32 -85 32q-52 0 -83 -31q-37 -35 -37 -88q0 -15 2.5 -28.5t9 -30t11 -26t15.5 -31t15 -30.5l14 -28h126v-56h-101q11 -29 11 -61q0 -47 -29 -94l59 -22q54 -21 70 -21q30 0 53 22q21 21 31 47l61 -36q-18 -44 -49 -68q-41 -35 -89 -35
q-40 0 -86 18l-39 15q-51 19 -75 19q-30 0 -53 -18q-16 -12 -30 -36l-57 39q24 36 47 55q36 30 82 30q28 42 28 86q0 29 -13 60h-112v56h86l-20 37q-44 83 -44 139q0 81 53 134t144 53q83 0 133 -50q60 -58 60 -159v-9z" />
    <glyph glyph-name="yen.fitted" unicode="&#xf5f9;" horiz-adv-x="546" 
d="M507 384h-141l-51 -88h192v-56h-198v-240h-74v240h-195v56h189l-51 88h-138v56h106l-131 227h87l170 -298l172 298h87l-133 -227h109v-56z" />
    <glyph glyph-name="florin.fitted" unicode="&#xf5fa;" horiz-adv-x="481" 
d="M416 355h-108l-61 -329q-7 -38 -12 -57t-18 -46t-32 -46q-49 -47 -139 -47q-26 0 -42 4l14 64q14 -2 25 -2q59 0 89 29q31 31 48 128l55 302h-72l9 60h74l33 179q14 78 49 113q33 33 92 33q34 0 64 -10l-13 -67q-24 11 -46 11q-27 0 -44 -16q-19 -19 -32 -84l-30 -159
h106z" />
    <glyph glyph-name="uni20B4.fitted" unicode="&#xf5fb;" horiz-adv-x="477" 
d="M112 535l-59 39q35 45 79 71q53 33 127 33q70 0 112 -36q42 -35 42 -89q0 -62 -49 -113h93v-56h-138l-89 -88h227v-56h-278q-45 -44 -45 -100q0 -34 25 -57q29 -25 74 -25q54 0 97 38q27 25 49 74l68 -30q-20 -55 -59 -92q-60 -60 -159 -60q-74 0 -118 33q-53 42 -53 114
q0 56 39 105h-77v56h122l89 88h-211v56h262q57 50 57 95q0 31 -22 50q-24 23 -71 23q-43 0 -77 -22q-33 -21 -57 -51z" />
    <glyph glyph-name="uni20B6.fitted" unicode="&#xf5fc;" horiz-adv-x="453" 
d="M94 667h121q121 0 177 -56q52 -52 52 -134q0 -79 -50 -127q-56 -56 -161 -56h-65v-88h164v-56h-164v-150h-74v150h-76v56h76v88h-76v66h76v307zM168 597v-237h61q73 0 112 39q29 35 29 84q0 48 -28 76q-38 38 -119 38h-55z" />
    <glyph glyph-name="uni20B8.fitted" unicode="&#xf5fd;" horiz-adv-x="408" 
d="M404 487h-162v-487h-74v487h-162v70h398v-70zM404 607h-398v60h398v-60z" />
    <glyph glyph-name="uniF639" unicode="&#xf639;" horiz-adv-x="530" 
d="M265 -12q-103 0 -171 100q-67 97 -67 245t67 245q36 51 81.5 75.5t89.5 24.5t89.5 -24.5t81.5 -75.5q67 -97 67 -245t-67 -245q-68 -100 -171 -100zM265 610q-69 0 -115 -74q-49 -78 -49 -203t49 -203q46 -74 115 -74t115 74q49 78 49 203t-49 203q-46 74 -115 74z" />
    <glyph glyph-name="uniF63A" unicode="&#xf63a;" horiz-adv-x="480" 
d="M455 0h-431l243 281q62 73 78 97q37 51 37 102q0 57 -36.5 93.5t-96.5 36.5q-72 0 -111 -59q-21 -32 -22 -79h-74q4 85 50 138q59 68 158 68q89 0 147.5 -56.5t58.5 -142.5q0 -67 -53 -143q-27 -37 -91 -111l-139 -157h282v-68z" />
    <glyph glyph-name="uniF63B" unicode="&#xf63b;" horiz-adv-x="457" 
d="M120 502h-74q5 56 31 98q48 78 155 78q89 0 138.5 -53t49.5 -127q0 -104 -86 -148q12 -4 25.5 -13t31 -26.5t28.5 -49.5t11 -72q0 -91 -58.5 -146t-146.5 -55q-58 0 -110 27.5t-76 87.5q-13 29 -15 70h74q5 -39 24 -67q36 -50 103 -50q56 0 93.5 39t37.5 96q0 81 -66 112
q-30 16 -76 14v66q41 -5 76 14q56 28 56 99q0 49 -28 81.5t-86 32.5q-55 0 -86 -38q-22 -28 -26 -70z" />
    <glyph glyph-name="uniF63C" unicode="&#xf63c;" horiz-adv-x="520" 
d="M417 704v-510h82v-68h-82v-126h-74v126h-342zM132 194h211v295z" />
    <glyph glyph-name="uniF63D" unicode="&#xf63d;" horiz-adv-x="490" 
d="M460 667v-68h-214l-43 -144q15 4 42 4q99 0 159.5 -66t60.5 -165q0 -108 -70.5 -174t-172.5 -66q-86 0 -149 52q-38 35 -58 68l59 42q14 -29 45 -54q49 -40 108 -40q69 0 116.5 50t47.5 121q0 72 -46.5 118t-117.5 46q-62 0 -129 -46l76 252l21 70h265z" />
    <glyph glyph-name="uniF63E" unicode="&#xf63e;" horiz-adv-x="496" 
d="M299 683l56 -42l-153 -213q28 9 59 9q94 0 155 -63t61 -157q0 -100 -64.5 -164.5t-164.5 -64.5q-74 0 -128.5 35.5t-78.5 86t-24 105.5q0 78 55 153zM247 56q69 0 112.5 45t43.5 114q0 67 -44 110.5t-113 43.5q-68 0 -111.5 -44t-43.5 -110q0 -67 44 -113t112 -46z" />
    <glyph glyph-name="uniF63F" unicode="&#xf63f;" horiz-adv-x="528" 
d="M23 23l379 576h-365v68h490l-422 -646l-24 -37z" />
    <glyph glyph-name="uniF640" unicode="&#xf640;" horiz-adv-x="464" 
d="M336 347q101 -46 101 -163q0 -83 -53.5 -139.5t-150.5 -56.5q-98 0 -151 56.5t-53 139.5q0 117 101 163q-81 47 -81 146q0 76 49 130.5t135 54.5t135 -54.5t49 -130.5q0 -99 -81 -146zM233 377q49 0 81.5 32.5t32.5 82.5q0 53 -33.5 85.5t-80.5 32.5t-80.5 -32.5
t-33.5 -85.5q0 -50 32.5 -82.5t81.5 -32.5zM233 56q58 0 94 36.5t36 93.5q0 56 -36.5 91.5t-93.5 35.5t-93.5 -35.5t-36.5 -91.5q0 -57 36 -93.5t94 -36.5z" />
    <glyph glyph-name="uniF641" unicode="&#xf641;" horiz-adv-x="496" 
d="M199 -16l-56 41l153 213q-28 -9 -59 -9q-95 0 -155.5 63t-60.5 157q0 100 64.5 164.5t164.5 64.5q74 0 128.5 -35.5t78.5 -86t24 -105.5q0 -77 -55 -153zM251 610q-69 0 -112.5 -45t-43.5 -114q0 -67 44 -110.5t113 -43.5q68 0 111.5 44t43.5 110q0 67 -44 113t-112 46z
" />
    <glyph glyph-name="uniF6BA" unicode="&#xf6ba;" horiz-adv-x="320" 
d="M50 302v74h220v-74h-220z" />
    <glyph glyph-name="uniF6BB" unicode="&#xf6bb;" horiz-adv-x="580" 
d="M70 307v64h440v-64h-440z" />
    <glyph glyph-name="uniF6BC" unicode="&#xf6bc;" horiz-adv-x="800" 
d="M70 307v64h660v-64h-660z" />
    <glyph glyph-name="uniF6C3" unicode="&#xf6c3;" 
d="M170 -210l56 160l64 -24l-70 -156z" />
    <glyph glyph-name="uniF6C9" unicode="&#xf6c9;" 
d="M332 882l70 -45l-153 -117l-43 32z" />
    <glyph glyph-name="uniF6CA" unicode="&#xf6ca;" 
d="M250 805l88 76l52 -41l-140 -119l-140 119l52 41z" />
    <glyph glyph-name="uniF6CB" unicode="&#xf6cb;" 
d="M104 784q0 21 15 36t36 15t36 -15t15 -36t-15 -36t-36 -15t-36 15t-15 36zM294 784q0 21 15 36t36 15t36 -15t15 -36t-15 -36t-36 -15t-36 15t-15 36z" />
    <glyph glyph-name="uniF6CE" unicode="&#xf6ce;" 
d="M251 720l-153 117l70 45l126 -130z" />
    <glyph glyph-name="uniF6CF" unicode="&#xf6cf;" 
d="M254 882l70 -40l-147 -122l-43 26zM404 882l70 -40l-147 -122l-43 26z" />
    <glyph glyph-name="uniF6D0" unicode="&#xf6d0;" 
d="M90 733v64h320v-64h-320z" />
    <glyph glyph-name="uniF6D1" unicode="&#xf6d1;" 
d="M95 818l70 23q6 -19 18.5 -31.5t28 -17t23.5 -6t15 -1.5t15 1.5t23.5 6t28 17t18.5 31.5l70 -23q-3 -10 -11 -22.5t-25 -31t-48 -31t-71 -12.5t-71 12.5t-48 31t-25 31t-11 22.5z" />
    <glyph glyph-name="uniF6D4" unicode="&#xf6d4;" 
d="M105 594l60 23q19 -60 85 -60t85 60l60 -23q-16 -45 -54 -71t-91 -26t-91 26t-54 71z" />
    <glyph glyph-name="uniF6DC" unicode="&#xf6dc;" horiz-adv-x="229" 
d="M114 0v597h-112l39 70h147v-667h-74z" />
    <glyph glyph-name="uniF6DE" unicode="&#xf6de;" horiz-adv-x="600" 
d="M52 181v64h495v-64h-495z" />
    <glyph glyph-name="NULL" horiz-adv-x="0" 
 />
    <glyph glyph-name="CR" horiz-adv-x="233" 
 />
    <glyph glyph-name="nbspace" horiz-adv-x="233" 
 />
    <glyph glyph-name="hyphenminus" horiz-adv-x="320" 
d="M50 176v74h220v-74h-220z" />
    <glyph glyph-name="dotlessi1" horiz-adv-x="208" 
d="M68 415h72v-415h-72v415z" />
    </font>
</defs>
</svg>
