<?xml version="1.0" encoding="UTF-8"?>
<svg width="21px" height="20px" viewBox="0 0 21 20" version="1.1" xmlns="http://www.w3.org/2000/svg" xmlns:xlink="http://www.w3.org/1999/xlink">
    <!-- Generator: sketchtool 44.1 (41455) - http://www.bohemiancoding.com/sketch -->
    <title>F014DEB4-583B-464B-99AC-7AC3940396CF</title>
    <desc>Created with sketchtool.</desc>
    <defs></defs>
    <g id="Page-1" stroke="none" stroke-width="1" fill="none" fill-rule="evenodd">
        <g id="Pop-Up" transform="translate(-1650.000000, -106.000000)">
            <g id="Start-PopUp-Denied" transform="translate(1332.400000, 10.000000)">
                <g id="Group-2" transform="translate(318.000000, 96.000000)">
                    <circle id="Oval-8" fill="#E35071" cx="10" cy="10" r="10"></circle>
                    <path d="M11.2331667,9.995625 L14.7351667,6.493625 C15.077,6.15208333 15.077,5.59791667 14.7351667,5.256375 C14.3933333,4.91454167 13.83975,4.91454167 13.4979167,5.256375 L9.99591667,8.758375 L6.493625,5.256375 C6.15179167,4.91454167 5.59820833,4.91454167 5.256375,5.256375 C4.91454167,5.59791667 4.91454167,6.15208333 5.256375,6.493625 L8.75866667,9.995625 L5.256375,13.497625 C4.91454167,13.8391667 4.91454167,14.3933333 5.256375,14.734875 C5.42729167,14.9055 5.65129167,14.9909583 5.875,14.9909583 C6.09870833,14.9909583 6.32270833,14.9055 6.493625,14.7345833 L9.99591667,11.2325833 L13.4979167,14.7345833 C13.6688333,14.9055 13.8928333,14.9909583 14.1165417,14.9909583 C14.34025,14.9909583 14.56425,14.9055 14.7351667,14.7345833 C15.077,14.3930417 15.077,13.838875 14.7351667,13.4973333 L11.2331667,9.995625 Z" id="Shape" fill="#FFFFFF" fill-rule="nonzero"></path>
                </g>
            </g>
        </g>
    </g>
</svg>